<?xml version="1.0" encoding="UTF-8" standalone="no"?><!DOCTYPE svg PUBLIC "-//W3C//DTD SVG 1.1//EN" "http://www.w3.org/Graphics/SVG/1.1/DTD/svg11.dtd"><svg width="100%" height="100%" viewBox="0 0 1967 2096" version="1.1" xmlns="http://www.w3.org/2000/svg" xmlns:xlink="http://www.w3.org/1999/xlink" xml:space="preserve" xmlns:serif="http://www.serif.com/" style="fill-rule:evenodd;clip-rule:evenodd;stroke-linecap:round;stroke-linejoin:round;stroke-miterlimit:10;"><g id="ico_copa"><path d="M1507.16,1172.953l23.871,48.362l53.371,7.758l-38.621,37.642l9.117,53.158l-47.737,-25.096l-47.737,25.096l9.117,-53.158l-38.621,-37.642l53.375,-7.758l23.867,-48.362Z" style="fill:none;fill-rule:nonzero;stroke:#fff;stroke-width:6.99px;"/><path d="M769.314,211.84l23.871,48.363l53.371,7.758l-38.621,37.642l9.117,53.158l-47.737,-25.096l-47.737,25.096l9.117,-53.158l-38.621,-37.642l53.375,-7.758l23.867,-48.363Z" style="fill:none;fill-rule:nonzero;stroke:#fff;stroke-width:6.99px;"/><path d="M1280.312,7.971l47.737,96.729l106.746,15.508l-77.242,75.292l18.233,106.312l-95.475,-50.196l-95.475,50.196l18.233,-106.312l-77.242,-75.292l106.746,-15.508l47.737,-96.729Z" style="fill:none;fill-rule:nonzero;stroke:#fff;stroke-width:13.98px;"/><path d="M262.667,825.093l76.821,155.658l171.779,24.958l-124.3,121.163l29.342,171.083l-153.642,-80.775l-153.642,80.775l29.342,-171.083l-124.296,-121.163l171.775,-24.958l76.821,-155.658Z" style="fill:none;fill-rule:nonzero;stroke:#fd0;stroke-width:22.5px;"/><path d="M1812.079,346.065l44.558,90.287l99.638,14.475l-72.1,70.279l17.021,99.233l-89.117,-46.854l-89.117,46.854l17.021,-99.233l-72.096,-70.279l99.633,-14.475l44.558,-90.287Z" style="fill:none;fill-rule:nonzero;stroke:#fd0;stroke-width:13.05px;"/><path d="M563.881,1876.918l-25.154,0l0,49.229l25.154,0c9.017,0 16.004,-1.529 20.962,-4.6c4.958,-3.062 7.438,-9.737 7.438,-20.017c0,-10.096 -2.479,-16.721 -7.438,-19.879c-4.958,-3.154 -11.946,-4.733 -20.962,-4.733m-81.417,162.296l0,-205.575l97.375,0c14.067,0 26.417,2.75 37.062,8.25c10.633,5.504 18.971,13.213 25.017,23.129c6.042,9.917 9.062,21.546 9.062,34.892c0,13.346 -3.158,25.154 -9.467,35.433c-6.317,10.279 -14.971,18.033 -25.971,23.263l47.608,80.608l-64.375,0l-38.954,-73.033l-21.096,0l0,73.033l-56.262,0Z" style="fill:#fff;fill-rule:nonzero;"/><path d="M767.29,1984.303l0,-17.854c-1.625,1.267 -4.421,2.483 -8.383,3.654c-3.971,1.175 -9.379,2.479 -16.229,3.921c-5.413,1.079 -9.562,3.071 -12.446,5.95c-2.883,2.887 -4.329,7.125 -4.329,12.712c0,5.054 1.446,9.062 4.329,12.038c2.883,2.975 6.763,4.462 11.633,4.462c5.767,0 10.55,-1.304 14.337,-3.921c3.783,-2.612 6.579,-5.858 8.387,-9.737c1.796,-3.875 2.7,-7.617 2.7,-11.225m-80.067,-50.854l5.413,-41.112c5.95,-4.146 13.975,-7.392 24.071,-9.737c10.1,-2.342 20.108,-3.517 30.025,-3.517c23.079,0 40.713,3.787 52.883,11.358c12.175,7.575 18.258,21.013 18.258,40.304l0,108.467l-49.5,0l0,-26.237l-1.083,0c-3.967,11.542 -9.462,19.433 -16.5,23.671c-7.029,4.233 -16.767,6.354 -29.212,6.354c-8.113,0 -15.554,-1.758 -22.312,-5.275c-6.763,-3.517 -12.175,-8.562 -16.233,-15.146c-4.054,-6.583 -6.087,-14.379 -6.087,-23.4c0,-11.179 2.254,-19.921 6.762,-26.238c4.504,-6.308 10.775,-11.087 18.8,-14.333c8.025,-3.246 17.179,-5.771 27.458,-7.575c9.371,-1.625 16.45,-2.975 21.233,-4.058c4.775,-1.083 8.292,-2.117 10.55,-3.113c2.25,-0.987 4.192,-2.112 5.812,-3.379l0,-5.95c0.175,-6.308 -1.667,-10.954 -5.546,-13.933c-3.875,-2.971 -11.675,-4.458 -23.396,-4.458c-10.462,0 -19.704,1.35 -27.725,4.054c-8.025,2.704 -15.646,7.125 -22.858,13.254l-0.812,0Z" style="fill:#fff;fill-rule:nonzero;"/><path d="M927.687,1921.278c-9.017,0 -15.825,2.842 -20.421,8.521c-4.6,5.679 -6.9,13.658 -6.9,23.938l0,85.475l-50.579,0l0,-156.342l49.771,0l0,33l0.808,0c2.167,-8.658 5.954,-15.692 11.362,-21.1c5.413,-5.412 11.583,-9.375 18.529,-11.9c6.938,-2.525 13.929,-3.788 20.962,-3.788c17.129,0 29.846,4.554 38.142,13.658c8.292,9.108 12.442,22.408 12.442,39.9l0,106.571l-50.583,0l0,-93.05c0,-9.196 -1.754,-15.642 -5.275,-19.337c-3.517,-3.696 -9.604,-5.546 -18.258,-5.546" style="fill:#fff;fill-rule:nonzero;"/><path d="M1084.303,1825.525l0,123.883l55.721,-66.537l45.442,0l-55.987,65.458l60.588,90.883l-56.804,0l-35.162,-53.829l-13.796,15.962l0,37.867l-50.583,0l0,-213.688l50.583,0Z" style="fill:#fff;fill-rule:nonzero;"/><path d="M1253.9,2039.213l-50.583,0l0,-156.342l50.583,0l0,156.342Zm-53.287,-189.617c0,-7.392 2.612,-13.296 7.846,-17.717c5.225,-4.417 11.992,-6.625 20.288,-6.625c8.471,0 15.283,2.208 20.421,6.625c5.142,4.421 7.708,10.325 7.708,17.717c0,7.4 -2.567,13.304 -7.708,17.721c-5.138,4.421 -11.95,6.625 -20.421,6.625c-8.296,0 -15.062,-2.204 -20.288,-6.625c-5.233,-4.417 -7.846,-10.321 -7.846,-17.721" style="fill:#fff;fill-rule:nonzero;"/><path d="M1365.073,1921.278c-9.017,0 -15.825,2.842 -20.421,8.521c-4.6,5.679 -6.9,13.658 -6.9,23.938l0,85.475l-50.579,0l0,-156.342l49.771,0l0,33l0.808,0c2.167,-8.658 5.954,-15.692 11.363,-21.1c5.412,-5.412 11.583,-9.375 18.529,-11.9c6.938,-2.525 13.929,-3.788 20.962,-3.788c17.129,0 29.846,4.554 38.142,13.658c8.292,9.108 12.442,22.408 12.442,39.9l0,106.571l-50.583,0l0,-93.05c0,-9.196 -1.754,-15.642 -5.275,-19.337c-3.517,-3.696 -9.604,-5.546 -18.258,-5.546" style="fill:#fff;fill-rule:nonzero;"/><path d="M1532.236,1911.81c-7.575,0 -13.033,2.167 -16.367,6.492c-3.338,4.329 -5.004,10.192 -5.004,17.583c0,7.396 1.667,13.167 5.004,17.313c3.333,4.15 8.792,6.221 16.367,6.221c7.75,0 13.254,-2.071 16.5,-6.221c3.242,-4.146 4.867,-9.917 4.867,-17.313c0,-7.392 -1.625,-13.254 -4.867,-17.583c-3.246,-4.325 -8.75,-6.492 -16.5,-6.492m42.463,92.508c15.871,0 27.054,3.158 33.542,9.467c6.496,6.317 9.742,16.054 9.742,29.213c0,10.283 -2.8,19.113 -8.388,26.512c-5.588,7.392 -14.787,13.025 -27.592,16.904c-12.804,3.875 -30.025,5.817 -51.662,5.817c-15.688,0 -29.396,-0.996 -41.113,-2.979c-11.725,-1.983 -21.283,-4.692 -28.675,-8.113l-2.704,-31.917l0.812,0c3.788,2.704 9.558,5.225 17.312,7.571c7.75,2.342 16.542,4.238 26.371,5.683c9.829,1.438 19.521,2.162 29.079,2.162c11.721,0 20.467,-0.5 26.237,-1.487c5.767,-0.996 9.646,-2.346 11.633,-4.058c1.979,-1.713 2.971,-3.65 2.971,-5.812c0,-2.887 -0.767,-4.871 -2.296,-5.954c-1.533,-1.079 -4.104,-1.621 -7.708,-1.621l-53.558,0c-12.808,0 -23.125,-2.483 -30.971,-7.438c-7.846,-4.958 -11.767,-13.121 -11.767,-24.483c0,-8.292 2.654,-15.008 7.979,-20.15c5.317,-5.142 11.767,-8.608 19.338,-10.413l0,-0.271c-8.654,-4.688 -15.463,-11.092 -20.421,-19.208c-4.958,-8.112 -7.438,-17.396 -7.438,-27.858c0,-11.362 2.879,-21.321 8.654,-29.892c5.771,-8.562 13.658,-15.188 23.671,-19.879c10.008,-4.688 21.504,-7.033 34.487,-7.033c10.996,0 21.004,1.717 30.025,5.138c9.012,3.429 16.5,8.3 22.45,14.608l1.35,0c2.167,-5.408 6.221,-9.779 12.175,-13.117c5.95,-3.337 12.617,-5.004 20.017,-5.004l16.5,0l-2.708,37.867l-36.783,-6.221l-0.812,1.083c3.062,7.033 4.596,14.517 4.596,22.45c0,11.358 -2.838,21.233 -8.521,29.617c-5.679,8.388 -13.571,14.925 -23.662,19.612c-10.104,4.692 -21.642,7.033 -34.625,7.033c-5.233,0 -9.875,-0.225 -13.933,-0.675c-4.054,-0.45 -6.717,-0.675 -7.979,-0.675c-6.671,0 -10.008,1.983 -10.008,5.946c0,5.054 3.246,7.575 9.742,7.575l64.642,0Z" style="fill:#fff;fill-rule:nonzero;"/><path d="M1338.015,1587.034c4.8,-42.079 -22.558,-73.879 -65.254,-72.963c-134.254,6.529 -276.154,-8.325 -409.508,0c-45.433,2.833 -68.062,26.65 -65.258,72.963l540.021,0Zm-124.292,-192.863l-291.438,0l0,72.858l291.438,0l0,-72.858Zm-203.579,-47.146l113.579,0c-0.358,-8.008 -7.754,-13.875 -11.825,-21.392c-13.425,-24.775 -21.4,-51.163 -24.708,-79.221l-38.25,0.125c-4.942,36.571 -16.671,70.858 -38.796,100.487m478.946,-685.742l-103.929,0c-4.275,63.988 -7.975,128.008 -17.5,191.438c-7.812,51.996 -19.508,103.125 -33.908,153.575c75.958,-58.346 132.154,-142.625 157.946,-235.258c5.179,-18.6 20.179,-80.946 13.987,-96.346c-1.983,-4.933 -11.463,-12.496 -16.596,-13.408m-738.238,0l-103.933,0c-4.317,0 -14.85,9.071 -16.596,13.408c-6.279,15.617 8.75,77.625 13.992,96.346c25.929,92.65 81.867,176.85 157.946,235.258c-14.404,-50.45 -26.1,-101.579 -33.908,-153.575c-9.529,-63.429 -13.346,-127.442 -17.5,-191.438m63.667,-72.408c-24.462,9.813 -14.671,32.829 -14.292,51.963c3.571,181.313 30.758,579.563 292.387,556.146c213.438,-19.1 240.033,-397.229 243.167,-556.146c0.358,-18.012 9.604,-39.125 -11.175,-50.792l-510.088,-1.171Zm510.638,-49.737c25.104,5.163 49.75,23.729 57.263,48.817c2.671,8.917 1.717,16.983 4.746,25.254c5.417,3.804 94.162,-0.925 110.504,0.925c35.796,4.054 60.25,41.904 58.9,76.058c-5.292,134.171 -94.371,282.454 -200.729,360.717c-13.842,10.183 -44.788,25.971 -54.237,35.767c-7.383,7.65 -13.979,25.192 -20.558,35.158c-35.9,54.413 -81.721,98.933 -146.612,115.954c5.117,43.175 23.3,90.729 69.096,103.362c28.958,7.992 56.208,-4.487 59.562,34.729c2.487,29.108 -2.004,61.662 -0.079,91.15l33.217,0c10.604,0 38.975,13.683 48.029,20.542c40.808,30.925 46.608,80.054 40.95,128.442c-1.233,10.562 -7.967,15.425 -17.125,19.3l-600.15,0c-7.629,-3.167 -15.533,-8.325 -16.958,-17.329c-3.358,-21.237 -1.146,-68.987 7.408,-88.779c11.437,-26.462 51.596,-62.175 81.4,-62.175l33.217,0c1.925,-29.487 -2.562,-62.042 -0.075,-91.15c3.304,-38.675 29.163,-26.929 57.913,-34.233c46.717,-11.867 64.867,-59.142 70.471,-102.696l-1.817,-2.287c-63.833,-16.604 -109.429,-61.171 -144.525,-114.829c-6.671,-10.192 -12.975,-27.421 -20.446,-35.267c-7.721,-8.104 -28.587,-17.379 -39.346,-24.946c-114.921,-80.85 -210.067,-227.638 -215.733,-371.429c-1.346,-34.154 23.104,-72.004 58.9,-76.058c16.342,-1.85 105.092,2.879 110.504,-0.925c3.029,-8.271 2.079,-16.337 4.746,-25.254c6.925,-23.125 33.154,-45.75 57.263,-48.817l514.304,0Z" style="fill:#fff;fill-rule:nonzero;"/><path d="M1070.116,725.581c-5,-1.087 -3.425,0.679 -4.767,2.75c-8.642,13.358 -18.146,45.371 -29.625,53.896c-13.113,9.742 -49.254,8.917 -66.292,11.942c8.854,14.596 43.808,37.533 46.708,53.017c2.238,11.958 -11.808,59.792 -8.117,64.821c15.096,-6.521 43.479,-27.496 58.888,-28.046c17.829,-0.633 45.433,22.5 63.237,28.029c-2.483,-17.713 -9.621,-39.704 -10.525,-57.117c-1.192,-22.838 35.246,-42.438 46.958,-60.704c-16.917,-3.417 -53.321,-2.333 -66.296,-11.942c-11.65,-8.625 -22.729,-42.9 -30.171,-56.646m60.592,14.438c28.875,8.737 65.671,6.642 93.883,14.333c13.867,3.779 21.604,15.288 18.65,29.654c-3.979,19.371 -59.275,57.567 -71.946,75.95c-1.117,3.325 -0.471,6.613 -0.196,9.975c2.075,25.467 13.454,56.729 14.787,81.808c1.05,19.775 -10.517,31.375 -30.596,28.375l-88.233,-44.558l-84.7,44.013c-18.854,4.558 -32.7,-6.288 -32.375,-25.763c0.413,-24.629 12.85,-58.354 14.933,-83.875c0.271,-3.362 0.917,-6.65 -0.2,-9.975c-22.154,-25.883 -53.375,-45.296 -71.413,-74.312c-4.425,-16.121 4.271,-27.75 19.867,-31.688c14.954,-3.775 85.767,-8.712 92.137,-13.933c15.142,-24.587 25.679,-60.642 41.629,-83.738c11.146,-16.142 29.35,-17.362 41.287,-1.287l42.483,85.021Z" style="fill:#fd0;fill-rule:nonzero;"/></g></svg>