<?xml version="1.0" encoding="UTF-8" standalone="no"?>
<!DOCTYPE svg PUBLIC "-//W3C//DTD SVG 1.1//EN" "http://www.w3.org/Graphics/SVG/1.1/DTD/svg11.dtd">
<svg width="100%" height="100%" viewBox="0 0 616 610" version="1.1" xmlns="http://www.w3.org/2000/svg" xmlns:xlink="http://www.w3.org/1999/xlink" xml:space="preserve" xmlns:serif="http://www.serif.com/" style="fill-rule:evenodd;clip-rule:evenodd;stroke-miterlimit:10;">
    <g transform="matrix(1,0,0,1,-191,-3666)">
        <g id="juego">
            <g transform="matrix(1.128889,0,0,1.128889,632.483331,3867.568627)">
                <path d="M0,211.068L-58.755,211.068L-104.248,253.924L-142.718,211.068L-217.023,211.068C-242.67,211.068 -263.461,190.277 -263.461,164.63L-263.461,3.582C-263.461,-22.065 -242.67,-42.856 -217.023,-42.856L0,-42.856C25.647,-42.856 46.438,-22.065 46.438,3.582L46.438,164.63C46.438,190.277 25.647,211.068 0,211.068Z" style="fill:rgb(248,8,35);fill-rule:nonzero;stroke:white;stroke-width:21.45px;"/>
            </g>
            <g transform="matrix(1.128889,0,0,1.128889,554.519221,3898.36257)">
                <path d="M0,-12.135L0,14.672C0,15.151 -1.437,17.552 -1.899,17.961C-3.845,19.688 -7.185,19.588 -9.17,17.962C-9.674,17.55 -11.068,15.529 -11.068,15.018L-11.068,-12.135C-11.884,-12.351 -11.652,-11.927 -11.86,-11.692C-13.775,-9.527 -21.224,-1.475 -23.433,-0.806C-29.202,0.943 -33.008,-5.182 -29.236,-10.068C-24.086,-16.739 -15.189,-22.937 -9.688,-29.606C-7.411,-31.612 -4.493,-31.823 -2.067,-29.956C4.954,-24.554 11.484,-15.144 18.515,-9.377C22.373,-4.159 16.135,2.262 10.551,-1.76C6.993,-4.323 3.712,-9.476 0,-12.135" style="fill:white;fill-rule:nonzero;"/>
            </g>
            <g transform="matrix(1.128889,0,0,1.128889,451.617618,4030.256295)">
                <path d="M0,-48.532C12.28,-36.562 24.255,-24.26 36.323,-12.043C38.872,-9.463 44.035,-5.318 45.843,-2.548C48.821,2.011 43.942,7.87 38.842,5.491C21.335,-10.792 4.841,-28.325 -12.268,-45.092C-16.08,-49.87 -11.379,-56.402 -5.606,-53.829C-3.867,-53.053 -1.509,-50.003 0,-48.532" style="fill:white;fill-rule:nonzero;"/>
            </g>
            <g transform="matrix(1.128889,0,0,1.128889,578.888093,4026.911736)">
                <path d="M0,-31.234C5.036,-32.164 7.613,-26.727 11.037,-24.077C14.783,-26.742 19.719,-35.128 24.995,-29.756C30.003,-24.658 22.104,-19.68 19.143,-16.222C21.579,-12.489 29.236,-8.583 25.692,-3.124C21.137,3.894 14.392,-4.643 10.99,-8.135C7.513,-5.1 2.54,2.985 -2.674,-2.087C-7.792,-7.066 0.091,-12.628 3.201,-15.924C0.133,-19.573 -6.605,-23.157 -3.436,-28.793C-2.809,-29.909 -1.263,-31.001 0,-31.234" style="fill:white;fill-rule:nonzero;"/>
            </g>
            <g transform="matrix(1.128889,0,0,1.128889,452.442384,3877.413893)">
                <path d="M0,24.207C-1.302,23 -2.531,21.523 -4.132,20.629C-4.93,20.768 -9.459,26.543 -11.267,27.351C-16.029,29.48 -20.587,25.313 -18.959,20.351C-18.216,18.084 -12.144,13.927 -11.944,12.466L-12.009,12C-13.825,11.154 -14.985,9.269 -16.272,7.793C-16.717,7.282 -17.423,7 -17.722,6.649C-20.054,3.912 -19.814,-0.287 -16.579,-2.174C-11.265,-5.273 -7.278,1.831 -3.833,4.686C-3.318,4.686 1.934,-1.684 3.604,-2.398C8.372,-4.439 13.118,0.239 11.004,5.002C10.216,6.779 3.956,11.96 3.956,12.475C6.041,15.109 11.23,18.354 11.544,21.856C11.941,26.292 7.218,29.233 3.294,27.312C1.84,26.6 1.033,25.165 0,24.207" style="fill:white;fill-rule:nonzero;"/>
            </g>
            <g transform="matrix(1.128889,0,0,1.128889,513.808668,4062.717381)">
                <path d="M0,-7.873C-4.679,-7.057 -4.444,0.144 0.301,0.669C6.945,1.405 6.68,-9.037 0,-7.873M-1.378,-18.934C19.68,-21.634 22.502,9.745 2.641,11.72C-17.887,13.761 -20.427,-16.491 -1.378,-18.934" style="fill:white;fill-rule:nonzero;"/>
            </g>
            <g transform="matrix(1.128889,0,0,1.128889,424.385207,3954.577959)">
                <path d="M0,-10.66C-4.894,-9.672 -3.642,-1.338 1.906,-2.158C7.409,-2.971 6.48,-11.969 0,-10.66M-1.365,-21.711C18.845,-24.302 23.222,4.013 4.948,8.468C-16.273,13.642 -21.311,-19.153 -1.365,-21.711" style="fill:white;fill-rule:nonzero;"/>
            </g>
            <g transform="matrix(1.128889,0,0,1.128889,546.996419,3950.57492)">
                <path d="M0,-7.111C-5.024,-6.194 -3.789,1.795 1.262,1.44C7.081,1.03 6.643,-8.323 0,-7.111M-1.368,-18.166C20.645,-20.852 22.38,11.248 1.989,12.516C-17.71,13.741 -19.883,-15.907 -1.368,-18.166" style="fill:white;fill-rule:nonzero;"/>
            </g>
            <g transform="matrix(1.128888,-0.001535,-0.001535,-1.128888,458.360952,3941.032538)">
                <path d="M0.007,0.035L50.742,0.035C56.246,-1.214 57.402,-8.263 52.149,-10.685L-0.413,-10.913C-6.534,-9.637 -6.206,-0.909 0.007,0.035" style="fill:white;fill-rule:nonzero;"/>
            </g>
            <g transform="matrix(0.70562,0.881187,0.881187,-0.70562,309.025686,3681.228482)">
                <path d="M-18.924,-39.397L82.02,-39.398" style="fill:none;fill-rule:nonzero;stroke:white;stroke-width:6.59px;stroke-linecap:round;stroke-linejoin:round;"/>
            </g>
            <g transform="matrix(0.113264,1.123192,1.123192,-0.113264,406.404098,3709.286423)">
                <path d="M-39.253,-43.41L48.008,-43.41" style="fill:none;fill-rule:nonzero;stroke:white;stroke-width:6.59px;stroke-linecap:round;stroke-linejoin:round;"/>
            </g>
            <g transform="matrix(1.009711,0.504849,0.504849,-1.009711,225.073943,3733.460917)">
                <path d="M-4.822,-20.428L86.535,-20.428" style="fill:none;fill-rule:nonzero;stroke:white;stroke-width:6.59px;stroke-linecap:round;stroke-linejoin:round;"/>
            </g>
            <g transform="matrix(1.128131,0.04137,0.04137,-1.128131,195.103589,3834.840063)">
                <path d="M-0.027,-1.459L79.599,-1.459" style="fill:none;fill-rule:nonzero;stroke:white;stroke-width:6.59px;stroke-linecap:round;stroke-linejoin:round;"/>
            </g>
        </g>
    </g>
</svg>
