<?xml version="1.0" encoding="UTF-8" standalone="no"?>
<!DOCTYPE svg PUBLIC "-//W3C//DTD SVG 1.1//EN" "http://www.w3.org/Graphics/SVG/1.1/DTD/svg11.dtd">
<svg width="100%" height="100%" viewBox="0 0 831 759" version="1.1" xmlns="http://www.w3.org/2000/svg" xmlns:xlink="http://www.w3.org/1999/xlink" xml:space="preserve" xmlns:serif="http://www.serif.com/" style="fill-rule:evenodd;clip-rule:evenodd;stroke-linejoin:round;stroke-miterlimit:2;">
    <g transform="matrix(1,0,0,1,-983,-208)">
        <g id="logo_trivia" transform="matrix(1.125948,0,0,1.125948,-132.521539,-198.34469)">
            <g transform="matrix(1,0,0,1,1577.4082,887.8519)">
                <path d="M0,-81.795C17.746,-67.008 43.933,-41.158 61.974,-5.553C67.881,6.104 82.941,9.521 93.367,1.642C104.236,-6.571 104.544,-22.768 94.016,-31.412C77.58,-44.904 49.232,-64.582 4.115,-85.769C-3.253,-89.23 -11.425,-91.316 0,-81.795" style="fill:rgb(248,8,35);fill-rule:nonzero;"/>
            </g>
            <g transform="matrix(1,0,0,1,1536.8756,849.8345)">
                <path d="M0,-29.946C6.497,-24.532 16.084,-15.068 22.69,-2.033C24.852,2.235 30.366,3.486 34.183,0.601C38.162,-2.406 38.275,-8.336 34.42,-11.5C28.403,-16.44 18.024,-23.644 1.507,-31.401C-1.191,-32.668 -4.183,-33.432 0,-29.946" style="fill:rgb(248,8,35);fill-rule:nonzero;"/>
            </g>
            <g transform="matrix(1,0,0,1,1637.351,965.7186)">
                <path d="M0,-29.946C6.497,-24.532 16.084,-15.068 22.69,-2.033C24.852,2.235 30.366,3.486 34.183,0.601C38.162,-2.406 38.275,-8.336 34.42,-11.5C28.403,-16.44 18.024,-23.644 1.507,-31.401C-1.191,-32.668 -4.183,-33.432 0,-29.946" style="fill:rgb(248,8,35);fill-rule:nonzero;"/>
            </g>
            <g transform="matrix(1,0,0,1,1404.6508,924.1744)">
                <path d="M0,-77.317C1.475,-61.446 1.691,-36.056 -6.826,-9.863C-9.615,-1.288 -3.915,7.716 5.019,8.941C14.332,10.218 22.37,2.449 21.431,-6.903C19.966,-21.504 15.688,-44.928 3.947,-77.256C2.03,-82.536 -0.95,-87.535 0,-77.317" style="fill:rgb(248,8,35);fill-rule:nonzero;"/>
            </g>
            <g transform="matrix(1,0,0,1,1425.9904,418.2765)">
                <path d="M0,77.879C3.185,62.261 10.334,37.897 26.073,15.295C31.226,7.894 28.379,-2.374 20.183,-6.135C11.639,-10.055 1.695,-4.947 -0.115,4.276C-2.942,18.675 -5.633,42.334 -3.76,76.677C-3.455,82.286 -2.051,87.934 0,77.879" style="fill:rgb(248,8,35);fill-rule:nonzero;"/>
            </g>
            <g transform="matrix(1,0,0,1,1350.0664,395.3677)">
                <path d="M0,75.881C-2.833,60.196 -5.229,34.918 1.006,8.09C3.047,-0.693 -3.404,-9.174 -12.411,-9.627C-21.799,-10.099 -29.14,-1.669 -27.401,7.569C-24.687,21.989 -18.412,44.959 -3.938,76.16C-1.574,81.255 1.824,85.98 0,75.881" style="fill:rgb(248,8,35);fill-rule:nonzero;"/>
            </g>
            <g transform="matrix(1,0,0,1,1500.6456,1025.36)">
                <path d="M0,-77.317C1.475,-61.446 1.691,-36.056 -6.826,-9.863C-9.615,-1.287 -3.915,7.716 5.019,8.941C14.332,10.218 22.37,2.449 21.431,-6.903C19.966,-21.503 15.688,-44.928 3.947,-77.256C2.03,-82.536 -0.95,-87.535 0,-77.317" style="fill:rgb(248,8,35);fill-rule:nonzero;"/>
            </g>
            <g transform="matrix(1,0,0,1,1266.4126,906.8217)">
                <path d="M0,-64.927C-5.097,-52.099 -14.905,-32.42 -31.769,-15.551C-37.29,-10.028 -36.429,-0.841 -30.015,3.615C-23.33,8.259 -14.074,5.421 -11.124,-2.166C-6.519,-14.009 -0.618,-33.767 3.022,-63.329C3.617,-68.157 3.281,-73.186 0,-64.927" style="fill:rgb(248,8,35);fill-rule:nonzero;"/>
            </g>
            <g transform="matrix(1,0,0,1,1356.2173,817.5185)">
                <path d="M0,-36.686L5.96,-24.61L19.287,-22.673L9.644,-13.273L11.92,0L0,-6.266L-11.92,0L-9.644,-13.273L-19.287,-22.673L-5.96,-24.61L0,-36.686Z" style="fill:white;fill-rule:nonzero;"/>
            </g>
            <g transform="matrix(1,0,0,1,1624.7793,814.8149)">
                <path d="M0,-42.22C16.7,-37.615 46.951,-25.432 76.307,6.058C82.636,12.848 93.394,12.841 99.657,5.99C105.8,-0.728 105.032,-11.208 98.002,-16.991C80.025,-31.778 44.148,-55.068 2.319,-48.62C-2.737,-47.841 -8.163,-44.471 0,-42.22" style="fill:white;fill-rule:nonzero;"/>
            </g>
            <g transform="matrix(1,0,0,1,1234.3811,424.6173)">
                <path d="M0,81.378C-11.103,69.958 -29.428,46.225 -38.063,7.596C-39.925,-0.733 -48.46,-5.731 -56.614,-3.211C-64.611,-0.74 -68.876,7.928 -65.99,15.785C-58.611,35.874 -40.989,71.033 -4.816,85.375C-0.444,87.109 5.427,86.96 0,81.378" style="fill:white;fill-rule:nonzero;"/>
            </g>
            <g transform="matrix(1,0,0,1,1473.8965,942.6823)">
                <path d="M0,-105.456C12.767,-91.93 35.899,-61.522 45.176,-11.438C47.077,-1.177 57.282,5.315 67.36,2.602C77.243,-0.058 82.845,-10.46 79.672,-20.191C71.437,-45.441 51.008,-90.133 6.087,-108.819C1.394,-110.771 -3.852,-109.537 0,-105.456" style="fill:white;fill-rule:nonzero;"/>
            </g>
            <g transform="matrix(1,0,0,1,1220.7352,930.2612)">
                <path d="M0,-101.471C-13.609,-88.793 -38.645,-59.932 -51.118,-10.547C-53.673,-0.429 -64.274,5.394 -74.157,2.041L-74.157,2.04C-83.849,-1.249 -88.772,-11.988 -84.981,-21.496C-75.142,-46.166 -51.886,-89.454 -5.859,-105.218C-1.05,-106.865 4.106,-105.297 0,-101.471" style="fill:rgb(248,8,35);fill-rule:nonzero;"/>
            </g>
            <g transform="matrix(1,0,0,1,1112.2655,825.1033)">
                <path d="M0,-55.08C-17.818,-49.747 -53.053,-34.973 -86.123,3.767C-92.899,11.705 -104.983,12.226 -112.355,4.839C-119.585,-2.406 -119.238,-14.215 -111.625,-21.056C-91.871,-38.81 -51.838,-67.306 -3.591,-61.036C1.449,-60.38 5.376,-56.689 0,-55.08" style="fill:rgb(248,8,35);fill-rule:nonzero;"/>
            </g>
            <g transform="matrix(1,0,0,1,1494.3671,425.7166)">
                <path d="M0,79.025C11.195,69.303 31.946,47.007 43.258,8.009C45.576,0.018 54.184,-4.326 61.965,-1.378C69.595,1.512 73.218,10.206 69.932,17.675C61.406,37.056 41.673,70.896 4.563,82.173C0.686,83.351 -3.378,81.958 0,79.025" style="fill:white;fill-rule:nonzero;"/>
            </g>
            <g transform="matrix(1,0,0,1,1359.5815,363.7506)">
                <path d="M0,99.314C3.255,84.848 6.755,54.592 -7.246,16.476C-10.115,8.667 -5.756,0.066 2.257,-2.171C10.117,-4.365 18.187,0.49 19.967,8.453C24.586,29.116 28.748,68.068 5.542,99.145C3.117,102.392 -0.982,103.679 0,99.314" style="fill:white;fill-rule:nonzero;"/>
            </g>
            <g transform="matrix(1,0,0,1,1078.9225,457.588)">
                <path d="M0,71.022C-10.588,59.608 -34.702,38.6 -76.018,28.073C-84.483,25.916 -89.339,17.032 -86.514,8.765C-83.743,0.658 -74.745,-3.444 -66.793,-0.253C-46.16,8.026 -9.967,27.569 3.147,66.125C4.517,70.153 3.195,74.466 0,71.022" style="fill:rgb(248,8,35);fill-rule:nonzero;"/>
            </g>
            <g transform="matrix(1,0,0,1,1153.4429,851.0465)">
                <path d="M0,-44.676C-9.614,-40.014 -28.235,-28.398 -43.427,-3.391C-46.539,1.733 -53.343,3.139 -58.203,-0.372C-62.969,-3.815 -63.857,-10.543 -60.169,-15.123C-50.599,-27.005 -30.518,-46.844 -2.584,-47.723C0.335,-47.815 2.901,-46.083 0,-44.676" style="fill:rgb(248,8,35);fill-rule:nonzero;"/>
            </g>
            <g transform="matrix(1,0,0,1,1314.5258,993.9869)">
                <path d="M0,-138.002C1.62,-117.523 0.469,-75.339 -26.228,-25.819C-31.698,-15.672 -27.411,-3.02 -16.861,1.624C-6.514,6.179 5.509,1.107 9.516,-9.464C19.915,-36.894 33.282,-89.497 7.567,-136.681C4.88,-141.61 -0.489,-144.181 0,-138.002" style="fill:white;fill-rule:nonzero;"/>
            </g>
            <g transform="matrix(1,0,0,1,1115.7762,626.1671)">
                <path d="M0,-54.594L-33.508,-54.594L-27.46,-84.505L78.13,-84.505L72.082,-54.594L38.574,-54.594L21.738,29.911L-16.836,29.911L0,-54.594Z" style="fill:white;fill-rule:nonzero;"/>
            </g>
            <g transform="matrix(1,0,0,1,1249.3114,626.33)">
                <path d="M0,-54.92L-12.913,-54.92L-18.307,-28.114L-2.452,-28.114C8.172,-28.114 14.384,-33.671 14.384,-43.315C14.384,-51.488 8.826,-54.92 0,-54.92M22.556,-3.596L41.68,29.748L1.634,29.748L-14.548,0.98L-24.027,0.98L-29.749,29.748L-68.323,29.748L-45.44,-84.668L5.884,-84.668C36.123,-84.668 53.448,-70.775 53.448,-47.074C53.448,-26.643 42.007,-10.952 22.556,-3.596" style="fill:white;fill-rule:nonzero;"/>
            </g>
            <g transform="matrix(1,0,0,1,1325.6376,656.0776)">
                <path d="M0,-114.416L38.575,-114.416L15.691,0L-22.883,0L0,-114.416Z" style="fill:white;fill-rule:nonzero;"/>
            </g>
            <g transform="matrix(1,0,0,1,1505.1044,656.0776)">
                <path d="M0,-114.416L-71.265,0L-109.186,0L-134.685,-114.416L-95.129,-114.416L-80.908,-47.728L-39.555,-114.416L0,-114.416Z" style="fill:white;fill-rule:nonzero;"/>
            </g>
            <g transform="matrix(1,0,0,1,1508.8583,656.0776)">
                <path d="M0,-114.416L38.575,-114.416L15.691,0L-22.883,0L0,-114.416Z" style="fill:white;fill-rule:nonzero;"/>
            </g>
            <g transform="matrix(1,0,0,1,1621.1464,589.3899)">
                <path d="M0,18.96L-5.557,-10.298L-22.393,18.96L0,18.96ZM5.395,46.747L-38.247,46.747L-49.689,66.688L-90.389,66.688L-17.489,-47.728L20.432,-47.728L47.564,66.688L9.153,66.688L5.395,46.747Z" style="fill:white;fill-rule:nonzero;"/>
            </g>
            <g transform="matrix(1,0,0,1,1263.3418,719.1787)">
                <path d="M0,18.285C-5.042,18.285 -9.145,14.184 -9.145,9.142C-9.145,4.099 -5.042,-0.002 0,-0.002C5.042,-0.002 9.143,4.099 9.143,9.142C9.143,14.184 5.042,18.285 0,18.285M0,-11.598C-11.436,-11.598 -20.741,-2.295 -20.741,9.142C-20.741,20.578 -11.436,29.883 0,29.883C11.436,29.883 20.74,20.578 20.74,9.142C20.74,-2.295 11.436,-11.598 0,-11.598" style="fill:white;fill-rule:nonzero;"/>
            </g>
            <g transform="matrix(1,0,0,1,1310.5046,735.8332)">
                <path d="M0,-27.266L-5.661,-27.266L-5.661,-39.508L-18.06,-39.508L-18.06,-27.266L-23.721,-27.266L-23.721,-16.044L-18.06,-16.044L-18.06,12.242L-5.661,12.242L-5.661,-16.044L0,-16.044L0,-27.266Z" style="fill:white;fill-rule:nonzero;"/>
            </g>
            <g transform="matrix(1,0,0,1,0,-1143.668)">
                <rect x="1316.192" y="1852.235" width="12.396" height="39.508" style="fill:white;"/>
            </g>
            <g transform="matrix(-1,0,0,1,1322.3907,703.2319)">
                <path d="M0.002,-13.813C3.809,-13.813 6.908,-10.714 6.908,-6.907C6.908,-3.099 3.809,0 0.002,0C-3.807,0 -6.906,-3.099 -6.906,-6.907C-6.906,-10.714 -3.807,-13.813 0.002,-13.813" style="fill:white;fill-rule:nonzero;"/>
            </g>
            <g transform="matrix(1,0,0,1,1500.1857,736.4438)">
                <path d="M0,-17.234C4.073,-17.234 7.387,-13.92 7.387,-9.847L7.387,11.631L19.784,11.631L19.784,-11.546C19.784,-22.067 13.713,-28.865 4.133,-28.865C0.194,-28.865 -3.963,-27.14 -7.386,-21.616L-7.386,-27.878L-19.784,-27.878L-19.784,11.631L-7.386,11.631L-7.386,-9.847C-7.386,-13.92 -4.072,-17.234 0,-17.234" style="fill:white;fill-rule:nonzero;"/>
            </g>
            <g transform="matrix(1,0,0,1,1565.1543,690.4053)">
                <path d="M0,57.67L-15.233,37.931L-1.069,18.16L-15.559,18.16L-26.942,34.144L-26.942,0L-39.339,0L-39.339,57.67L-26.942,57.67L-26.942,41.386L-14.444,57.67L0,57.67Z" style="fill:white;fill-rule:nonzero;"/>
            </g>
            <g transform="matrix(1,0,0,1,1199.9194,701.0381)">
                <path d="M0,36.404C0.891,34.254 1.273,32.076 1.273,29.124C1.273,25.138 0.023,21.573 -2.248,19.089C-4.895,16.19 -9.419,13.782 -15.696,11.932C-17.072,11.528 -18.224,11.095 -19.22,10.608C-20.328,10.069 -21.144,9.413 -21.846,8.654C-22.649,7.785 -22.975,6.754 -22.975,5.452C-22.975,3.617 -21.992,2.374 -20.395,1.368C-18.39,0.106 -14.535,-0.019 -10.594,1.442C-9.222,1.951 -7.994,2.513 -6.595,3.334L-1.325,-7.15C-3.282,-8.32 -6.068,-9.843 -8.881,-10.557C-11.733,-11.282 -14.409,-11.62 -17.301,-11.62C-20.2,-11.62 -22.847,-11.182 -25.169,-10.319C-27.233,-9.556 -29.37,-8.162 -31.189,-6.399C-32.839,-4.799 -34.334,-2.519 -35.194,-0.404C-36.074,1.758 -36.521,4.215 -36.521,6.9C-36.521,9.703 -35.194,14.238 -31.85,17.372C-28.24,20.758 -24.145,21.959 -22.497,22.596C-20.865,23.227 -19.036,23.769 -17.878,24.231C-16.654,24.721 -15.273,25.368 -14.484,25.959C-13.635,26.595 -13.061,27.17 -12.676,27.97C-12.301,28.756 -12.205,29.467 -12.29,30.489C-12.398,31.791 -12.991,32.897 -14.054,33.897C-15.116,34.896 -17.034,35.468 -19.753,35.468C-22.034,35.468 -24.353,34.828 -26.666,33.804C-28.702,32.904 -30.108,32.111 -32.282,30.828L-38.478,41.623C-34.154,45.462 -27.144,48.024 -20.901,48.024C-17.711,48.024 -14.395,47.493 -11.56,46.532C-8.887,45.625 -6.24,44.146 -4.482,42.575C-2.596,40.889 -0.879,38.524 0,36.404" style="fill:white;fill-rule:nonzero;"/>
            </g>
            <g transform="matrix(1,0,0,1,1573.8859,735.6551)">
                <path d="M0,11.029C-3.046,11.029 -5.515,8.56 -5.515,5.515C-5.515,2.469 -3.046,0 0,0C3.046,0 5.515,2.469 5.515,5.515C5.515,8.56 3.046,11.029 0,11.029M0,-1.391C-3.814,-1.391 -6.906,1.701 -6.906,5.515C-6.906,9.328 -3.814,12.42 0,12.42C3.814,12.42 6.906,9.328 6.906,5.515C6.906,1.701 3.814,-1.391 0,-1.391" style="fill:white;fill-rule:nonzero;"/>
            </g>
            <g transform="matrix(1,0,0,1,1572.7667,741.2807)">
                <path d="M0,-0.222L1.584,-0.222C2.164,-0.222 2.644,-0.735 2.644,-1.382C2.644,-2.029 2.164,-2.531 1.584,-2.531L0,-2.531L0,-0.222ZM1.105,1.042L0,1.042L0,3.659L-1.361,3.659L-1.361,-3.881L1.529,-3.881C2.919,-3.881 4.039,-2.761 4.039,-1.382C4.039,-0.434 3.447,0.417 2.585,0.815L4.172,3.659L2.542,3.659L1.105,1.042Z" style="fill:white;fill-rule:nonzero;"/>
            </g>
            <g transform="matrix(1,0,0,1,1233.869,722.5938)">
                <path d="M0,11.455C-1.677,13.536 -4.245,14.87 -7.119,14.87C-12.162,14.87 -16.264,10.769 -16.264,5.727C-16.264,0.684 -12.162,-3.417 -7.119,-3.417C-4.245,-3.417 -1.677,-2.082 0,-0.002L8.217,-8.221C4.421,-12.391 -1.049,-15.013 -7.119,-15.013C-18.556,-15.013 -28.514,-6.875 -28.514,5.727C-28.514,18.328 -18.556,26.468 -7.119,26.468C-1.048,26.468 4.421,23.846 8.218,19.674L0,11.455Z" style="fill:white;fill-rule:nonzero;"/>
            </g>
            <g transform="matrix(1,0,0,1,1355.3954,718.9886)">
                <path d="M0,18.663C-5.146,18.663 -9.331,14.478 -9.331,9.332C-9.331,4.186 -5.146,-0.001 0,-0.001C5.146,-0.001 9.333,4.186 9.333,9.332C9.333,14.478 5.146,18.663 0,18.663M21.689,29.087L21.689,-10.423L9.603,-10.423L9.603,-6.269L8.483,-7.27C5.453,-9.978 2.065,-11.41 -1.927,-11.41C-12.591,-11.41 -21.602,-1.912 -21.602,9.332C-21.602,20.576 -12.591,30.073 -1.927,30.073C2.065,30.073 5.453,28.642 8.483,25.933L9.603,24.932L9.603,29.087L21.689,29.087Z" style="fill:white;fill-rule:nonzero;"/>
            </g>
            <g transform="matrix(1,0,0,1,1452.7787,718.9886)">
                <path d="M0,18.663C-5.146,18.663 -9.331,14.478 -9.331,9.332C-9.331,4.186 -5.146,-0.001 0,-0.001C5.146,-0.001 9.333,4.186 9.333,9.332C9.333,14.478 5.146,18.663 0,18.663M21.688,29.087L21.688,-10.423L9.603,-10.423L9.603,-6.269L8.483,-7.27C5.453,-9.978 2.065,-11.41 -1.927,-11.41C-12.591,-11.41 -21.602,-1.912 -21.602,9.332C-21.602,20.576 -12.591,30.073 -1.927,30.073C2.065,30.073 5.453,28.642 8.483,25.933L9.603,24.932L9.603,29.087L21.688,29.087Z" style="fill:white;fill-rule:nonzero;"/>
            </g>
            <g transform="matrix(1,0,0,1,1395.8522,711.1464)">
                <path d="M0,17.174C0,12.028 4.187,7.841 9.333,7.841C14.479,7.841 18.664,12.028 18.664,17.174C18.664,22.32 14.479,26.505 9.333,26.505C4.187,26.505 0,22.32 0,17.174M-0.27,36.929L-0.27,32.775L0.85,33.775C3.88,36.484 7.268,37.915 11.259,37.915C21.924,37.915 30.935,28.418 30.935,17.174C30.935,5.93 21.924,-3.567 11.259,-3.567C7.268,-3.567 3.88,-2.136 0.85,0.573L-0.27,1.573L-0.27,-20.741L-12.356,-20.741L-12.356,36.929L-0.27,36.929Z" style="fill:white;fill-rule:nonzero;"/>
            </g>
        </g>
    </g>
</svg>
