<?xml version="1.0" encoding="UTF-8" standalone="no"?>
<!DOCTYPE svg PUBLIC "-//W3C//DTD SVG 1.1//EN" "http://www.w3.org/Graphics/SVG/1.1/DTD/svg11.dtd">
<svg width="100%" height="100%" viewBox="0 0 488 71" version="1.1" xmlns="http://www.w3.org/2000/svg" xmlns:xlink="http://www.w3.org/1999/xlink" xml:space="preserve" xmlns:serif="http://www.serif.com/" style="fill-rule:evenodd;clip-rule:evenodd;stroke-linejoin:round;stroke-miterlimit:2;">
    <g transform="matrix(1,0,0,1,-1304,-1189)">
        <g transform="matrix(1,0,0,1,-1970,1130)">
            <g id="logo_scotiabank">
                <g transform="matrix(1.128889,0,0,1.128889,3392.477355,94.351986)">
                    <path d="M0,18.831C-5.193,18.831 -9.418,14.607 -9.418,9.414C-9.418,4.221 -5.193,-0.002 0,-0.002C5.193,-0.002 9.417,4.221 9.417,9.414C9.417,14.607 5.193,18.831 0,18.831M0,-11.945C-11.778,-11.945 -21.362,-2.364 -21.362,9.414C-21.362,21.193 -11.778,30.776 0,30.776C11.778,30.776 21.36,21.193 21.36,9.414C21.36,-2.364 11.778,-11.945 0,-11.945" style="fill:white;fill-rule:nonzero;"/>
                </g>
                <g transform="matrix(1.128889,0,0,1.128889,3447.311111,113.714127)">
                    <path d="M0,-28.081L-5.831,-28.081L-5.831,-40.689L-18.6,-40.689L-18.6,-28.081L-24.43,-28.081L-24.43,-16.524L-18.6,-16.524L-18.6,12.608L-5.831,12.608L-5.831,-16.524L0,-16.524L0,-28.081Z" style="fill:white;fill-rule:nonzero;"/>
                </g>
                <g transform="matrix(1.128889,0,0,1.128889,-248.329149,-2527.070155)">
                    <rect x="3279.553" y="2311.196" width="12.767" height="40.689" style="fill:white;"/>
                </g>
                <g transform="matrix(-1.128889,0,0,1.128889,3461.130181,75.809757)">
                    <path d="M0.002,-14.225C3.923,-14.225 7.115,-11.034 7.115,-7.112C7.115,-3.191 3.923,0 0.002,0C-3.921,0 -7.113,-3.191 -7.113,-7.112C-7.113,-11.034 -3.921,-14.225 0.002,-14.225" style="fill:white;fill-rule:nonzero;"/>
                </g>
                <g transform="matrix(1.128889,0,0,1.128889,3667.842529,114.424988)">
                    <path d="M0,-17.75C4.195,-17.75 7.608,-14.337 7.608,-10.142L7.608,11.979L20.375,11.979L20.375,-11.892C20.375,-22.728 14.123,-29.729 4.256,-29.729C0.2,-29.729 -4.081,-27.952 -7.606,-22.262L-7.606,-28.712L-20.375,-28.712L-20.375,11.979L-7.606,11.979L-7.606,-10.142C-7.606,-14.337 -4.193,-17.75 0,-17.75" style="fill:white;fill-rule:nonzero;"/>
                </g>
                <g transform="matrix(1.128889,0,0,1.128889,3743.37774,60.898373)">
                    <path d="M0,59.394L-15.688,39.065L-1.101,18.703L-16.024,18.703L-27.747,35.165L-27.747,0L-40.516,0L-40.516,59.394L-27.747,59.394L-27.747,42.623L-14.876,59.394L0,59.394Z" style="fill:white;fill-rule:nonzero;"/>
                </g>
                <g transform="matrix(1.128889,0,0,1.128889,3318.7399,73.259596)">
                    <path d="M0,37.493C0.917,35.279 1.311,33.036 1.311,29.996C1.311,25.89 0.023,22.219 -2.315,19.66C-5.042,16.674 -9.701,14.195 -16.165,12.289C-17.582,11.873 -18.769,11.427 -19.794,10.926C-20.936,10.371 -21.776,9.695 -22.499,8.913C-23.327,8.019 -23.662,6.957 -23.662,5.615C-23.662,3.726 -22.649,2.445 -21.005,1.41C-18.94,0.109 -14.97,-0.019 -10.911,1.486C-9.498,2.01 -8.233,2.589 -6.792,3.435L-1.365,-7.363C-3.381,-8.568 -6.25,-10.137 -9.147,-10.872C-12.084,-11.619 -14.839,-11.967 -17.818,-11.967C-20.804,-11.967 -23.531,-11.516 -25.921,-10.627C-28.047,-9.841 -30.249,-8.406 -32.122,-6.59C-33.821,-4.942 -35.361,-2.593 -36.246,-0.415C-37.153,1.812 -37.613,4.341 -37.613,7.107C-37.613,9.994 -36.246,14.665 -32.802,17.892C-29.084,21.379 -24.867,22.616 -23.169,23.273C-21.489,23.922 -19.606,24.48 -18.412,24.956C-17.152,25.461 -15.73,26.127 -14.917,26.736C-14.042,27.39 -13.451,27.983 -13.055,28.807C-12.669,29.617 -12.57,30.348 -12.657,31.401C-12.769,32.742 -13.38,33.882 -14.474,34.911C-15.568,35.94 -17.543,36.529 -20.343,36.529C-22.693,36.529 -25.081,35.87 -27.463,34.816C-29.56,33.889 -31.009,33.071 -33.248,31.75L-39.629,42.868C-35.175,46.822 -27.955,49.46 -21.526,49.46C-18.24,49.46 -14.825,48.914 -11.906,47.924C-9.153,46.99 -6.426,45.466 -4.616,43.849C-2.674,42.112 -0.905,39.676 0,37.493" style="fill:white;fill-rule:nonzero;"/>
                </g>
                <g transform="matrix(1.128889,0,0,1.128889,3753.529501,113.508217)">
                    <path d="M0,11.358C-3.136,11.358 -5.679,8.816 -5.679,5.679C-5.679,2.542 -3.136,-0.001 0,-0.001C3.137,-0.001 5.679,2.542 5.679,5.679C5.679,8.816 3.137,11.358 0,11.358M0,-1.433C-3.928,-1.433 -7.112,1.751 -7.112,5.679C-7.112,9.607 -3.928,12.791 0,12.791C3.928,12.791 7.112,9.607 7.112,5.679C7.112,1.751 3.928,-1.433 0,-1.433" style="fill:white;fill-rule:nonzero;"/>
                </g>
                <g transform="matrix(1.128889,0,0,1.128889,3752.228344,120.048211)">
                    <path d="M0,-0.229L1.631,-0.229C2.229,-0.229 2.723,-0.757 2.723,-1.424C2.723,-2.09 2.229,-2.607 1.631,-2.607L0,-2.607L0,-0.229ZM1.138,1.073L0,1.073L0,3.768L-1.402,3.768L-1.402,-3.997L1.575,-3.997C3.006,-3.997 4.16,-2.843 4.16,-1.423C4.16,-0.447 3.55,0.429 2.662,0.84L4.297,3.768L2.618,3.768L1.138,1.073Z" style="fill:white;fill-rule:nonzero;"/>
                </g>
                <g transform="matrix(1.128889,0,0,1.128889,3358.211056,98.321273)">
                    <path d="M0,11.798C-1.727,13.941 -4.371,15.315 -7.332,15.315C-12.525,15.315 -16.751,11.091 -16.751,5.898C-16.751,0.705 -12.525,-3.519 -7.332,-3.519C-4.371,-3.519 -1.727,-2.144 0,-0.002L8.463,-8.466C4.553,-12.761 -1.08,-15.462 -7.332,-15.462C-19.111,-15.462 -29.366,-7.08 -29.366,5.898C-29.366,18.876 -19.111,27.26 -7.332,27.26C-1.08,27.26 4.553,24.559 8.463,20.263L0,11.798Z" style="fill:white;fill-rule:nonzero;"/>
                </g>
                <g transform="matrix(1.128889,0,0,1.128889,3499.502927,94.130272)">
                    <path d="M0,19.221C-5.3,19.221 -9.61,14.91 -9.61,9.611C-9.61,4.311 -5.3,-0.001 0,-0.001C5.3,-0.001 9.612,4.311 9.612,9.611C9.612,14.91 5.3,19.221 0,19.221M22.337,29.956L22.337,-10.735L9.89,-10.735L9.89,-6.456L8.737,-7.487C5.616,-10.277 2.126,-11.751 -1.984,-11.751C-12.968,-11.751 -22.248,-1.969 -22.248,9.611C-22.248,21.191 -12.968,30.972 -1.984,30.972C2.126,30.972 5.616,29.498 8.737,26.709L9.89,25.678L9.89,29.956L22.337,29.956Z" style="fill:white;fill-rule:nonzero;"/>
                </g>
                <g transform="matrix(1.128889,0,0,1.128889,3612.724858,94.130272)">
                    <path d="M0,19.221C-5.3,19.221 -9.61,14.91 -9.61,9.611C-9.61,4.311 -5.3,-0.001 0,-0.001C5.3,-0.001 9.612,4.311 9.612,9.611C9.612,14.91 5.3,19.221 0,19.221M22.337,29.956L22.337,-10.735L9.89,-10.735L9.89,-6.456L8.737,-7.487C5.616,-10.277 2.126,-11.751 -1.984,-11.751C-12.967,-11.751 -22.248,-1.969 -22.248,9.611C-22.248,21.191 -12.967,30.972 -1.984,30.972C2.126,30.972 5.616,29.498 8.737,26.709L9.89,25.678L9.89,29.956L22.337,29.956Z" style="fill:white;fill-rule:nonzero;"/>
                </g>
                <g transform="matrix(1.128889,0,0,1.128889,3546.539784,85.012912)">
                    <path d="M0,17.687C0,12.387 4.312,8.075 9.612,8.075C14.912,8.075 19.222,12.387 19.222,17.687C19.222,22.987 14.912,27.297 9.612,27.297C4.312,27.297 0,22.987 0,17.687M-0.278,38.033L-0.278,33.754L0.875,34.785C3.996,37.574 7.486,39.049 11.596,39.049C22.58,39.049 31.86,29.267 31.86,17.687C31.86,6.107 22.58,-3.675 11.596,-3.675C7.486,-3.675 3.996,-2.2 0.875,0.589L-0.278,1.62L-0.278,-21.362L-12.725,-21.362L-12.725,38.033L-0.278,38.033Z" style="fill:white;fill-rule:nonzero;"/>
                </g>
            </g>
        </g>
    </g>
</svg>
