<?xml version="1.0" encoding="UTF-8" standalone="no"?>
<!DOCTYPE svg PUBLIC "-//W3C//DTD SVG 1.1//EN" "http://www.w3.org/Graphics/SVG/1.1/DTD/svg11.dtd">
<svg width="100%" height="100%" viewBox="0 0 404 386" version="1.1" xmlns="http://www.w3.org/2000/svg" xmlns:xlink="http://www.w3.org/1999/xlink" xml:space="preserve" xmlns:serif="http://www.serif.com/" style="fill-rule:evenodd;clip-rule:evenodd;stroke-linecap:round;stroke-linejoin:round;stroke-miterlimit:10;">
    <g transform="matrix(1,0,0,1,-206,-4755)">
        <g id="copa">
            <g transform="matrix(1.128889,0,0,1.128889,493.433015,4877.40925)">
                <path d="M0,232.717L-166.14,232.717C-185.843,232.717 -201.815,216.744 -201.815,197.041L-201.815,35.675C-201.815,15.972 -185.843,0 -166.14,0L0,0C19.703,0 35.676,15.972 35.676,35.675L35.676,197.041C35.676,216.744 19.703,232.717 0,232.717" style="fill:white;fill-rule:nonzero;"/>
            </g>
            <g transform="matrix(1.128889,0,0,1.128889,458.044269,4914.407)">
                <path d="M0,171.671C0.824,164.444 -3.874,158.983 -11.207,159.14C-34.263,160.262 -58.633,157.711 -81.535,159.14C-89.337,159.627 -93.223,163.718 -92.742,171.671L0,171.671ZM-21.345,138.549L-71.396,138.549L-71.396,151.062L-21.345,151.062L-21.345,138.549ZM-56.308,130.452L-36.802,130.452C-36.864,129.077 -38.134,128.069 -38.833,126.779C-41.139,122.524 -42.508,117.992 -43.076,113.174L-49.645,113.195C-50.494,119.475 -52.508,125.364 -56.308,130.452M25.946,12.685L8.096,12.685C7.363,23.674 6.727,34.669 5.091,45.562C3.75,54.491 1.741,63.272 -0.732,71.937C12.313,61.916 21.964,47.442 26.393,31.534C27.282,28.339 29.859,17.632 28.796,14.988C28.455,14.14 26.827,12.842 25.946,12.685M-100.838,12.685L-118.688,12.685C-119.428,12.685 -121.238,14.243 -121.538,14.988C-122.616,17.669 -120.035,28.319 -119.135,31.534C-114.682,47.445 -105.075,61.905 -92.01,71.937C-94.483,63.272 -96.491,54.491 -97.833,45.562C-99.469,34.669 -100.125,23.675 -100.838,12.685M-89.904,0.25C-94.105,1.934 -92.423,5.888 -92.359,9.174C-91.745,40.312 -87.076,108.706 -42.145,104.685C-5.49,101.405 -0.922,36.465 -0.383,9.174C-0.322,6.08 1.266,2.454 -2.302,0.451L-89.904,0.25ZM-2.208,-8.292C2.103,-7.405 6.336,-4.217 7.626,0.091C8.084,1.623 7.921,3.008 8.441,4.428C9.371,5.082 24.612,4.27 27.419,4.587C33.566,5.284 37.766,11.784 37.534,17.649C36.625,40.691 21.327,66.158 3.061,79.598C0.684,81.347 -4.631,84.058 -6.254,85.74C-7.521,87.054 -8.654,90.067 -9.784,91.779C-15.949,101.123 -23.818,108.77 -34.963,111.692C-34.084,119.107 -30.961,127.274 -23.097,129.444C-18.124,130.816 -13.443,128.673 -12.868,135.408C-12.441,140.407 -13.212,145.998 -12.881,151.062L-7.177,151.062C-5.356,151.062 -0.483,153.412 1.072,154.59C8.08,159.9 9.076,168.338 8.105,176.648C7.893,178.462 6.736,179.297 5.163,179.963L-97.905,179.963C-99.215,179.418 -100.573,178.533 -100.817,176.986C-101.394,173.339 -101.014,165.139 -99.545,161.74C-97.581,157.195 -90.684,151.062 -85.565,151.062L-79.861,151.062C-79.53,145.998 -80.301,140.407 -79.874,135.408C-79.307,128.766 -74.865,130.783 -69.928,129.529C-61.905,127.491 -58.788,119.372 -57.825,111.892L-58.138,111.499C-69.1,108.648 -76.93,100.994 -82.958,91.779C-84.103,90.028 -85.186,87.069 -86.47,85.722C-87.795,84.33 -91.379,82.737 -93.226,81.438C-112.963,67.553 -129.303,42.344 -130.276,17.649C-130.507,11.784 -126.308,5.284 -120.161,4.587C-117.354,4.27 -102.113,5.082 -101.183,4.428C-100.663,3.008 -100.826,1.623 -100.368,0.091C-99.179,-3.88 -94.674,-7.766 -90.534,-8.292L-2.208,-8.292Z" style="fill:rgb(248,8,35);fill-rule:nonzero;"/>
            </g>
            <g transform="matrix(1.128889,0,0,1.128889,406.105675,4974.517056)">
                <path d="M0,-29.52C-0.859,-29.707 -0.588,-29.404 -0.819,-29.047C-2.303,-26.753 -3.935,-21.256 -5.906,-19.792C-8.158,-18.119 -14.365,-18.26 -17.292,-17.741C-15.771,-15.234 -9.767,-11.295 -9.27,-8.636C-8.885,-6.582 -11.297,1.633 -10.663,2.497C-8.071,1.377 -3.197,-2.226 -0.55,-2.32C2.512,-2.429 7.252,1.544 10.31,2.493C9.884,-0.549 8.658,-4.326 8.502,-7.316C8.298,-11.238 14.555,-14.603 16.567,-17.741C13.662,-18.328 7.41,-18.142 5.181,-19.792C3.181,-21.273 1.278,-27.159 0,-29.52M10.406,-27.041C15.365,-25.54 21.684,-25.9 26.529,-24.579C28.911,-23.93 30.239,-21.954 29.732,-19.486C29.048,-16.159 19.552,-9.6 17.376,-6.443C17.185,-5.872 17.295,-5.307 17.342,-4.729C17.699,-0.356 19.654,5.013 19.882,9.32C20.062,12.716 18.076,14.708 14.627,14.193L-0.525,6.541L-15.072,14.099C-18.31,14.882 -20.687,13.019 -20.631,9.675C-20.561,5.445 -18.425,-0.347 -18.067,-4.729C-18.02,-5.307 -17.909,-5.872 -18.101,-6.443C-21.906,-10.888 -27.268,-14.222 -30.365,-19.205C-31.126,-21.974 -29.632,-23.97 -26.954,-24.647C-24.386,-25.295 -12.224,-26.143 -11.13,-27.04C-8.53,-31.263 -6.72,-37.454 -3.981,-41.421C-2.067,-44.193 1.06,-44.402 3.11,-41.642L10.406,-27.041Z" style="fill:rgb(248,8,35);fill-rule:nonzero;"/>
            </g>
            <g transform="matrix(0,1.128889,1.128889,0,422.455824,4812.987628)">
                <path d="M-24.783,-24.783L24.783,-24.783" style="fill:none;fill-rule:nonzero;stroke:white;stroke-width:5.72px;"/>
            </g>
            <g transform="matrix(-0.533487,0.994878,0.994878,0.533487,498.827351,4839.790005)">
                <path d="M-62.014,-37.114L22.211,-37.114" style="fill:none;fill-rule:nonzero;stroke:white;stroke-width:5.72px;"/>
            </g>
            <g transform="matrix(0.482643,1.020512,1.020512,-0.482643,353.998749,4767.852976)">
                <path d="M-20.549,-32.449L51.242,-32.449" style="fill:none;fill-rule:nonzero;stroke:white;stroke-width:5.72px;"/>
            </g>
            <g transform="matrix(-0.68843,0.894681,0.894681,0.68843,541.829237,4842.764701)">
                <path d="M-24.138,-11.883L5.85,-11.883" style="fill:none;fill-rule:nonzero;stroke:white;stroke-width:5.72px;"/>
            </g>
            <g transform="matrix(0.615887,0.946083,0.946083,-0.615887,280.817559,4811.764985)">
                <path d="M-6.444,-11.883L21.916,-11.883" style="fill:none;fill-rule:nonzero;stroke:white;stroke-width:5.72px;"/>
            </g>
            <g transform="matrix(-0.94302,0.620568,0.620568,0.94302,561.527243,4887.119653)">
                <path d="M-59.68,-17.875L5.354,-17.875" style="fill:none;fill-rule:nonzero;stroke:white;stroke-width:5.72px;"/>
            </g>
            <g transform="matrix(0.801785,0.794689,0.794689,-0.801785,230.886551,4821.164054)">
                <path d="M-7.79,-18.925L45.979,-18.925" style="fill:none;fill-rule:nonzero;stroke:white;stroke-width:5.72px;"/>
            </g>
        </g>
    </g>
</svg>
