<?xml version="1.0" encoding="UTF-8" standalone="no"?>
<!DOCTYPE svg PUBLIC "-//W3C//DTD SVG 1.1//EN" "http://www.w3.org/Graphics/SVG/1.1/DTD/svg11.dtd">
<svg width="100%" height="100%" viewBox="0 0 82 269" version="1.1" xmlns="http://www.w3.org/2000/svg" xmlns:xlink="http://www.w3.org/1999/xlink" xml:space="preserve" xmlns:serif="http://www.serif.com/" style="fill-rule:evenodd;clip-rule:evenodd;stroke-linejoin:round;stroke-miterlimit:2;">
    <g transform="matrix(1,0,0,1,-2303,-1132)">
        <g transform="matrix(1,0,0,1,1536.75,864.001)">
            <g id="hombre3">
                <g transform="matrix(0,-1,-1,0,802.193,291.18)">
                    <path d="M-29.412,-40.091C-51.743,-40.091 -69.848,-24.533 -69.848,-5.338C-69.848,13.852 -51.743,29.412 -29.412,29.412C-7.081,29.412 0.344,11.27 0.344,-7.923C0.344,-27.117 -7.081,-40.091 -29.412,-40.091" style="fill:rgb(0,72,110);fill-rule:nonzero;"/>
                </g>
                <g transform="matrix(1,0,0,1,775.71,378.951)">
                    <path d="M0,26.712C-0.621,28.534 -0.466,30.546 1.635,31.277L2.585,31.607C4.686,32.339 6.443,30.683 7.065,28.862L17.576,0.054C18.197,-1.766 16.997,-3.834 14.897,-4.566L13.946,-4.898C11.848,-5.627 9.64,-4.741 9.021,-2.921L0,26.712Z" style="fill:rgb(254,220,171);fill-rule:nonzero;"/>
                </g>
                <g transform="matrix(1,0,0,1,773.368,411.906)">
                    <path d="M0,22.523C-0.284,24.424 0.145,28.71 1.688,28.733C3.902,28.766 5.828,27.374 5.271,25.695C4.636,23.768 5.285,20.039 5.639,18.222C6.669,12.896 9.029,-2.961 9.029,-2.961C9.214,-4.714 7.571,-6.165 5.356,-6.201L4.69,-6.21C2.477,-6.243 1.147,-4.308 0.963,-2.552L0,22.523Z" style="fill:rgb(254,220,171);fill-rule:nonzero;"/>
                </g>
                <g transform="matrix(1,0,0,1,777.66,446.885)">
                    <path d="M0,-7.556C0.275,-8.148 0.639,-8.597 0.938,-8.899C1.909,-7.572 2.726,-6.129 2.99,-4.529C3.261,-2.889 3.351,-2.033 3.836,-0.453C4.038,0.205 3.936,0.941 3.455,1.153L3.455,1.151C2.863,1.343 2.567,0.036 1.643,-0.628L0.668,-2.229C-0.503,-4.147 -0.734,-5.989 0,-7.556" style="fill:rgb(254,220,171);fill-rule:nonzero;"/>
                </g>
                <g transform="matrix(1,0,0,1,771.988,446.243)">
                    <path d="M0,0.065C-0.038,-0.301 -0.028,-0.657 0.047,-0.958C0.682,-3.491 1.162,-6.042 1.407,-8.622L4.151,-8.774L4.947,-8.819C5.081,-8.754 5.121,-8.633 5.142,-8.499C5.189,-8.438 5.236,-8.376 5.28,-8.315C6.238,-6.998 5.984,0.246 5.984,0.246C5.972,0.289 5.959,0.333 5.946,0.378C5.922,0.787 5.88,1.237 5.814,1.738C5.594,3.385 7.27,7.498 6.714,8.323C6.714,8.323 6.432,8.884 5.6,8.55C4.44,8.079 1.21,4.18 0.465,2.558C0.105,1.78 -0.007,0.072 -0.007,0.072C-0.007,0.072 -0.004,0.07 0,0.065" style="fill:rgb(254,220,171);fill-rule:nonzero;"/>
                </g>
                <g transform="matrix(1,0,0,1,839.268,378.407)">
                    <path d="M0,26.714C0.619,28.535 0.466,30.548 -1.635,31.279L-2.585,31.608C-4.687,32.339 -6.443,30.685 -7.065,28.865L-17.576,0.058C-18.197,-1.764 -16.997,-3.833 -14.897,-4.564L-13.946,-4.895C-11.847,-5.625 -9.643,-4.739 -9.02,-2.919L0,26.714Z" style="fill:rgb(254,220,171);fill-rule:nonzero;"/>
                </g>
                <g transform="matrix(1,0,0,1,841.61,411.365)">
                    <path d="M0,22.523C0.282,24.424 -0.145,28.709 -1.691,28.732C-3.901,28.766 -5.827,27.372 -5.273,25.695C-4.635,23.769 -5.288,20.041 -5.638,18.222C-6.67,12.896 -9.029,-2.961 -9.029,-2.961C-9.212,-4.715 -7.57,-6.165 -5.356,-6.201L-4.69,-6.21C-2.479,-6.243 -1.147,-4.308 -0.964,-2.552L0,22.523Z" style="fill:rgb(254,220,171);fill-rule:nonzero;"/>
                </g>
                <g transform="matrix(1,0,0,1,837.32,446.345)">
                    <path d="M0,-7.559C-0.28,-8.15 -0.644,-8.599 -0.939,-8.901C-1.911,-7.575 -2.73,-6.132 -2.991,-4.53C-3.263,-2.892 -3.353,-2.036 -3.838,-0.455C-4.042,0.202 -3.937,0.939 -3.46,1.151L-3.46,1.149C-2.866,1.342 -2.569,0.031 -1.646,-0.631L-0.671,-2.231C0.499,-4.15 0.729,-5.991 0,-7.559" style="fill:rgb(254,220,171);fill-rule:nonzero;"/>
                </g>
                <g transform="matrix(1,0,0,1,842.99,445.701)">
                    <path d="M0,0.065C0.038,-0.3 0.028,-0.656 -0.047,-0.957C-0.681,-3.488 -1.16,-6.042 -1.406,-8.621L-4.152,-8.775L-4.946,-8.82C-5.081,-8.753 -5.121,-8.632 -5.141,-8.498C-5.189,-8.439 -5.236,-8.375 -5.281,-8.314C-6.238,-6.998 -5.986,0.247 -5.986,0.247C-5.974,0.29 -5.96,0.334 -5.942,0.379C-5.922,0.788 -5.882,1.238 -5.814,1.739C-5.595,3.385 -7.27,7.499 -6.713,8.324C-6.713,8.324 -6.432,8.885 -5.6,8.551C-4.437,8.08 -1.21,4.181 -0.464,2.559C-0.106,1.781 0.007,0.073 0.007,0.073C0.007,0.073 0.004,0.071 0,0.065" style="fill:rgb(254,220,171);fill-rule:nonzero;"/>
                </g>
                <g transform="matrix(1,0,0,1,809.303,485.315)">
                    <path d="M0,-52.397C0.52,-57.418 -3.459,-61.918 -8.886,-62.451C-13.903,-62.942 -18.398,-59.868 -19.458,-55.436C-20.875,-51.002 -20.897,-46.377 -20.583,-41.63C-20.191,-35.719 -19.845,-30.928 -19.351,-24.134C-18.628,-14.214 -18.499,-7.047 -18.711,0.825C-18.745,2.108 -18.387,3.436 -18.653,4.697L-18.639,4.699C-18.652,4.768 -18.667,4.84 -18.674,4.914C-18.953,7.598 -16.86,10.001 -13.997,10.281C-11.305,10.545 -8.896,8.835 -8.388,6.396L-8.382,6.398C-6.289,-1.516 -4.904,-9.545 -3.972,-17.658C-3.149,-24.831 -1.941,-31.959 -1.44,-39.167C-1.424,-39.39 -0.519,-47.379 0,-52.397" style="fill:rgb(69,79,86);fill-rule:nonzero;"/>
                </g>
                <g transform="matrix(1,0,0,1,823.8,443.697)">
                    <path d="M0,-24.667C-5.508,-22.827 -10.773,-22.016 -15.433,-21.783C-22.871,-21.414 -28.775,-22.507 -31.715,-23.22C-32.194,-21.396 -32.707,-19.42 -32.991,-18.269C-33.321,-16.925 -33.612,-15.579 -33.858,-14.231C-31.368,-9.094 -25.569,-0.092 -15.49,0C-14.788,-0.032 -13.976,-0.232 -13.88,-0.08C-3.863,-1.176 1.013,-10.711 2.978,-16.071C2.599,-17.388 2.176,-18.695 1.712,-20.001C1.326,-21.09 0.646,-22.938 0,-24.667" style="fill:rgb(168,155,145);fill-rule:nonzero;"/>
                </g>
                <g transform="matrix(1,0,0,1,788.773,487.252)">
                    <path d="M0,39.606L7.707,40.579C7.714,40.506 7.715,40.432 7.723,40.359C8.251,35.535 8.723,30.708 9.243,25.887C9.865,20.105 10.66,14.351 11.941,8.677C12.187,7.58 12.413,6.478 12.627,5.377C12.709,5.11 12.766,4.833 12.79,4.548C12.797,4.512 12.806,4.477 12.813,4.441L12.797,4.439C12.804,4.365 12.816,4.294 12.816,4.218C12.844,1.517 10.254,-0.763 7.028,-0.871C3.991,-0.973 1.476,0.885 1.168,3.356L1.157,3.356C0.832,5.834 0.431,8.31 0.374,10.803C0.149,20.398 0.037,30.004 0,39.606" style="fill:rgb(69,79,86);fill-rule:nonzero;"/>
                </g>
                <g transform="matrix(1,0,0,1,827.147,485.696)">
                    <path d="M0,-56.02C-0.576,-61.036 -5.435,-64.569 -10.848,-63.915C-15.852,-63.309 -19.576,-59.337 -19.656,-54.78C-20.082,-50.145 -19.105,-45.625 -17.77,-41.058C-16.11,-35.373 -14.739,-30.769 -12.789,-24.243C-9.94,-14.712 -8.266,-7.743 -6.773,-0.01C-6.528,1.251 -5.89,2.47 -5.88,3.757L-5.865,3.757C-5.862,3.828 -5.862,3.9 -5.854,3.976C-5.545,6.654 -2.98,8.549 -0.127,8.203C2.559,7.879 4.544,5.688 4.51,3.197L4.517,3.197C4.854,-4.979 4.47,-13.117 3.627,-21.238C2.881,-28.423 2.521,-35.643 1.452,-42.789C1.419,-43.01 0.576,-51.005 0,-56.02" style="fill:rgb(69,79,86);fill-rule:nonzero;"/>
                </g>
                <g transform="matrix(1,0,0,1,824.699,484.427)">
                    <path d="M0,41.46L7.764,41.248C7.758,41.174 7.75,41.102 7.748,41.026C7.533,36.182 7.263,31.338 7.044,26.495C6.78,20.684 6.691,14.875 7.091,9.074C7.169,7.952 7.225,6.828 7.27,5.705C7.31,5.43 7.323,5.148 7.304,4.864C7.306,4.825 7.308,4.791 7.308,4.753L7.296,4.753C7.288,4.681 7.288,4.607 7.278,4.534C6.896,1.858 3.988,0 0.783,0.384C-2.233,0.746 -4.437,2.965 -4.365,5.455L-4.375,5.455C-4.319,7.957 -4.338,10.462 -4.017,12.934C-2.777,22.451 -1.426,31.961 0,41.46" style="fill:rgb(69,79,86);fill-rule:nonzero;"/>
                </g>
                <g transform="matrix(1,0,0,1,824.378,394.845)">
                    <path d="M0,6.611C-0.116,0.37 4.939,-5.848 4.516,-21.508C4.366,-27.001 1.478,-31.686 -16.181,-27.746C-33.844,-31.686 -37.726,-26.034 -37.875,-20.541C-38.298,-4.884 -32.246,0.37 -32.362,6.611C-32.477,12.85 -35.124,35.841 -35.124,35.841L-16.251,38.279L-16.251,38.297L-16.181,38.288L-16.113,38.297L-16.113,38.279L2.76,35.841C2.76,35.841 0.115,12.85 0,6.611" style="fill:white;fill-rule:nonzero;"/>
                </g>
                <g transform="matrix(1,0,0,1,779.83,372.098)">
                    <path d="M0,14.05L12.585,20.096L42.495,20.974L53.977,12.055C53.977,12.055 50.093,-4.197 46.671,-4.941C41.254,-6.119 9.818,-4.993 9.818,-4.993C9.818,-4.993 3.748,-6.924 0,14.05" style="fill:white;fill-rule:nonzero;"/>
                </g>
                <g transform="matrix(-0.316406,-0.948624,-0.948624,0.316406,805.743,355.605)">
                    <path d="M-5.216,-6.127C-5.222,-6.008 -1.814,1.968 -1.408,2.666C-2.573,3.165 -3.928,3.538 -5.216,3.981C-5.333,2.137 -6.026,-2.472 -6.828,-5.582C-6.303,-5.775 -5.769,-5.963 -5.216,-6.127" style="fill:rgb(255,213,166);fill-rule:nonzero;"/>
                </g>
                <g transform="matrix(1,0,0,1,823.181,365.498)">
                    <path d="M0,2.477C-1.576,2.094 -4.053,1.884 -6.029,1.453C-7.833,1.058 -9.396,-0.099 -9.769,-1.665C-10.062,-2.886 -10.027,-4.145 -9.985,-5.441C-13.223,-5.21 -17.858,-4.379 -19.558,-3.923C-19.571,-3.471 -19.591,-3.025 -19.634,-2.593C-19.918,0.13 -21.614,1.64 -23.79,1.818C-25.384,1.953 -27.361,1.865 -28.883,2.556C-25.951,2.929 -23.377,4.134 -20.864,5.394C-16.305,7.677 -10.402,7.918 -5.999,5.3C-3.678,3.922 -1.31,3.139 1.547,3.274C1.2,2.795 0.588,2.621 0,2.477" style="fill:rgb(252,222,171);fill-rule:nonzero;"/>
                </g>
                <g transform="matrix(1,0,0,1,780.074,356.599)">
                    <path d="M0,-71.099C-1.741,-72.91 -1.234,-74.981 -1.58,-77.149C-3.489,-74.305 -4.797,-71.471 -5.385,-68.396C-5.959,-65.381 -6.273,-62.315 -6.733,-59.049C-8.151,-60.318 -7.795,-61.857 -7.907,-63.548C-9.474,-61.371 -10,-59.102 -10.357,-56.799C-10.719,-54.467 -10.963,-52.116 -11.3,-49.433C-12.644,-51.38 -12.342,-53.301 -12.677,-55.189C-12.859,-54.53 -13.093,-53.88 -13.214,-53.211C-13.968,-49.058 -13.911,-44.922 -12.914,-40.81C-12.61,-39.555 -14.028,-37.711 -12.794,-37.051C-11.571,-36.399 -12.809,-33.107 -11.721,-32.232C-11.426,-31.997 -9.311,-26.985 -9.037,-26.658C-0.318,-15.744 19.938,-0.307 19.938,-0.38C36.606,17.43 58.78,-38.251 60.559,-38.345C60.814,-38.357 61.217,-38.938 61.252,-39.281C61.554,-42.284 61.929,-45.293 62.01,-48.307C62.102,-51.741 61.943,-55.183 61.823,-58.62C61.806,-59.086 61.505,-59.687 61.13,-59.967C60.437,-60.484 60.122,-61.055 60.057,-61.883C59.563,-68.077 55.816,-72.425 51.15,-76.24C50.312,-76.927 49.433,-77.563 48.402,-78.105C49.141,-76.626 49.881,-75.149 50.619,-73.671C50.533,-73.6 50.445,-73.528 50.357,-73.458C44.645,-79.536 38.23,-84.633 29.77,-87.221C30.624,-85.852 31.404,-84.597 32.307,-83.144C30.318,-84.114 28.574,-84.962 26.835,-85.809C26.768,-85.721 26.7,-85.635 26.632,-85.547C27.716,-84.028 29.358,-82.778 29.358,-80.319C25.219,-83.535 21.119,-86.346 15.885,-87.747C16.519,-85.71 17.086,-83.877 17.749,-81.751C16.713,-82.467 15.923,-83.011 15.012,-83.641C14.799,-82.892 14.609,-82.226 14.372,-81.384C11.847,-83.36 10.453,-85.9 9.093,-88.529C7.867,-84.877 8.531,-81.172 8.696,-77.466C7.414,-77.969 7.028,-78.66 4.659,-84.199C4.523,-81.765 4.283,-79.326 4.274,-76.89C4.269,-74.468 4.493,-72.045 4.616,-69.623C4.505,-69.566 4.393,-69.511 4.281,-69.453C3.773,-70.367 3.263,-71.281 2.696,-72.304C2.572,-71.532 2.457,-70.786 2.303,-69.807C1.066,-70.746 1.222,-72.126 0.627,-73.357C0.404,-72.551 0.239,-71.95 0,-71.099" style="fill:rgb(0,72,110);"/>
                </g>
                <g transform="matrix(1,0,0,1,778.82,340.184)">
                    <path d="M0,-10.534C-0.11,-11.29 0.147,-12.369 -0.926,-12.726C-2.314,-13.185 -3.741,-13.541 -5.125,-12.703C-5.634,-12.392 -7.071,-10.406 -7.426,-9.154C-8.477,-5.487 -7.187,-2.511 -4.333,-0.204C-3.009,0.864 1.918,2.81 3.821,3.007C3.871,1.889 0.936,-2.089 0,-10.534" style="fill:rgb(253,219,171);"/>
                </g>
                <g transform="matrix(1,0,0,1,777.53,338.423)">
                    <path d="M0,-5.569C-1.529,-6.983 -2.993,-7.153 -4.27,-5.726C-3.297,-5.309 -2.17,-5.498 -1.309,-4.798C-0.875,-4.443 -0.659,-4.182 -0.757,-3.566C-1.22,-0.601 -0.74,0.118 2.253,0.858C2.854,1.007 3.398,1.146 3.839,1.584C3.124,-0.001 2.388,-3.358 0,-5.569" style="fill:rgb(249,193,134);"/>
                </g>
                <g transform="matrix(1,0,0,1,836.448,337.339)">
                    <path d="M0,-10.486C0.028,-11.248 -0.343,-12.295 0.688,-12.76C2.023,-13.365 3.404,-13.869 4.867,-13.181C5.404,-12.927 7.043,-11.103 7.53,-9.897C8.959,-6.357 7.989,-3.263 5.396,-0.667C4.196,0.534 -0.501,2.986 -2.378,3.383C-2.541,2.277 -0.042,-1.986 0,-10.486" style="fill:rgb(253,219,171);"/>
                </g>
                <g transform="matrix(1,0,0,1,838.068,335.536)">
                    <path d="M0,-5.633C1.372,-7.198 2.808,-7.521 4.228,-6.237C3.307,-5.721 2.167,-5.788 1.384,-5.003C0.986,-4.605 0.801,-4.321 0.963,-3.718C1.736,-0.818 1.335,-0.054 -1.565,0.997C-2.148,1.207 -2.671,1.406 -3.062,1.888C-2.522,0.236 -2.141,-3.181 0,-5.633" style="fill:rgb(249,193,134);"/>
                </g>
                <g transform="matrix(1,0,0,1,834.719,336.164)">
                    <path d="M0,-8.153C0,10.08 -11.931,24.863 -26.646,24.863C-41.361,24.863 -53.29,10.08 -53.29,-8.153C-53.29,-18.831 -46.437,-32.421 -46.437,-32.421C-46.437,-32.421 -32.059,-30.539 -25.999,-31.231C-10.451,-33.016 0,-26.389 0,-8.153" style="fill:rgb(255,221,173);fill-rule:nonzero;"/>
                </g>
                <g transform="matrix(1,0,0,1,815.124,359.635)">
                    <path d="M0,-53.612C0,-53.612 -12.615,-35.634 0,-18.512C0,-18.512 0.035,-16.597 -3.832,-15.685C-3.832,-15.685 -6.366,-6.884 -2.403,0.892C-2.403,0.892 17.47,-4.282 19.057,-29.64C19.057,-29.64 19.886,-54.504 0,-53.612" style="fill:rgb(255,213,166);"/>
                </g>
                <g transform="matrix(0.083882,0.996476,0.996476,-0.083882,809.723,337.855)">
                    <path d="M4.634,-4.259C5.202,-4.224 5.665,-2.114 5.663,0.455C5.666,3.023 5.207,5.074 4.634,5.039C4.068,5.004 3.602,2.892 3.604,0.326C3.601,-2.242 4.064,-4.294 4.634,-4.259" style="fill:rgb(186,111,69);"/>
                </g>
                <g transform="matrix(-0.0115314,0.999934,0.999934,0.0115314,810.256,345.243)">
                    <path d="M4.468,-5.918C4.854,-5.962 6.265,-3.671 6.265,-0.822C6.262,2.028 4.852,4.359 4.468,4.401C4.081,4.444 4.865,2.189 4.865,-0.664C4.865,-3.512 4.083,-5.874 4.468,-5.918" style="fill:rgb(152,91,54);fill-rule:nonzero;"/>
                </g>
                <g transform="matrix(0.00438253,0.99999,0.99999,-0.00438253,810.267,352.418)">
                    <path d="M1.829,-2.042C1.89,-2.06 2.117,-1.211 2.117,-0.139C2.117,0.932 1.891,1.817 1.829,1.837C1.767,1.856 1.893,1.002 1.892,-0.069C1.891,-1.14 1.767,-2.021 1.829,-2.042" style="fill:rgb(152,91,54);fill-rule:nonzero;"/>
                </g>
                <g transform="matrix(1,0,0,1,800.586,316.075)">
                    <path d="M0,6.354C-2.999,1.362 -10.457,0 -13.334,5.459C-8.602,4.384 -4.51,4.99 0,6.354"/>
                </g>
                <g transform="matrix(1,0,0,1,814.84,315.863)">
                    <path d="M0,6.746C2.877,1.349 10.333,0 13.362,6.012C8.586,4.751 4.491,5.34 0,6.746"/>
                </g>
                <g transform="matrix(0.694397,-0.719593,-0.719593,-0.694397,801.281,328.147)">
                    <path d="M-4.749,-2.963C-4.749,-2.963 -2.063,-1.027 -1.432,1.534C-0.916,3.637 -1.254,7.166 -4.749,8.666C-8.247,10.165 -11.35,7.618 -11.532,5.535C-11.724,3.319 -8.656,-0.83 -4.749,-2.963" style="fill:rgb(244,246,245);"/>
                </g>
                <g transform="matrix(1,0,0,1,788.724,323.594)">
                    <path d="M0,7.772C0,7.772 -0.257,6.706 0.114,5.415C0.335,4.638 0.89,3.098 2.88,2.107C4.862,1.117 6.859,1.481 8.758,2.791C9.357,3.202 10.37,4.43 11.112,6.108C9.957,1.538 6.614,0 3.846,0.556C2.419,0.845 1.084,1.835 0.59,2.332C-0.096,3.016 -1.173,5.302 0,7.772" style="fill:rgb(12,10,9);"/>
                </g>
                <g transform="matrix(0.135035,0.990841,0.990841,-0.135035,793.291,325.019)">
                    <path d="M4.509,-3.936C6.88,-3.892 8.797,-1.818 8.798,0.698C8.795,3.209 6.879,5.212 4.509,5.165C2.14,5.12 0.221,3.046 0.22,0.531C0.22,-1.98 2.14,-3.983 4.509,-3.936" style="fill:rgb(50,6,18);"/>
                </g>
                <g transform="matrix(0.13498,0.990848,0.990848,-0.13498,793.882,327.14)">
                    <path d="M2.327,-2.033C3.55,-2.009 4.541,-0.94 4.541,0.358C4.542,1.657 3.551,2.689 2.327,2.664C1.103,2.641 0.115,1.571 0.114,0.274C0.112,-1.023 1.104,-2.056 2.327,-2.033"/>
                </g>
                <g transform="matrix(-0.999796,0.0201822,0.0201822,0.999796,796.919,331.351)">
                    <path d="M0.09,-1.916C0.857,-1.954 1.074,-1.498 1.075,-0.907C1.076,-0.313 0.713,0.003 0.09,0.016C-0.601,0.036 -0.963,-0.301 -0.968,-0.943C-0.976,-1.598 -0.571,-1.887 0.09,-1.916" style="fill:rgb(244,246,245);"/>
                </g>
                <g transform="matrix(0.672283,0.740294,0.740294,-0.672283,814.375,327.535)">
                    <path d="M4.89,-3.102C4.89,-3.102 2.206,-1.167 1.576,1.396C1.06,3.498 1.394,7.032 4.89,8.528C8.384,10.028 11.487,7.482 11.669,5.396C11.865,3.183 8.797,-0.967 4.89,-3.102" style="fill:rgb(244,246,245);"/>
                </g>
                <g transform="matrix(0.164684,-0.986346,-0.986346,-0.164684,822.867,324.889)">
                    <path d="M-4.491,-3.801C-6.86,-3.755 -8.779,-1.677 -8.782,0.835C-8.782,3.349 -6.861,5.347 -4.491,5.301C-2.124,5.256 -0.201,3.178 -0.201,0.666C-0.201,-1.845 -2.12,-3.845 -4.491,-3.801" style="fill:rgb(50,6,18);"/>
                </g>
                <g transform="matrix(0.164537,-0.986371,-0.986371,-0.164537,822.149,326.974)">
                    <path d="M-2.317,-1.962C-3.539,-1.937 -4.531,-0.868 -4.531,0.431C-4.53,1.728 -3.54,2.758 -2.317,2.736C-1.094,2.713 -0.101,1.639 -0.103,0.342C-0.104,-0.955 -1.095,-1.985 -2.317,-1.962"/>
                </g>
                <g transform="matrix(-0.998662,-0.0517173,-0.0517173,0.998662,822.838,331.157)">
                    <path d="M-0.119,-1.945C-0.887,-1.985 -1.105,-1.531 -1.104,-0.938C-1.108,-0.346 -0.745,-0.028 -0.119,-0.011C0.567,0.008 0.932,-0.329 0.937,-0.97C0.944,-1.627 0.54,-1.916 -0.119,-1.945" style="fill:rgb(244,246,245);"/>
                </g>
                <g transform="matrix(1,0,0,1,826.9,323.386)">
                    <path d="M0,7.909C0,7.909 0.282,6.85 -0.062,5.553C-0.269,4.769 -0.789,3.219 -2.76,2.185C-4.719,1.157 -6.722,1.48 -8.648,2.748C-9.258,3.147 -10.299,4.352 -11.073,6.016C-9.822,1.471 -6.449,0 -3.691,0.615C-2.271,0.932 -0.957,1.95 -0.473,2.456C0.198,3.155 1.226,5.467 0,7.909" style="fill:rgb(12,10,9);"/>
                </g>
                <g transform="matrix(1,0,0,1,800.053,375.862)">
                    <path d="M0,-9.222C0,-9.222 9.574,-0.79 18.092,-9.572L23.081,-9.222L25.209,-6.765L11.769,0.35L-0.971,-0.441L-6.144,-6.061L-5.51,-9.134L0,-9.222Z" style="fill:white;fill-rule:nonzero;"/>
                </g>
                <g transform="matrix(1,0,0,1,785.313,334.106)">
                    <path d="M0,-4.563C-0.19,-7.577 0.329,-8.974 2.156,-9.466C4.991,-10.228 7.875,-10.038 10.785,-9.828C12.894,-9.674 14.925,-9.235 16.92,-8.631C18.725,-8.087 19.454,-6.883 19.431,-4.977C19.411,-3.2 18.987,-1.49 18.316,0.122C17.185,2.838 15.363,4.969 12.208,5.535C9.258,5.867 7.401,5.57 4.962,4.964C0.284,3.81 0.124,-2.787 0,-4.563M-4.306,-9.29C-4.126,-7.798 -3.093,-6.848 -2.62,-5.603C-1.966,-3.882 -1.649,-2.035 -1.179,-0.243C-0.672,1.696 -0.259,3.788 1.441,5.04C2.295,5.669 3.269,6.075 4.305,6.403C7.979,7.56 11.719,7.611 15.134,5.99C17.203,5.007 18.557,3.061 18.925,2.444C20.253,0.213 20.845,-2.449 22.405,-4.523C22.821,-5.071 23.482,-5.217 24.032,-5.224L24.032,-8.938C22.814,-8.943 21.587,-9.155 20.348,-9.517C13.457,-11.518 6.421,-12.174 -0.732,-11.575C-1.412,-11.21 -2.143,-11.287 -2.871,-11.318C-4.187,-11.225 -4.467,-10.633 -4.306,-9.29" style="fill:rgb(17,17,17);"/>
                </g>
                <g transform="matrix(1,0,0,1,827.956,324.579)">
                    <path d="M0,14.491C-2.438,15.097 -4.297,15.394 -7.247,15.062C-10.398,14.496 -12.223,12.365 -13.353,9.649C-14.024,8.037 -14.448,6.327 -14.468,4.55C-14.491,2.644 -13.764,1.44 -11.958,0.896C-9.962,0.292 -7.93,-0.147 -5.822,-0.301C-2.912,-0.511 -0.028,-0.701 2.807,0.061C4.634,0.553 5.155,1.95 4.963,4.964C4.837,6.74 4.679,13.337 0,14.491M7.833,-1.791C7.106,-1.76 6.375,-1.683 5.692,-2.048C-1.459,-2.647 -8.494,-1.991 -15.386,0.01C-16.628,0.372 -17.851,0.584 -19.069,0.589L-19.069,4.303C-18.519,4.31 -17.855,4.456 -17.442,5.004C-15.883,7.078 -15.289,9.74 -13.964,11.971C-13.598,12.588 -12.238,14.534 -10.17,15.517C-6.756,17.138 -3.018,17.087 0.658,15.93C1.694,15.602 2.667,15.196 3.522,14.567C5.221,13.315 5.632,11.223 6.141,9.284C6.61,7.492 6.925,5.645 7.583,3.924C8.054,2.679 9.089,1.729 9.269,0.237C9.429,-1.106 9.152,-1.698 7.833,-1.791" style="fill:rgb(17,17,17);"/>
                </g>
                <g transform="matrix(1,0,0,1,828.554,428.354)">
                    <path d="M0,-54.05C-0.075,-56.809 -1.093,-59.608 -4.325,-61.211C-3.571,-61.234 -3.145,-61.248 -3.145,-61.248C-3.145,-61.248 2.725,-63.116 6.485,-43.227C6.54,-42.936 11.636,-25.022 12.987,-20.191C13.202,-19.42 13.321,-18.627 13.34,-17.827L13.983,8.517C13.99,8.822 13.73,9.066 13.425,9.039L8.181,8.564C7.947,8.542 7.757,8.363 7.722,8.13L4.186,-18.161C4.11,-18.667 3.995,-19.167 3.841,-19.655L-2.314,-37.888C-0.992,-41.804 0.195,-46.815 0,-54.05" style="fill:rgb(242,242,242);fill-rule:nonzero;"/>
                </g>
                <g transform="matrix(1,0,0,1,824.235,455.192)">
                    <path d="M0,-62.998L3.598,-64.726C2.058,-60.168 0.337,-57.093 0.399,-53.736C0.5,-48.246 6,-3.94 6.325,-0.767C6.363,-0.392 6.095,-0.056 5.721,-0.008L-13.076,2.165C-13.576,2.229 -14.02,1.844 -14.023,1.34C-14.048,-1.943 -17.932,-44.016 -16.85,-50.285C-16.279,-53.595 -9.139,-65.227 -9.139,-65.227L0,-62.998Z" style="fill:rgb(209,227,238);fill-rule:nonzero;"/>
                </g>
                <g transform="matrix(1,0,0,1,814.417,388.209)">
                    <path d="M0,-19.983L-0.556,-22.682C7.683,-23.968 8.472,-22.916 11.614,-21.357C14.846,-19.754 15.655,-16.664 15.73,-13.905C15.925,-6.67 14.738,-1.659 13.416,2.257L9.818,3.985L0.679,1.757L2.878,-4.364L0.499,-19.992C0.334,-19.988 0.169,-19.985 0,-19.983" style="fill:rgb(209,227,238);fill-rule:nonzero;"/>
                </g>
                <g transform="matrix(1,0,0,1,815.924,402.371)">
                    <path d="M0,-36.636C3.221,-32.566 4.697,-20.356 4.852,-18.771C5,-17.25 4.579,-15.353 3.757,-14.45L-8.603,2.289L-1.356,-15.247C-0.431,-19.77 -0.204,-29.31 -1.069,-33.844L-2.063,-36.844L-2.063,-38.925C-2.063,-38.925 -0.478,-37.24 0,-36.636" style="fill:rgb(228,237,242);fill-rule:nonzero;"/>
                </g>
                <g transform="matrix(1,0,0,1,792.51,455.192)">
                    <path d="M0,-62.998L-3.598,-64.726C-2.058,-60.168 -0.337,-57.093 -0.399,-53.736C-0.5,-48.246 -7.056,-3.94 -7.381,-0.767C-7.419,-0.392 -7.151,-0.056 -6.777,-0.008L15.189,2.165C15.689,2.229 16.132,1.844 16.136,1.34C16.16,-1.943 17.243,-43.768 16.161,-50.037C15.59,-53.348 9.139,-65.227 9.139,-65.227L0,-62.998Z" style="fill:rgb(228,237,242);fill-rule:nonzero;"/>
                </g>
                <g transform="matrix(1,0,0,1,786.597,427.748)">
                    <path d="M0,-53.444C0.075,-56.203 1.093,-59.002 4.325,-60.605C3.571,-60.628 3.145,-60.642 3.145,-60.642C3.145,-60.642 -3.156,-63.116 -6.485,-42.621C-6.532,-42.329 -11.636,-24.416 -12.987,-19.585C-13.202,-18.814 -13.321,-18.021 -13.34,-17.221L-13.983,9.123C-13.99,9.428 -13.729,9.672 -13.425,9.645L-8.181,9.17C-7.947,9.148 -7.757,8.969 -7.722,8.736L-4.186,-17.555C-4.11,-18.061 -3.995,-18.561 -3.84,-19.049L2.315,-37.282C0.992,-41.198 -0.195,-46.209 0,-53.444" style="fill:rgb(228,237,242);fill-rule:nonzero;"/>
                </g>
                <g transform="matrix(1,0,0,1,802.327,388.209)">
                    <path d="M0,-19.983L0.556,-22.682C-7.683,-23.968 -8.263,-22.625 -11.405,-21.067C-14.637,-19.463 -15.655,-16.664 -15.73,-13.905C-15.925,-6.67 -14.738,-1.659 -13.416,2.257L-9.818,3.985L-0.679,1.757L-2.878,-4.364L-0.499,-19.992C-0.334,-19.988 -0.169,-19.985 0,-19.983" style="fill:rgb(228,237,242);fill-rule:nonzero;"/>
                </g>
                <g transform="matrix(1,0,0,1,800.82,402.865)">
                    <path d="M0,-37.13C-3.221,-33.06 -4.697,-20.85 -4.851,-19.265C-5,-17.744 -4.579,-15.847 -3.757,-14.944L7.85,2.289L7.385,0.44L1.356,-15.741C0.431,-20.264 0.204,-29.804 1.069,-34.338L2.063,-37.338L2.063,-39.419C2.063,-39.419 0.478,-37.734 0,-37.13" style="fill:rgb(209,227,238);fill-rule:nonzero;"/>
                </g>
                <g transform="matrix(1,0,0,1,773.813,526.954)">
                    <path d="M0,5.991C0.108,5.636 0.316,5.34 0.524,5.035C0.732,4.733 1.056,4.411 1.34,4.257C2.131,3.832 2.934,3.359 3.79,3.091C4.046,3.009 4.608,2.848 4.628,2.843C7.946,2.081 15.089,-2.692 15.134,-2.904C16.704,-0.807 21.015,-0.393 23.243,-3.601C25.237,-3.122 25.751,-0.637 26.051,0.946C26.107,1.24 26.229,1.528 26.252,1.824C26.291,2.388 26.304,2.957 26.279,3.522C26.262,3.875 26.038,4.166 25.799,4.415C25.626,4.592 25.419,4.733 25.231,4.892L25.052,4.945L23.562,5.381L23.418,5.501C21.927,5.897 20.483,6.434 19.157,7.212C17.622,8.113 15.95,8.608 14.271,9.11C12.896,9.521 11.49,9.592 10.068,9.559C8.243,9.518 6.426,9.398 4.622,9.114C3.469,8.934 2.323,8.71 1.253,8.221C0.971,8.093 0.704,7.921 0.453,7.738C0.158,7.524 -0.026,7.228 -0.085,6.853C-0.196,6.155 -0.212,6.676 0,5.991" style="fill-rule:nonzero;"/>
                </g>
                <g transform="matrix(1,0,0,1,847.681,526.954)">
                    <path d="M0,5.991C-0.108,5.636 -0.316,5.34 -0.524,5.035C-0.732,4.733 -1.056,4.411 -1.34,4.257C-2.131,3.832 -2.934,3.359 -3.79,3.091C-4.046,3.009 -4.608,2.848 -4.628,2.843C-7.946,2.081 -15.089,-2.692 -15.134,-2.904C-16.704,-0.807 -21.015,-0.393 -23.243,-3.601C-25.237,-3.122 -25.751,-0.637 -26.051,0.946C-26.107,1.24 -26.229,1.528 -26.252,1.824C-26.291,2.388 -26.304,2.957 -26.279,3.522C-26.262,3.875 -26.038,4.166 -25.799,4.415C-25.626,4.592 -25.419,4.733 -25.231,4.892L-25.052,4.945L-23.562,5.381L-23.418,5.501C-21.927,5.897 -20.483,6.434 -19.157,7.212C-17.622,8.113 -15.951,8.608 -14.271,9.11C-12.896,9.521 -11.49,9.592 -10.068,9.559C-8.243,9.518 -6.426,9.398 -4.622,9.114C-3.469,8.934 -2.323,8.71 -1.253,8.221C-0.971,8.093 -0.704,7.921 -0.453,7.738C-0.158,7.524 0.026,7.228 0.085,6.853C0.196,6.155 0.212,6.676 0,5.991" style="fill-rule:nonzero;"/>
                </g>
                <g transform="matrix(1,0,0,1,815.034,362.397)">
                    <path d="M0,33.544C-0.039,33.031 -0.11,32.445 -0.191,31.766C-0.598,28.377 -1.279,22.705 0.4,12.931C1.133,8.665 0.999,3.363 -0.678,1.485C-1.105,1.006 -1.598,0.789 -2.186,0.822L-2.23,0.047C-1.403,0 -0.686,0.31 -0.099,0.968C1.827,3.126 1.906,8.75 1.165,13.063C-0.495,22.725 0.177,28.326 0.579,31.673C0.662,32.361 0.733,32.955 0.774,33.485L0,33.544Z" style="fill:rgb(69,79,86);fill-rule:nonzero;"/>
                </g>
                <g transform="matrix(0,1,1,0,815.427,394.068)">
                    <path d="M2.951,-2.952C4.582,-2.952 5.903,-1.632 5.903,-0.001C5.903,1.628 4.582,2.951 2.951,2.951C1.32,2.951 -0,1.628 -0,-0.001C-0,-1.632 1.32,-2.952 2.951,-2.952" style="fill:rgb(156,155,155);fill-rule:nonzero;"/>
                </g>
                <g transform="matrix(0,1,1,0,815.426,395.551)">
                    <path d="M1.468,-1.469C2.279,-1.469 2.937,-0.811 2.937,0C2.937,0.811 2.279,1.468 1.468,1.468C0.658,1.468 0,0.811 0,0C0,-0.811 0.658,-1.469 1.468,-1.469" style="fill:rgb(192,191,191);fill-rule:nonzero;"/>
                </g>
                <g transform="matrix(1,0,0,1,802.618,379.846)">
                    <path d="M0,9.496L-1.48,9.027C-1.235,8.252 -0.67,5.965 -0.992,4.71C-1.463,2.866 -3.627,1.858 -4.263,1.599C-4.678,1.679 -5.694,1.902 -6.698,2.329C-7.76,2.781 -9.038,3.56 -9.087,4.704C-9.107,5.182 -8.796,7.445 -8.595,8.759L-10.129,8.994C-10.22,8.401 -10.67,5.407 -10.638,4.638C-10.591,3.554 -9.97,2.025 -7.277,0.889C-5.803,0.267 -4.366,0.039 -4.306,0.03L-4.117,0L-3.936,0.062C-3.786,0.113 -0.249,1.35 0.512,4.325C1.002,6.235 0.104,9.168 0,9.496" style="fill:rgb(69,79,86);fill-rule:nonzero;"/>
                </g>
                <g transform="matrix(1,0,0,1,799.489,389.032)">
                    <path d="M0,6.014L-0.005,6.014L0.007,5.238C0.03,5.237 0.761,5.2 1.129,3.912C1.513,2.573 1.695,1.625 1.888,0.622C1.927,0.419 1.966,0.213 2.008,0L2.77,0.15C2.728,0.362 2.689,0.567 2.65,0.769C2.453,1.789 2.268,2.753 1.875,4.126C1.346,5.975 0.101,6.014 0,6.014" style="fill:rgb(198,198,197);fill-rule:nonzero;"/>
                </g>
                <g transform="matrix(0.5613,0.827613,0.827613,-0.5613,797.612,394.392)">
                    <path d="M0.915,-0.455C1.129,-0.393 1.912,1.227 1.777,1.459C1.642,1.691 1.103,1.911 0.915,1.847C0.727,1.784 -0.167,0.272 -0.191,0.043C-0.214,-0.186 0.7,-0.517 0.915,-0.455" style="fill:rgb(156,155,155);fill-rule:nonzero;"/>
                </g>
                <g transform="matrix(1,0,0,1,795.155,388.678)">
                    <path d="M0,6.159C-0.054,6.155 -1.336,6.048 -1.719,4.123C-1.999,2.718 -2.105,1.74 -2.217,0.704C-2.238,0.503 -2.261,0.298 -2.284,0.087L-1.513,0C-1.489,0.213 -1.467,0.418 -1.445,0.621C-1.335,1.639 -1.231,2.6 -0.958,3.971C-0.697,5.285 0.029,5.382 0.06,5.385L0,6.159Z" style="fill:rgb(198,198,197);fill-rule:nonzero;"/>
                </g>
                <g transform="matrix(0.627234,-0.778831,-0.778831,-0.627234,797.104,394.437)">
                    <path d="M-0.858,-0.37C-1.073,-0.307 -1.855,1.312 -1.721,1.545C-1.587,1.777 -1.046,1.995 -0.858,1.932C-0.671,1.87 0.224,0.358 0.247,0.128C0.27,-0.1 -0.644,-0.434 -0.858,-0.37" style="fill:rgb(156,155,155);fill-rule:nonzero;"/>
                </g>
                <g transform="matrix(1,0,0,1,798.816,362.435)">
                    <path d="M0,18.259L-0.769,18.156C-0.616,17.016 -0.495,15.915 -0.367,14.749C-0.029,11.677 0.32,8.501 1.282,4.591C2.336,0.309 4.522,0 5.166,0.004L5.158,0.78L5.14,0.78C3.831,0.78 2.643,2.309 2.035,4.777C1.086,8.637 0.74,11.787 0.404,14.834C0.276,16.004 0.154,17.11 0,18.259" style="fill:rgb(69,79,86);fill-rule:nonzero;"/>
                </g>
                <g transform="matrix(1,0,0,1,789.38,429.322)">
                    <path d="M0,15.59C-0.096,15.59 -0.186,15.533 -0.224,15.438C-0.274,15.315 -0.213,15.174 -0.09,15.125C0.889,14.733 2.758,13.731 4.271,11.425C4.557,10.964 5.274,5.218 5.677,1.55L0.357,0.498C0.226,0.472 0.141,0.345 0.167,0.214C0.193,0.084 0.321,0 0.451,0.024L6.204,1.162L6.18,1.382C6.005,2.987 5.112,11.023 4.674,11.69C3.088,14.106 1.121,15.16 0.09,15.573C0.06,15.584 0.03,15.59 0,15.59" style="fill:rgb(168,203,222);fill-rule:nonzero;"/>
                </g>
                <g transform="matrix(1,0,0,1,827.235,429.322)">
                    <path d="M0,15.59C-0.03,15.59 -0.06,15.584 -0.09,15.573C-1.121,15.16 -3.087,14.107 -4.673,11.69C-5.111,11.023 -6.005,2.987 -6.18,1.382L-6.204,1.162L-0.451,0.024C-0.321,0 -0.194,0.084 -0.168,0.214C-0.142,0.345 -0.227,0.472 -0.358,0.498L-5.677,1.55C-5.273,5.218 -4.556,10.964 -4.27,11.426C-2.756,13.732 -0.889,14.733 0.09,15.125C0.213,15.174 0.274,15.315 0.224,15.438C0.186,15.533 0.096,15.59 0,15.59" style="fill:rgb(168,203,222);fill-rule:nonzero;"/>
                </g>
            </g>
        </g>
    </g>
</svg>
