<?xml version="1.0" encoding="UTF-8" standalone="no"?>
<!DOCTYPE svg PUBLIC "-//W3C//DTD SVG 1.1//EN" "http://www.w3.org/Graphics/SVG/1.1/DTD/svg11.dtd">
<svg width="100%" height="100%" viewBox="0 0 82 269" version="1.1" xmlns="http://www.w3.org/2000/svg" xmlns:xlink="http://www.w3.org/1999/xlink" xml:space="preserve" xmlns:serif="http://www.serif.com/" style="fill-rule:evenodd;clip-rule:evenodd;stroke-linejoin:round;stroke-miterlimit:2;">
    <g transform="matrix(1,0,0,1,-2043,-1149)">
        <g transform="matrix(1,0,0,1,1536.75,864.001)">
            <g id="hombre2">
                <g transform="matrix(0,-1,-1,0,542.347,308.421)">
                    <path d="M-29.411,-40.09C-51.741,-40.09 -69.845,-24.532 -69.845,-5.338C-69.845,13.852 -51.741,29.411 -29.411,29.411C-7.081,29.411 0.344,11.269 0.344,-7.923C0.344,-27.116 -7.081,-40.09 -29.411,-40.09" style="fill:rgb(45,40,41);fill-rule:nonzero;"/>
                </g>
                <g transform="matrix(1,0,0,1,515.865,396.189)">
                    <path d="M0,26.711C-0.621,28.533 -0.466,30.545 1.634,31.276L2.585,31.606C4.686,32.338 6.443,30.682 7.064,28.861L17.575,0.054C18.196,-1.766 16.997,-3.834 14.896,-4.566L13.946,-4.898C11.847,-5.627 9.64,-4.741 9.021,-2.921L0,26.711Z" style="fill:rgb(254,220,171);fill-rule:nonzero;"/>
                </g>
                <g transform="matrix(1,0,0,1,513.523,429.144)">
                    <path d="M0,22.522C-0.284,24.423 0.145,28.709 1.688,28.732C3.902,28.765 5.828,27.372 5.271,25.694C4.636,23.767 5.285,20.038 5.639,18.221C6.669,12.895 9.029,-2.961 9.029,-2.961C9.213,-4.715 7.571,-6.165 5.356,-6.201L4.69,-6.21C2.477,-6.243 1.147,-4.308 0.963,-2.552L0,22.522Z" style="fill:rgb(254,220,171);fill-rule:nonzero;"/>
                </g>
                <g transform="matrix(1,0,0,1,517.815,464.122)">
                    <path d="M0,-7.556C0.275,-8.148 0.639,-8.597 0.938,-8.899C1.909,-7.572 2.726,-6.129 2.99,-4.529C3.261,-2.889 3.351,-2.033 3.836,-0.453C4.038,0.205 3.936,0.941 3.455,1.153L3.455,1.151C2.863,1.343 2.567,0.035 1.643,-0.629L0.668,-2.229C-0.503,-4.147 -0.734,-5.989 0,-7.556" style="fill:rgb(254,220,171);fill-rule:nonzero;"/>
                </g>
                <g transform="matrix(1,0,0,1,512.144,463.479)">
                    <path d="M0,0.065C-0.038,-0.301 -0.028,-0.657 0.047,-0.958C0.682,-3.491 1.162,-6.042 1.406,-8.621L4.151,-8.774L4.947,-8.819C5.081,-8.754 5.121,-8.633 5.142,-8.499C5.189,-8.438 5.236,-8.375 5.28,-8.315C6.238,-6.998 5.984,0.246 5.984,0.246C5.971,0.289 5.959,0.333 5.946,0.378C5.922,0.787 5.88,1.237 5.814,1.738C5.594,3.384 7.27,7.498 6.714,8.323C6.714,8.323 6.432,8.884 5.6,8.549C4.439,8.079 1.21,4.18 0.465,2.558C0.105,1.78 -0.007,0.072 -0.007,0.072C-0.007,0.072 -0.004,0.07 0,0.065" style="fill:rgb(254,220,171);fill-rule:nonzero;"/>
                </g>
                <g transform="matrix(1,0,0,1,579.421,395.645)">
                    <path d="M0,26.714C0.619,28.535 0.466,30.548 -1.635,31.279L-2.585,31.608C-4.686,32.338 -6.443,30.685 -7.064,28.865L-17.575,0.059C-18.196,-1.763 -16.997,-3.832 -14.896,-4.563L-13.946,-4.894C-11.846,-5.624 -9.642,-4.738 -9.02,-2.918L0,26.714Z" style="fill:rgb(254,220,171);fill-rule:nonzero;"/>
                </g>
                <g transform="matrix(1,0,0,1,581.763,428.602)">
                    <path d="M0,22.522C0.282,24.423 -0.145,28.708 -1.69,28.73C-3.901,28.765 -5.826,27.371 -5.273,25.694C-4.635,23.768 -5.287,20.04 -5.638,18.221C-6.67,12.895 -9.029,-2.961 -9.029,-2.961C-9.212,-4.716 -7.57,-6.165 -5.356,-6.201L-4.69,-6.21C-2.479,-6.243 -1.147,-4.308 -0.964,-2.552L0,22.522Z" style="fill:rgb(254,220,171);fill-rule:nonzero;"/>
                </g>
                <g transform="matrix(1,0,0,1,577.473,463.582)">
                    <path d="M0,-7.559C-0.28,-8.15 -0.644,-8.599 -0.939,-8.901C-1.911,-7.575 -2.73,-6.132 -2.991,-4.531C-3.263,-2.892 -3.353,-2.036 -3.838,-0.455C-4.042,0.202 -3.937,0.939 -3.46,1.151L-3.46,1.149C-2.865,1.342 -2.569,0.031 -1.646,-0.632L-0.671,-2.231C0.499,-4.15 0.729,-5.991 0,-7.559" style="fill:rgb(254,220,171);fill-rule:nonzero;"/>
                </g>
                <g transform="matrix(1,0,0,1,583.143,462.938)">
                    <path d="M0,0.064C0.038,-0.301 0.028,-0.657 -0.047,-0.958C-0.681,-3.489 -1.16,-6.042 -1.406,-8.621L-4.152,-8.775L-4.946,-8.82C-5.081,-8.754 -5.121,-8.633 -5.141,-8.499C-5.189,-8.439 -5.236,-8.375 -5.281,-8.315C-6.238,-6.998 -5.986,0.246 -5.986,0.246C-5.974,0.289 -5.96,0.333 -5.942,0.378C-5.922,0.787 -5.881,1.237 -5.814,1.738C-5.595,3.384 -7.27,7.498 -6.713,8.322C-6.713,8.322 -6.432,8.884 -5.599,8.549C-4.437,8.078 -1.21,4.18 -0.464,2.558C-0.106,1.78 0.007,0.072 0.007,0.072C0.007,0.072 0.004,0.07 0,0.064" style="fill:rgb(254,220,171);fill-rule:nonzero;"/>
                </g>
                <g transform="matrix(1,0,0,1,549.457,502.55)">
                    <path d="M0,-52.395C0.52,-57.416 -3.459,-61.916 -8.885,-62.448C-13.902,-62.939 -18.397,-59.866 -19.458,-55.433C-20.874,-51 -20.897,-46.375 -20.582,-41.628C-20.19,-35.718 -19.844,-30.927 -19.35,-24.133C-18.628,-14.213 -18.498,-7.046 -18.711,0.826C-18.744,2.109 -18.386,3.436 -18.652,4.697L-18.639,4.699C-18.651,4.768 -18.666,4.84 -18.674,4.915C-18.952,7.598 -16.859,10.001 -13.996,10.28C-11.305,10.544 -8.895,8.835 -8.388,6.396L-8.382,6.398C-6.288,-1.515 -4.904,-9.545 -3.972,-17.657C-3.149,-24.83 -1.941,-31.958 -1.44,-39.166C-1.424,-39.388 -0.519,-47.377 0,-52.395" style="fill:rgb(40,50,112);fill-rule:nonzero;"/>
                </g>
                <g transform="matrix(1,0,0,1,563.953,460.934)">
                    <path d="M0,-24.666C-5.508,-22.826 -10.772,-22.015 -15.433,-21.783C-22.87,-21.413 -28.774,-22.506 -31.714,-23.219C-32.193,-21.395 -32.706,-19.419 -32.99,-18.268C-33.32,-16.924 -33.611,-15.579 -33.857,-14.231C-31.367,-9.094 -25.568,-0.092 -15.489,0C-14.787,-0.032 -13.976,-0.232 -13.879,-0.079C-3.863,-1.176 1.013,-10.71 2.978,-16.071C2.599,-17.387 2.176,-18.695 1.712,-20C1.326,-21.089 0.646,-22.937 0,-24.666" style="fill:rgb(127,1,25);fill-rule:nonzero;"/>
                </g>
                <g transform="matrix(1,0,0,1,528.928,504.486)">
                    <path d="M0,39.605L7.707,40.578C7.714,40.505 7.715,40.431 7.723,40.358C8.251,35.534 8.722,30.707 9.243,25.886C9.865,20.105 10.66,14.351 11.941,8.677C12.187,7.58 12.412,6.478 12.627,5.377C12.709,5.11 12.765,4.833 12.79,4.548C12.797,4.512 12.805,4.477 12.812,4.441L12.797,4.439C12.803,4.365 12.816,4.294 12.816,4.218C12.844,1.517 10.254,-0.763 7.027,-0.871C3.991,-0.973 1.476,0.885 1.168,3.356L1.157,3.356C0.832,5.834 0.431,8.31 0.374,10.803C0.149,20.398 0.037,30.003 0,39.605" style="fill:rgb(40,50,112);fill-rule:nonzero;"/>
                </g>
                <g transform="matrix(1,0,0,1,567.301,502.932)">
                    <path d="M0,-56.019C-0.576,-61.035 -5.434,-64.567 -10.848,-63.914C-15.852,-63.308 -19.576,-59.336 -19.655,-54.779C-20.081,-50.144 -19.104,-45.624 -17.769,-41.058C-16.109,-35.373 -14.739,-30.768 -12.789,-24.243C-9.94,-14.712 -8.265,-7.743 -6.772,-0.01C-6.527,1.25 -5.889,2.469 -5.879,3.756L-5.865,3.756C-5.861,3.827 -5.861,3.899 -5.853,3.975C-5.545,6.653 -2.98,8.548 -0.127,8.202C2.559,7.878 4.544,5.687 4.51,3.196L4.517,3.196C4.854,-4.98 4.47,-13.117 3.627,-21.238C2.881,-28.423 2.521,-35.642 1.452,-42.789C1.419,-43.009 0.576,-51.005 0,-56.019" style="fill:rgb(40,50,112);fill-rule:nonzero;"/>
                </g>
                <g transform="matrix(1,0,0,1,564.852,501.662)">
                    <path d="M0,41.459L7.764,41.247C7.758,41.173 7.75,41.101 7.747,41.025C7.533,36.181 7.263,31.337 7.044,26.494C6.78,20.684 6.69,14.875 7.091,9.074C7.169,7.952 7.225,6.828 7.27,5.706C7.31,5.43 7.323,5.148 7.304,4.864C7.306,4.825 7.308,4.791 7.308,4.753L7.296,4.753C7.288,4.681 7.288,4.607 7.278,4.534C6.896,1.858 3.988,0 0.783,0.385C-2.233,0.746 -4.437,2.965 -4.365,5.455L-4.375,5.455C-4.319,7.957 -4.338,10.462 -4.017,12.934C-2.777,22.451 -1.425,31.96 0,41.459" style="fill:rgb(40,50,112);fill-rule:nonzero;"/>
                </g>
                <g transform="matrix(1,0,0,1,564.532,412.084)">
                    <path d="M0,6.61C-0.116,0.369 4.939,-5.848 4.516,-21.508C4.366,-27.001 1.478,-31.685 -16.181,-27.746C-33.843,-31.685 -37.725,-26.034 -37.874,-20.541C-38.296,-4.885 -32.245,0.369 -32.361,6.61C-32.476,12.849 -35.123,35.839 -35.123,35.839L-16.251,38.277L-16.251,38.295L-16.181,38.285L-16.112,38.295L-16.112,38.277L2.759,35.839C2.759,35.839 0.115,12.849 0,6.61" style="fill:white;fill-rule:nonzero;"/>
                </g>
                <g transform="matrix(1,0,0,1,519.985,389.337)">
                    <path d="M0,14.049L12.584,20.095L42.493,20.973L53.975,12.054C53.975,12.054 52.128,-5.916 46.67,-4.941C41.213,-3.967 9.818,-4.993 9.818,-4.993C9.818,-4.993 3.748,-6.924 0,14.049" style="fill:white;fill-rule:nonzero;"/>
                </g>
                <g transform="matrix(-0.316436,-0.948614,-0.948614,0.316436,545.898,372.844)">
                    <path d="M-5.215,-6.126C-5.221,-6.007 -1.813,1.968 -1.407,2.667C-2.573,3.165 -3.927,3.539 -5.215,3.98C-5.333,2.137 -6.026,-2.472 -6.828,-5.581C-6.303,-5.774 -5.768,-5.963 -5.215,-6.126" style="fill:rgb(255,213,166);fill-rule:nonzero;"/>
                </g>
                <g transform="matrix(1,0,0,1,563.334,382.737)">
                    <path d="M0,2.477C-1.576,2.094 -4.053,1.884 -6.029,1.453C-7.833,1.058 -9.395,-0.099 -9.769,-1.665C-10.061,-2.886 -10.026,-4.145 -9.985,-5.441C-13.222,-5.21 -17.857,-4.378 -19.558,-3.922C-19.57,-3.471 -19.59,-3.025 -19.633,-2.592C-19.917,0.13 -21.613,1.64 -23.789,1.818C-25.383,1.953 -27.36,1.865 -28.882,2.556C-25.95,2.929 -23.376,4.134 -20.863,5.394C-16.305,7.677 -10.402,7.918 -5.998,5.3C-3.678,3.922 -1.31,3.139 1.547,3.274C1.2,2.795 0.587,2.621 0,2.477" style="fill:rgb(252,222,171);fill-rule:nonzero;"/>
                </g>
                <g transform="matrix(1,0,0,1,520.229,373.838)">
                    <path d="M0,-71.097C-1.741,-72.908 -1.234,-74.979 -1.58,-77.147C-3.489,-74.303 -4.796,-71.469 -5.385,-68.394C-5.959,-65.379 -6.272,-62.313 -6.733,-59.047C-8.151,-60.317 -7.794,-61.856 -7.907,-63.546C-9.474,-61.369 -10,-59.1 -10.357,-56.798C-10.718,-54.465 -10.962,-52.114 -11.299,-49.432C-12.644,-51.379 -12.342,-53.299 -12.676,-55.188C-12.858,-54.528 -13.093,-53.878 -13.213,-53.21C-13.967,-49.057 -13.911,-44.921 -12.913,-40.809C-12.61,-39.554 -14.028,-37.71 -12.793,-37.05C-11.571,-36.398 -12.809,-33.106 -11.72,-32.231C-11.426,-31.996 -9.311,-26.984 -9.037,-26.657C-0.318,-15.744 19.937,-0.307 19.937,-0.38C36.605,17.429 58.778,-38.251 60.557,-38.344C60.812,-38.356 61.215,-38.937 61.25,-39.28C61.552,-42.283 61.927,-45.291 62.008,-48.305C62.1,-51.739 61.941,-55.181 61.821,-58.618C61.804,-59.084 61.503,-59.685 61.128,-59.965C60.435,-60.482 60.12,-61.054 60.055,-61.881C59.561,-68.075 55.814,-72.422 51.148,-76.238C50.31,-76.925 49.432,-77.56 48.401,-78.103C49.14,-76.624 49.879,-75.146 50.617,-73.669C50.532,-73.597 50.444,-73.525 50.355,-73.456C44.643,-79.534 38.229,-84.63 29.769,-87.219C30.623,-85.849 31.403,-84.594 32.306,-83.142C30.317,-84.112 28.573,-84.96 26.834,-85.807C26.767,-85.719 26.7,-85.632 26.631,-85.545C27.715,-84.026 29.357,-82.776 29.357,-80.317C25.218,-83.533 21.118,-86.344 15.885,-87.744C16.518,-85.708 17.085,-83.874 17.748,-81.749C16.712,-82.465 15.923,-83.008 15.012,-83.639C14.798,-82.889 14.609,-82.223 14.372,-81.382C11.846,-83.358 10.452,-85.898 9.093,-88.526C7.866,-84.874 8.53,-81.17 8.695,-77.464C7.414,-77.967 7.027,-78.658 4.658,-84.197C4.522,-81.763 4.283,-79.324 4.274,-76.888C4.269,-74.466 4.493,-72.043 4.616,-69.621C4.504,-69.564 4.393,-69.509 4.281,-69.451C3.773,-70.365 3.263,-71.279 2.696,-72.302C2.572,-71.53 2.457,-70.784 2.303,-69.805C1.066,-70.744 1.222,-72.124 0.627,-73.355C0.404,-72.549 0.239,-71.948 0,-71.097" style="fill:rgb(45,40,41);"/>
                </g>
                <g transform="matrix(1,0,0,1,518.976,357.423)">
                    <path d="M0,-10.533C-0.11,-11.289 0.147,-12.368 -0.926,-12.724C-2.314,-13.184 -3.741,-13.54 -5.125,-12.702C-5.633,-12.391 -7.071,-10.405 -7.426,-9.153C-8.476,-5.486 -7.187,-2.51 -4.333,-0.203C-3.009,0.865 1.917,2.811 3.821,3.007C3.871,1.889 0.936,-2.088 0,-10.533" style="fill:rgb(253,219,171);"/>
                </g>
                <g transform="matrix(1,0,0,1,517.685,355.663)">
                    <path d="M0,-5.569C-1.529,-6.983 -2.993,-7.153 -4.27,-5.726C-3.297,-5.309 -2.17,-5.498 -1.309,-4.798C-0.875,-4.443 -0.659,-4.182 -0.757,-3.566C-1.22,-0.601 -0.74,0.118 2.253,0.857C2.854,1.007 3.398,1.146 3.838,1.584C3.124,-0.001 2.388,-3.358 0,-5.569" style="fill:rgb(249,193,134);"/>
                </g>
                <g transform="matrix(1,0,0,1,576.602,354.578)">
                    <path d="M0,-10.485C0.028,-11.247 -0.343,-12.294 0.688,-12.759C2.023,-13.364 3.404,-13.868 4.867,-13.18C5.404,-12.926 7.043,-11.102 7.529,-9.896C8.958,-6.356 7.989,-3.262 5.396,-0.666C4.196,0.535 -0.501,2.987 -2.378,3.383C-2.541,2.278 -0.042,-1.985 0,-10.485" style="fill:rgb(253,219,171);"/>
                </g>
                <g transform="matrix(1,0,0,1,578.221,352.775)">
                    <path d="M0,-5.632C1.372,-7.197 2.808,-7.52 4.228,-6.236C3.307,-5.72 2.167,-5.787 1.384,-5.002C0.986,-4.604 0.801,-4.32 0.963,-3.717C1.735,-0.818 1.335,-0.053 -1.565,0.998C-2.148,1.208 -2.671,1.407 -3.062,1.888C-2.522,0.237 -2.141,-3.18 0,-5.632" style="fill:rgb(249,193,134);"/>
                </g>
                <g transform="matrix(1,0,0,1,574.872,353.404)">
                    <path d="M0,-8.153C0,10.079 -11.931,24.862 -26.645,24.862C-41.36,24.862 -53.288,10.079 -53.288,-8.153C-53.288,-18.831 -46.436,-32.421 -46.436,-32.421C-46.436,-32.421 -32.058,-30.538 -25.999,-31.23C-10.451,-33.015 0,-26.389 0,-8.153" style="fill:rgb(255,221,173);fill-rule:nonzero;"/>
                </g>
                <g transform="matrix(1,0,0,1,555.278,376.874)">
                    <path d="M0,-53.61C0,-53.61 -12.615,-35.633 0,-18.511C0,-18.511 0.035,-16.596 -3.831,-15.684C-3.831,-15.684 -6.366,-6.883 -2.403,0.892C-2.403,0.892 17.47,-4.282 19.057,-29.639C19.057,-29.639 19.886,-54.502 0,-53.61" style="fill:rgb(255,213,166);"/>
                </g>
                <g transform="matrix(0.083882,0.996476,0.996476,-0.083882,549.877,355.095)">
                    <path d="M4.634,-4.259C5.202,-4.224 5.665,-2.114 5.663,0.455C5.666,3.023 5.207,5.074 4.634,5.039C4.068,5.004 3.602,2.892 3.604,0.326C3.601,-2.242 4.064,-4.294 4.634,-4.259" style="fill:rgb(186,111,69);"/>
                </g>
                <g transform="matrix(-0.0115314,0.999934,0.999934,0.0115314,550.41,362.483)">
                    <path d="M4.468,-5.918C4.854,-5.962 6.265,-3.671 6.265,-0.822C6.262,2.028 4.852,4.358 4.468,4.401C4.081,4.444 4.865,2.188 4.865,-0.664C4.865,-3.512 4.083,-5.874 4.468,-5.918" style="fill:rgb(152,91,54);fill-rule:nonzero;"/>
                </g>
                <g transform="matrix(0.00438253,0.99999,0.99999,-0.00438253,550.421,369.657)">
                    <path d="M1.829,-2.042C1.89,-2.06 2.117,-1.211 2.117,-0.139C2.117,0.931 1.891,1.817 1.829,1.837C1.767,1.856 1.893,1.002 1.892,-0.07C1.891,-1.14 1.767,-2.021 1.829,-2.042" style="fill:rgb(152,91,54);fill-rule:nonzero;"/>
                </g>
                <g transform="matrix(1,0,0,1,540.741,333.317)">
                    <path d="M0,6.353C-2.999,1.361 -10.457,0 -13.334,5.458C-8.601,4.383 -4.51,4.989 0,6.353"/>
                </g>
                <g transform="matrix(1,0,0,1,554.994,333.104)">
                    <path d="M0,6.745C2.877,1.348 10.332,0 13.362,6.011C8.585,4.75 4.491,5.339 0,6.745"/>
                </g>
                <g transform="matrix(0.694395,-0.719594,-0.719594,-0.694395,541.435,345.387)">
                    <path d="M-4.749,-2.963C-4.749,-2.963 -2.063,-1.027 -1.432,1.534C-0.916,3.637 -1.254,7.166 -4.749,8.664C-8.247,10.164 -11.35,7.618 -11.531,5.534C-11.724,3.319 -8.656,-0.83 -4.749,-2.963" style="fill:rgb(244,246,245);"/>
                </g>
                <g transform="matrix(1,0,0,1,528.879,340.835)">
                    <path d="M0,7.772C0,7.772 -0.257,6.706 0.114,5.415C0.335,4.638 0.89,3.098 2.88,2.107C4.862,1.118 6.859,1.482 8.757,2.791C9.357,3.203 10.369,4.43 11.112,6.108C9.957,1.538 6.614,0 3.846,0.556C2.419,0.845 1.084,1.835 0.59,2.332C-0.096,3.016 -1.173,5.302 0,7.772" style="fill:rgb(12,10,9);"/>
                </g>
                <g transform="matrix(0.135035,0.990841,0.990841,-0.135035,533.446,342.259)">
                    <path d="M4.509,-3.936C6.88,-3.892 8.797,-1.818 8.798,0.697C8.795,3.209 6.879,5.212 4.509,5.165C2.14,5.12 0.221,3.046 0.22,0.531C0.221,-1.98 2.14,-3.983 4.509,-3.936" style="fill:rgb(50,6,18);"/>
                </g>
                <g transform="matrix(0.13498,0.990848,0.990848,-0.13498,534.036,344.381)">
                    <path d="M2.327,-2.033C3.55,-2.009 4.541,-0.94 4.541,0.358C4.542,1.657 3.551,2.689 2.327,2.664C1.104,2.641 0.115,1.571 0.114,0.274C0.112,-1.023 1.104,-2.056 2.327,-2.033"/>
                </g>
                <g transform="matrix(-0.999796,0.0201822,0.0201822,0.999796,537.073,348.592)">
                    <path d="M0.09,-1.916C0.857,-1.954 1.074,-1.498 1.075,-0.907C1.076,-0.313 0.713,0.003 0.09,0.016C-0.601,0.036 -0.963,-0.301 -0.968,-0.943C-0.976,-1.598 -0.571,-1.887 0.09,-1.916" style="fill:rgb(244,246,245);"/>
                </g>
                <g transform="matrix(0.672283,0.740294,0.740294,-0.672283,554.529,344.775)">
                    <path d="M4.89,-3.102C4.89,-3.102 2.206,-1.167 1.576,1.396C1.06,3.498 1.394,7.032 4.89,8.528C8.384,10.028 11.487,7.482 11.669,5.396C11.864,3.182 8.797,-0.967 4.89,-3.102" style="fill:rgb(244,246,245);"/>
                </g>
                <g transform="matrix(0.164595,-0.986361,-0.986361,-0.164595,563.021,342.13)">
                    <path d="M-4.491,-3.801C-6.86,-3.754 -8.778,-1.678 -8.782,0.836C-8.782,3.349 -6.86,5.347 -4.491,5.3C-2.123,5.256 -0.201,3.179 -0.201,0.666C-0.201,-1.845 -2.12,-3.845 -4.491,-3.801" style="fill:rgb(50,6,18);"/>
                </g>
                <g transform="matrix(0.164572,-0.986365,-0.986365,-0.164572,562.303,344.214)">
                    <path d="M-2.317,-1.962C-3.539,-1.937 -4.531,-0.868 -4.53,0.431C-4.53,1.727 -3.54,2.758 -2.317,2.735C-1.094,2.713 -0.101,1.639 -0.103,0.342C-0.104,-0.955 -1.095,-1.985 -2.317,-1.962"/>
                </g>
                <g transform="matrix(-0.998662,-0.0517173,-0.0517173,0.998662,562.992,348.397)">
                    <path d="M-0.119,-1.945C-0.887,-1.985 -1.105,-1.531 -1.104,-0.938C-1.108,-0.346 -0.745,-0.028 -0.119,-0.011C0.567,0.008 0.932,-0.329 0.937,-0.97C0.944,-1.627 0.54,-1.916 -0.119,-1.945" style="fill:rgb(244,246,245);"/>
                </g>
                <g transform="matrix(1,0,0,1,567.054,340.626)">
                    <path d="M0,7.909C0,7.909 0.282,6.85 -0.062,5.554C-0.269,4.769 -0.788,3.219 -2.76,2.185C-4.719,1.157 -6.722,1.48 -8.648,2.749C-9.258,3.147 -10.298,4.353 -11.072,6.016C-9.822,1.471 -6.449,0 -3.691,0.616C-2.271,0.932 -0.957,1.95 -0.473,2.457C0.198,3.155 1.226,5.467 0,7.909" style="fill:rgb(12,10,9);"/>
                </g>
                <g transform="matrix(1,0,0,1,540.207,393.1)">
                    <path d="M0,-9.221C0,-9.221 9.574,-0.79 18.092,-9.571L23.08,-9.221L25.208,-6.764L11.769,0.35L-0.971,-0.44L-6.143,-6.06L-5.51,-9.133L0,-9.221Z" style="fill:white;fill-rule:nonzero;"/>
                </g>
                <g transform="matrix(1,0,0,1,525.468,351.346)">
                    <path d="M0,-4.563C-0.19,-7.577 0.329,-8.974 2.156,-9.466C4.991,-10.228 7.874,-10.038 10.785,-9.828C12.893,-9.674 14.924,-9.235 16.919,-8.63C18.724,-8.087 19.453,-6.883 19.431,-4.977C19.411,-3.2 18.986,-1.49 18.315,0.122C17.184,2.837 15.362,4.968 12.208,5.534C9.257,5.867 7.4,5.569 4.962,4.964C0.284,3.81 0.124,-2.787 0,-4.563M-4.306,-9.29C-4.126,-7.798 -3.093,-6.848 -2.619,-5.603C-1.966,-3.882 -1.649,-2.036 -1.179,-0.243C-0.672,1.696 -0.259,3.788 1.441,5.04C2.295,5.669 3.269,6.075 4.304,6.403C7.979,7.56 11.718,7.61 15.133,5.989C17.202,5.006 18.557,3.061 18.924,2.444C20.252,0.213 20.844,-2.449 22.404,-4.523C22.82,-5.071 23.481,-5.217 24.031,-5.224L24.031,-8.938C22.813,-8.943 21.586,-9.155 20.347,-9.517C13.456,-11.517 6.421,-12.173 -0.732,-11.575C-1.412,-11.21 -2.143,-11.287 -2.871,-11.317C-4.186,-11.225 -4.467,-10.633 -4.306,-9.29" style="fill:rgb(17,17,17);"/>
                </g>
                <g transform="matrix(1,0,0,1,568.11,341.82)">
                    <path d="M0,14.49C-2.438,15.096 -4.297,15.393 -7.246,15.061C-10.397,14.495 -12.223,12.364 -13.353,9.649C-14.023,8.037 -14.448,6.326 -14.468,4.549C-14.491,2.644 -13.764,1.44 -11.958,0.896C-9.961,0.291 -7.93,-0.148 -5.822,-0.301C-2.912,-0.512 -0.028,-0.701 2.807,0.06C4.634,0.552 5.155,1.949 4.963,4.963C4.837,6.739 4.679,13.336 0,14.49M7.833,-1.791C7.106,-1.761 6.375,-1.683 5.692,-2.048C-1.459,-2.647 -8.493,-1.991 -15.386,0.01C-16.627,0.371 -17.85,0.584 -19.068,0.588L-19.068,4.303C-18.519,4.31 -17.855,4.456 -17.442,5.004C-15.882,7.077 -15.288,9.74 -13.964,11.97C-13.598,12.587 -12.237,14.533 -10.169,15.516C-6.755,17.137 -3.018,17.086 0.658,15.929C1.694,15.601 2.667,15.195 3.521,14.566C5.221,13.314 5.632,11.222 6.141,9.283C6.609,7.491 6.925,5.644 7.582,3.923C8.054,2.679 9.089,1.728 9.268,0.237C9.429,-1.107 9.152,-1.699 7.833,-1.791" style="fill:rgb(17,17,17);"/>
                </g>
                <g transform="matrix(1,0,0,1,568.708,445.59)">
                    <path d="M0,-54.048C-0.075,-56.807 -1.093,-59.606 -4.325,-61.209C-3.571,-61.232 -3.145,-61.246 -3.145,-61.246C-3.145,-61.246 2.725,-63.114 6.485,-43.226C6.54,-42.934 11.636,-25.021 12.986,-20.19C13.202,-19.419 13.32,-18.626 13.34,-17.826L13.982,8.517C13.99,8.822 13.729,9.066 13.425,9.039L8.181,8.564C7.946,8.542 7.756,8.363 7.721,8.13L4.186,-18.16C4.11,-18.667 3.995,-19.166 3.84,-19.654L-2.314,-37.887C-0.992,-41.803 0.195,-46.813 0,-54.048" style="fill:rgb(209,227,238);fill-rule:nonzero;"/>
                </g>
                <g transform="matrix(1,0,0,1,564.388,474.866)">
                    <path d="M0,-65.434L3.598,-67.162C2.058,-62.604 0.337,-59.53 0.399,-56.172C0.5,-50.683 6.243,-3.941 6.568,-0.769C6.607,-0.393 6.339,-0.057 5.964,-0.009L-12.832,2.164C-13.332,2.228 -13.776,1.843 -13.779,1.339C-13.804,-1.945 -19.653,-36.472 -16.85,-52.721C-16.279,-56.031 -9.139,-67.662 -9.139,-67.662L0,-65.434Z" style="fill:rgb(209,227,238);fill-rule:nonzero;"/>
                </g>
                <g transform="matrix(1,0,0,1,554.571,405.447)">
                    <path d="M0,-19.982L-0.556,-22.68C7.682,-23.967 8.263,-22.624 11.404,-21.066C14.637,-19.462 15.654,-16.663 15.729,-13.904C15.925,-6.67 14.737,-1.659 13.415,2.257L9.818,3.985L0.679,1.757L2.878,-4.363L0.499,-19.991C0.334,-19.987 0.169,-19.984 0,-19.982" style="fill:rgb(209,227,238);fill-rule:nonzero;"/>
                </g>
                <g transform="matrix(1,0,0,1,556.078,419.608)">
                    <path d="M0,-36.634C3.221,-32.564 4.697,-20.354 4.851,-18.769C5,-17.249 4.579,-15.352 3.757,-14.448L-8.603,2.289L-1.356,-15.245C-0.431,-19.768 -0.204,-29.308 -1.069,-33.842L-2.063,-36.842L-2.063,-38.923C-2.063,-38.923 -0.478,-37.238 0,-36.634" style="fill:rgb(245,252,255);fill-rule:nonzero;"/>
                </g>
                <g transform="matrix(1,0,0,1,532.664,474.866)">
                    <path d="M0,-65.434L-3.598,-67.162C-2.058,-62.604 -0.337,-59.53 -0.399,-56.172C-0.5,-50.683 -7.422,-3.941 -7.746,-0.769C-7.785,-0.393 -7.517,-0.057 -7.142,-0.009L15.188,2.164C15.688,2.228 16.132,1.843 16.135,1.339C16.16,-1.945 17.242,-46.205 16.161,-52.474C15.59,-55.784 9.139,-67.662 9.139,-67.662L0,-65.434Z" style="fill:rgb(228,237,242);fill-rule:nonzero;"/>
                </g>
                <g transform="matrix(1,0,0,1,526.752,445.59)">
                    <path d="M0,-54.048C0.075,-56.807 1.093,-59.606 4.325,-61.209C3.571,-61.232 3.145,-61.246 3.145,-61.246C3.145,-61.246 -2.725,-63.114 -6.484,-43.226C-6.54,-42.934 -11.636,-25.021 -12.986,-20.19C-13.202,-19.419 -13.32,-18.626 -13.34,-17.826L-13.982,8.517C-13.99,8.822 -13.729,9.066 -13.425,9.039L-8.181,8.564C-7.946,8.542 -7.756,8.363 -7.721,8.13L-4.186,-18.16C-4.11,-18.667 -3.994,-19.166 -3.84,-19.654L2.314,-37.887C0.992,-41.803 -0.195,-46.813 0,-54.048" style="fill:rgb(228,237,242);fill-rule:nonzero;"/>
                </g>
                <g transform="matrix(1,0,0,1,542.482,405.447)">
                    <path d="M0,-19.982L0.556,-22.68C-7.682,-23.967 -8.263,-22.624 -11.405,-21.066C-14.637,-19.462 -15.654,-16.663 -15.729,-13.904C-15.925,-6.67 -14.737,-1.659 -13.415,2.257L-9.818,3.985L-0.679,1.757L-2.878,-4.363L-0.499,-19.991C-0.334,-19.987 -0.17,-19.984 0,-19.982" style="fill:rgb(228,237,242);fill-rule:nonzero;"/>
                </g>
                <g transform="matrix(1,0,0,1,540.974,420.103)">
                    <path d="M0,-37.129C-3.22,-33.059 -4.696,-20.849 -4.851,-19.264C-5,-17.744 -4.579,-15.847 -3.757,-14.943L7.85,2.289L7.385,0.44L1.356,-15.74C0.431,-20.263 0.204,-29.803 1.069,-34.337L2.063,-37.337L2.063,-39.418C2.063,-39.418 0.478,-37.733 0,-37.129" style="fill:rgb(209,227,238);fill-rule:nonzero;"/>
                </g>
                <g transform="matrix(1,0,0,1,514.144,544.183)">
                    <path d="M0,5.991C0.108,5.636 0.316,5.34 0.524,5.035C0.732,4.733 1.056,4.411 1.34,4.257C2.131,3.832 2.934,3.359 3.79,3.091C4.046,3.009 4.608,2.848 4.628,2.843C7.946,2.081 15.089,-2.692 15.134,-2.904C16.704,-0.807 21.015,-0.393 23.243,-3.601C25.237,-3.122 25.751,-0.637 26.051,0.946C26.107,1.24 26.229,1.528 26.252,1.824C26.291,2.388 26.304,2.957 26.279,3.522C26.262,3.875 26.038,4.166 25.799,4.415C25.626,4.592 25.419,4.733 25.231,4.892L25.052,4.945L23.562,5.381L23.418,5.501C21.927,5.897 20.483,6.434 19.157,7.212C17.622,8.113 15.95,8.608 14.271,9.11C12.896,9.521 11.49,9.592 10.068,9.559C8.243,9.518 6.426,9.398 4.622,9.114C3.469,8.934 2.323,8.71 1.253,8.221C0.971,8.093 0.704,7.921 0.453,7.738C0.158,7.524 -0.026,7.228 -0.085,6.853C-0.196,6.155 -0.212,6.676 0,5.991" style="fill-rule:nonzero;"/>
                </g>
                <g transform="matrix(1,0,0,1,588.012,544.183)">
                    <path d="M0,5.991C-0.108,5.636 -0.316,5.34 -0.524,5.035C-0.732,4.733 -1.056,4.411 -1.34,4.257C-2.131,3.832 -2.934,3.359 -3.79,3.091C-4.046,3.009 -4.608,2.848 -4.628,2.843C-7.946,2.081 -15.089,-2.692 -15.134,-2.904C-16.704,-0.807 -21.015,-0.393 -23.243,-3.601C-25.237,-3.122 -25.751,-0.637 -26.051,0.946C-26.107,1.24 -26.229,1.528 -26.252,1.824C-26.291,2.388 -26.304,2.957 -26.279,3.522C-26.262,3.875 -26.038,4.166 -25.799,4.415C-25.626,4.592 -25.419,4.733 -25.231,4.892L-25.052,4.945L-23.562,5.381L-23.418,5.501C-21.927,5.897 -20.483,6.434 -19.157,7.212C-17.622,8.113 -15.951,8.608 -14.271,9.11C-12.896,9.521 -11.49,9.592 -10.068,9.559C-8.243,9.518 -6.426,9.398 -4.622,9.114C-3.469,8.934 -2.323,8.71 -1.253,8.221C-0.971,8.093 -0.704,7.921 -0.453,7.738C-0.158,7.524 0.026,7.228 0.085,6.853C0.196,6.155 0.212,6.676 0,5.991" style="fill-rule:nonzero;"/>
                </g>
                <g transform="matrix(1,0,0,1,528.165,449.602)">
                    <path d="M0,16.525C-0.101,16.525 -0.197,16.464 -0.237,16.364C-0.29,16.233 -0.226,16.084 -0.095,16.032C0.943,15.616 2.923,14.555 4.527,12.111C4.83,11.622 5.59,5.531 6.017,1.643L0.378,0.528C0.24,0.501 0.15,0.366 0.177,0.228C0.205,0.089 0.34,0 0.478,0.027L6.576,1.233L6.551,1.466C6.365,3.166 5.418,11.685 4.954,12.391C3.274,14.952 1.188,16.069 0.095,16.507C0.064,16.519 0.032,16.525 0,16.525" style="fill:rgb(168,203,222);fill-rule:nonzero;"/>
                </g>
                <g transform="matrix(1,0,0,1,568.29,449.602)">
                    <path d="M0,16.525C-0.032,16.525 -0.064,16.519 -0.095,16.507C-1.188,16.069 -3.272,14.953 -4.953,12.391C-5.418,11.685 -6.365,3.166 -6.551,1.466L-6.576,1.233L-0.478,0.027C-0.34,0 -0.205,0.089 -0.178,0.228C-0.15,0.366 -0.24,0.501 -0.379,0.528L-6.017,1.643C-5.589,5.531 -4.829,11.622 -4.526,12.111C-2.921,14.556 -0.942,15.617 0.095,16.032C0.226,16.084 0.29,16.233 0.237,16.364C0.197,16.464 0.101,16.525 0,16.525" style="fill:rgb(168,203,222);fill-rule:nonzero;"/>
                </g>
                <g transform="matrix(1,0,0,1,556.185,381.332)">
                    <path d="M0,37.412C-0.044,36.84 -0.123,36.186 -0.213,35.429C-0.667,31.649 -1.427,25.323 0.446,14.422C1.264,9.664 1.114,3.751 -0.756,1.655C-1.233,1.121 -1.782,0.88 -2.438,0.916L-2.487,0.052C-1.564,0 -0.765,0.346 -0.11,1.079C2.038,3.486 2.126,9.759 1.299,14.569C-0.552,25.345 0.198,31.593 0.646,35.325C0.738,36.092 0.818,36.755 0.863,37.346L0,37.412Z" style="fill:rgb(69,79,86);fill-rule:nonzero;"/>
                </g>
                <g transform="matrix(0,1,1,0,556.624,416.655)">
                    <path d="M3.291,-3.292C5.11,-3.292 6.583,-1.819 6.583,-0.001C6.583,1.816 5.11,3.291 3.291,3.291C1.473,3.291 0,1.816 0,-0.001C0,-1.819 1.473,-3.292 3.291,-3.292" style="fill:rgb(156,155,155);fill-rule:nonzero;"/>
                </g>
                <g transform="matrix(0,1,1,0,556.624,418.309)">
                    <path d="M1.638,-1.638C2.543,-1.638 3.277,-0.904 3.277,0.001C3.277,0.905 2.543,1.638 1.638,1.638C0.733,1.638 -0.001,0.905 -0.001,0.001C-0.001,-0.904 0.733,-1.638 1.638,-1.638" style="fill:rgb(192,191,191);fill-rule:nonzero;"/>
                </g>
                <g transform="matrix(1,0,0,1,542.337,400.793)">
                    <path d="M0,10.591L-1.65,10.068C-1.377,9.204 -0.747,6.653 -1.107,5.253C-1.632,3.197 -4.045,2.073 -4.754,1.783C-5.217,1.872 -6.35,2.121 -7.47,2.598C-8.655,3.102 -10.08,3.97 -10.135,5.247C-10.158,5.779 -9.81,8.303 -9.586,9.769L-11.297,10.031C-11.398,9.37 -11.901,6.031 -11.865,5.173C-11.812,3.964 -11.12,2.259 -8.117,0.991C-6.473,0.298 -4.87,0.044 -4.802,0.033L-4.592,0L-4.39,0.069C-4.223,0.126 -0.277,1.506 0.57,4.823C1.117,6.954 0.116,10.225 0,10.591" style="fill:rgb(69,79,86);fill-rule:nonzero;"/>
                </g>
                <g transform="matrix(1,0,0,1,538.848,411.039)">
                    <path d="M0,6.707L-0.005,6.707L0.008,5.842C0.033,5.84 0.848,5.799 1.259,4.363C1.687,2.869 1.89,1.812 2.105,0.693C2.149,0.467 2.193,0.237 2.24,0L3.089,0.167C3.043,0.403 2.999,0.632 2.955,0.857C2.736,1.995 2.53,3.07 2.091,4.601C1.501,6.664 0.112,6.707 0,6.707" style="fill:rgb(198,198,197);fill-rule:nonzero;"/>
                </g>
                <g transform="matrix(0.561244,0.82765,0.82765,-0.561244,536.755,417.017)">
                    <path d="M1.02,-0.508C1.259,-0.439 2.132,1.369 1.982,1.626C1.831,1.887 1.23,2.132 1.02,2.06C0.81,1.99 -0.186,0.303 -0.213,0.048C-0.239,-0.208 0.782,-0.577 1.02,-0.508" style="fill:rgb(156,155,155);fill-rule:nonzero;"/>
                </g>
                <g transform="matrix(1,0,0,1,534.014,410.644)">
                    <path d="M0,6.869C-0.061,6.865 -1.49,6.745 -1.918,4.598C-2.229,3.031 -2.347,1.94 -2.472,0.785C-2.497,0.561 -2.521,0.333 -2.548,0.097L-1.688,0C-1.661,0.237 -1.636,0.466 -1.612,0.692C-1.489,1.828 -1.373,2.9 -1.069,4.429C-0.777,5.894 0.033,6.002 0.067,6.006L0,6.869Z" style="fill:rgb(198,198,197);fill-rule:nonzero;"/>
                </g>
                <g transform="matrix(0.627303,-0.778775,-0.778775,-0.627303,536.188,417.066)">
                    <path d="M-0.957,-0.413C-1.197,-0.343 -2.069,1.464 -1.92,1.723C-1.769,1.981 -1.167,2.225 -0.957,2.156C-0.748,2.085 0.249,0.398 0.275,0.143C0.302,-0.111 -0.719,-0.484 -0.957,-0.413" style="fill:rgb(156,155,155);fill-rule:nonzero;"/>
                </g>
                <g transform="matrix(1,0,0,1,538.097,381.374)">
                    <path d="M0,20.365L-0.858,20.25C-0.687,18.978 -0.552,17.75 -0.409,16.45C-0.033,13.024 0.357,9.482 1.43,5.121C2.605,0.345 5.043,0 5.762,0.005L5.753,0.871L5.733,0.871C4.273,0.871 2.947,2.575 2.27,5.328C1.211,9.633 0.825,13.147 0.451,16.545C0.307,17.85 0.172,19.083 0,20.365" style="fill:rgb(69,79,86);fill-rule:nonzero;"/>
                </g>
            </g>
        </g>
    </g>
</svg>
