<?xml version="1.0" encoding="UTF-8" standalone="no"?>
<!DOCTYPE svg PUBLIC "-//W3C//DTD SVG 1.1//EN" "http://www.w3.org/Graphics/SVG/1.1/DTD/svg11.dtd">
<svg width="100%" height="100%" viewBox="0 0 107 268" version="1.1" xmlns="http://www.w3.org/2000/svg" xmlns:xlink="http://www.w3.org/1999/xlink" xml:space="preserve" xmlns:serif="http://www.serif.com/" style="fill-rule:evenodd;clip-rule:evenodd;stroke-linejoin:round;stroke-miterlimit:2;">
    <g transform="matrix(1,0,0,1,-2160,-1083)">
        <g transform="matrix(1,0,0,1,1536.75,864.001)">
            <g id="mujer1">
                <g transform="matrix(1,0,0,1,629.283,285.846)">
                    <path d="M0,37.512C-3.465,39.962 -5.494,43.007 -5.638,47.042C-5.877,53.804 -3.39,59.735 0.351,65.202C1.27,66.546 2.355,67.798 3.499,68.957C8.872,74.398 14.743,75.462 21.726,72.338C22.336,72.067 22.947,71.794 23.679,71.471C24.3,73.657 24.93,75.744 25.485,77.846C27.386,85.006 31.306,91.012 36.206,96.431C38.764,99.256 42.209,100.579 45.733,101.663C51.203,103.345 56.831,104.101 62.538,104.42C68.816,104.771 75.054,104.65 81.227,103.348C87.93,101.937 92.597,96.368 92.678,89.933C90.706,90.492 88.71,91.264 86.646,91.59C84.255,91.968 82.376,90.721 81.493,88.562C80.741,86.718 80.243,84.69 80.062,82.703C79.465,76.115 81.037,69.836 83.014,63.609C87.201,50.417 89.688,36.811 92.592,23.311C94.125,16.199 95.443,9.041 97.014,1.941C97.914,-2.12 99.424,-6.058 100.15,-10.141C102.528,-23.469 98.292,-34.13 86.863,-41.724C78.128,-47.531 68.739,-51.955 58.409,-53.806C54.23,-54.557 51.31,-55.941 48.767,-59.509C45.039,-64.741 39.68,-67.259 32.923,-66.775C24.417,-66.169 16.134,-64.836 8.978,-59.938C1.647,-54.923 -2.909,-48.127 -3.338,-38.873C-3.924,-26.258 -1.905,-13.968 1.417,-1.924C4.483,9.207 8.37,20.108 11.714,31.162C12.801,34.757 13.425,38.501 14.065,42.21C14.495,44.724 13.433,46.971 12.117,49.062C11.4,50.199 10.388,50.78 8.996,50.719C8.462,50.697 7.857,50.767 7.39,51.003C5.571,51.928 5.115,51.88 3.932,50.189C1.881,47.25 0.934,43.904 0.407,40.41C0.274,39.536 0.159,38.66 0,37.512" style="fill:rgb(193,20,3);"/>
                </g>
                <g transform="matrix(1,0,0,1,651.275,283.08)">
                    <path d="M0,-2.63C-1.43,0.928 -0.891,4.288 0.414,7.705C3.137,14.84 8.391,19.651 14.743,23.466C17.249,24.973 19.865,26.275 22.568,27.401C25.114,28.46 26.766,30.183 26.297,33.675C26.241,34.096 26.182,34.571 26.656,34.855C28.628,33.253 28.796,30.921 29.201,28.686L34.759,28.817C34.735,29.308 34.72,29.767 34.722,30.118C34.863,31.5 35.106,32.855 35.696,34.128C35.993,34.758 36.382,35.273 37.114,35.416C36.117,31.594 37.608,28.961 40.899,27.005C43.54,25.435 46.279,24.058 48.975,22.599C52.183,20.86 55.429,19.22 58.106,16.643C60.211,14.618 61.198,12.028 61.936,9.363C63.935,2.166 63.599,-5.042 61.651,-12.213C61.37,-13.244 60.57,-13.64 59.757,-14.081C53.558,-17.445 46.843,-19.496 40.203,-21.743C34.627,-23.63 29.005,-25.408 23.754,-28.133C19.26,-30.465 15.231,-33.372 12.285,-37.595C12.184,-37.741 12.006,-37.828 11.742,-38.046C11.264,-34.032 10.555,-30.202 9.592,-26.417C8.323,-21.441 6.368,-16.733 4.171,-12.112C2.687,-8.99 1.288,-5.838 0,-2.63" style="fill:rgb(193,20,3);fill-rule:nonzero;"/>
                </g>
                <g transform="matrix(1,0,0,1,649.437,289.058)">
                    <path d="M0,-9.893C0.065,-10.625 0.549,-11.579 -0.379,-12.152C-1.579,-12.893 -2.837,-13.546 -4.322,-13.07C-4.864,-12.893 -6.655,-11.353 -7.27,-10.26C-9.072,-7.056 -8.531,-3.981 -6.371,-1.178C-5.374,0.119 -1.187,3.041 0.554,3.653C0.85,2.617 -1.013,-1.766 0,-9.893" style="fill:rgb(253,219,171);"/>
                </g>
                <g transform="matrix(1,0,0,1,647.51,287.29)">
                    <path d="M0,-5.409C-1.116,-7.078 -2.45,-7.561 -3.964,-6.512C-3.146,-5.904 -2.048,-5.83 -1.401,-4.98C-1.069,-4.549 -0.927,-4.256 -1.155,-3.701C-2.254,-1.025 -1.964,-0.246 0.677,1.117C1.208,1.391 1.685,1.644 1.997,2.152C1.685,0.51 1.745,-2.806 0,-5.409" style="fill:rgb(249,193,134);"/>
                </g>
                <g transform="matrix(1,0,0,1,659.803,288.324)">
                    <path d="M0,-19.758C3.427,-25.535 5.444,-31.651 5.018,-38.444C4.989,-38.899 5.013,-39.358 5.013,-40.211C7.973,-35.83 11.424,-32.627 15.805,-30.53C19.823,-28.607 23.991,-27.046 28.218,-25.648C33.182,-24.009 48.291,-19.065 50.792,-17.973C53.57,-16.991 53.502,-2.869 53.35,-1.43C53.031,1.609 52.231,4.482 50.69,7.132C50.5,7.43 50.323,7.739 50.124,8.03C49.933,8.305 48.654,10.183 48.012,10.819C44.724,14.069 40.724,16.154 36.412,17.668C33.986,18.516 31.557,19.396 29.007,19.798C28.608,19.861 28.205,19.906 27.799,19.943C26.007,20.14 22.611,20.453 20.634,20.25L20.634,20.262C20.615,20.26 20.594,20.257 20.573,20.257C14.623,19.794 9.114,18.108 4.419,14.141C3.93,13.758 3.43,13.385 2.954,12.985C-2.547,8.356 -5.051,2.248 -5.346,1.545C-6.725,-1.753 -7.16,-4.993 -5.654,-8.503C-3.988,-12.38 -2.147,-16.148 0,-19.758" style="fill:rgb(255,221,173);fill-rule:nonzero;"/>
                </g>
                <g transform="matrix(1,0,0,1,709.101,277.452)">
                    <path d="M0,19.263C4.112,12.244 3.519,6.695 3.505,5.051C3.492,3.892 3.618,-5.704 0.04,-6.851C-2.553,-7.684 -13.913,-11.043 -15.514,-11.432C-16.383,-11.647 -17.06,-11.529 -17.596,-10.627C-21.7,-3.714 -22.491,3.449 -19.341,10.943C-18.965,11.835 -17.767,14.029 -18.136,14.324C-18.914,14.948 -20.049,15.039 -20.906,15.458C-23.814,16.896 -24.899,22.796 -24.392,26.511C-24.221,28.081 -23.492,29.466 -22.949,30.91C-19.861,30.663 -17.113,29.522 -14.093,28.606C-9.256,27.136 -2.12,22.876 0,19.263" style="fill:rgb(255,213,166);"/>
                </g>
                <g transform="matrix(0.12787,0.991791,0.991791,-0.12787,684.897,288.177)">
                    <path d="M4.362,-3.83C4.964,-3.831 5.451,-1.861 5.45,0.565C5.453,2.992 4.964,4.96 4.362,4.96C3.758,4.958 3.266,2.992 3.27,0.565C3.267,-1.861 3.758,-3.831 4.362,-3.83" style="fill:rgb(234,154,107);"/>
                </g>
                <g transform="matrix(1,0,0,1,683.717,296.511)">
                    <path d="M0,8.298C0.674,8.556 1.78,8.434 2.423,8.235C3.411,7.932 3.849,6.838 3.247,5.636C2.79,4.717 2.917,4.146 3.438,3.605C3.571,3.466 3.837,3.115 3.968,2.974C5.196,1.652 5.145,0.572 3.029,0.035C2.749,-0.035 1.996,-0.137 1.706,-0.153C-0.542,-0.258 -2.397,1.216 -4.745,1.358C-5.577,1.412 -5.043,2.236 -4.861,2.592C-3.672,4.94 -2.502,7.344 0,8.298" style="fill:rgb(254,122,133);"/>
                </g>
                <g transform="matrix(0,1,1,0,685.228,296.203)">
                    <path d="M1.588,-1.583C1.854,-1.583 2.072,-0.873 2.072,0.003C2.072,0.88 1.854,1.588 1.588,1.588C1.317,1.588 1.099,0.88 1.099,0.003C1.099,-0.873 1.317,-1.583 1.588,-1.583" style="fill:rgb(255,137,147);fill-rule:nonzero;"/>
                </g>
                <g transform="matrix(-0.03154,0.999502,0.999502,0.03154,684.854,302.234)">
                    <path d="M1.582,-1.635C1.853,-1.637 2.069,-0.926 2.07,-0.05C2.07,0.828 1.851,1.538 1.582,1.535C1.312,1.535 1.098,0.825 1.095,-0.051C1.097,-0.926 1.316,-1.636 1.582,-1.635" style="fill:rgb(255,137,147);fill-rule:nonzero;"/>
                </g>
                <g transform="matrix(1,0,0,1,672.976,267.993)">
                    <path d="M0,1.749C-4.005,-1.262 -7.097,-0.905 -10.575,3.011C-7.025,1.545 -3.732,1.403 0,1.749" style="fill:rgb(152,91,54);"/>
                </g>
                <g transform="matrix(0.687123,-0.726541,-0.726541,-0.687123,677.298,279.69)">
                    <path d="M-5.925,-3.71C-5.925,-3.71 -2.601,-1.283 -1.823,1.896C-1.184,4.502 -1.597,8.864 -5.925,10.675C-10.252,12.484 -14.092,9.296 -14.321,6.717C-14.559,3.974 -10.76,-1.122 -5.925,-3.71" style="fill:rgb(244,246,245);"/>
                </g>
                <g transform="matrix(1,0,0,1,662.242,274.031)">
                    <path d="M0,11.114C0,11.114 -0.577,9.883 -0.454,8.217C-0.383,7.213 -0.104,5.2 2.045,3.493C4.187,1.799 6.685,1.743 9.305,2.863C10.13,3.214 11.663,4.459 12.978,6.317C10.435,1.038 6.017,0 2.821,1.368C1.174,2.074 -0.187,3.613 -0.66,4.34C-1.311,5.345 -2.036,8.401 0,11.114" style="fill:rgb(12,10,9);"/>
                </g>
                <g transform="matrix(0.151293,0.988489,0.988489,-0.151293,666.336,276.519)">
                    <path d="M5.539,-4.756C8.485,-4.708 10.873,-2.159 10.871,0.937C10.872,4.028 8.486,6.499 5.539,6.454C2.595,6.403 0.205,3.857 0.205,0.761C0.206,-2.332 2.593,-4.804 5.539,-4.756" style="fill:rgb(38,130,221);"/>
                </g>
                <g transform="matrix(0.151265,0.988493,0.988493,-0.151265,667.147,279.106)">
                    <path d="M2.859,-2.454C4.378,-2.432 5.612,-1.115 5.612,0.483C5.612,2.081 4.379,3.356 2.859,3.33C1.339,3.305 0.106,1.99 0.105,0.394C0.106,-1.205 1.339,-2.48 2.859,-2.454" style="fill:rgb(6,76,124);"/>
                </g>
                <g transform="matrix(0.67559,0.737278,0.737278,-0.67559,659.212,275.668)">
                    <path d="M0.494,-0.219C1.488,-0.166 2.294,0.176 2.293,0.549C2.291,0.921 1.487,1.179 0.494,1.127C-0.499,1.073 -1.302,0.729 -1.302,0.358C-1.302,-0.015 -0.498,-0.271 0.494,-0.219" style="fill:rgb(12,10,9);"/>
                </g>
                <g transform="matrix(0.91713,0.398587,0.398587,-0.91713,657.781,279.165)">
                    <path d="M0.263,-0.055C1.279,-0.017 2.1,0.309 2.098,0.673C2.097,1.034 1.273,1.302 0.263,1.262C-0.751,1.225 -1.57,0.902 -1.571,0.535C-1.569,0.171 -0.75,-0.093 0.263,-0.055" style="fill:rgb(12,10,9);"/>
                </g>
                <g transform="matrix(0.988981,0.148042,0.148042,-0.988981,657.732,282.538)">
                    <path d="M0.097,-0.007C1.117,0.007 1.942,0.313 1.942,0.672C1.942,1.034 1.116,1.317 0.097,1.303C-0.924,1.29 -1.748,0.985 -1.749,0.624C-1.749,0.262 -0.923,-0.019 0.097,-0.007" style="fill:rgb(12,10,9);"/>
                </g>
                <g transform="matrix(-0.999345,0.0361961,0.0361961,0.999345,671.033,284.26)">
                    <path d="M0.125,-2.4C1.068,-2.449 1.34,-1.883 1.338,-1.147C1.341,-0.408 0.897,-0.014 0.125,0.003C-0.722,0.028 -1.168,-0.389 -1.178,-1.189C-1.188,-2.008 -0.689,-2.364 0.125,-2.4" style="fill:rgb(244,246,245);"/>
                </g>
                <g transform="matrix(1,0,0,1,695.195,267.268)">
                    <path d="M0,1.757C4.006,-1.259 7.097,-0.901 10.577,3.016C7.025,1.55 3.732,1.406 0,1.757" style="fill:rgb(152,91,54);"/>
                </g>
                <g transform="matrix(0.687158,0.726508,0.726508,-0.687158,690.872,278.97)">
                    <path d="M5.926,-3.711C5.926,-3.711 2.603,-1.282 1.824,1.895C1.184,4.503 1.601,8.864 5.926,10.673C10.255,12.485 14.094,9.296 14.321,6.715C14.56,3.973 10.761,-1.119 5.926,-3.711" style="fill:rgb(244,246,245);"/>
                </g>
                <g transform="matrix(0.151407,-0.988472,-0.988472,-0.151407,700.373,275.801)">
                    <path d="M-5.539,-4.753C-8.485,-4.705 -10.87,-2.156 -10.872,0.938C-10.872,4.031 -8.485,6.501 -5.539,6.455C-2.594,6.406 -0.207,3.858 -0.205,0.762C-0.204,-2.329 -2.592,-4.803 -5.539,-4.753" style="fill:rgb(38,130,221);"/>
                </g>
                <g transform="matrix(0.151499,-0.988457,-0.988457,-0.151499,699.563,278.383)">
                    <path d="M-2.863,-2.454C-4.382,-2.428 -5.614,-1.113 -5.616,0.485C-5.616,2.081 -4.384,3.355 -2.863,3.335C-1.346,3.308 -0.108,1.994 -0.109,0.398C-0.112,-1.201 -1.343,-2.475 -2.863,-2.454" style="fill:rgb(6,76,124);"/>
                </g>
                <g transform="matrix(0.676669,-0.736287,-0.736287,-0.676669,708.958,274.951)">
                    <path d="M-0.493,-0.218C-1.486,-0.168 -2.292,0.174 -2.292,0.546C-2.291,0.916 -1.488,1.178 -0.493,1.124C0.5,1.074 1.303,0.731 1.303,0.361C1.306,-0.01 0.498,-0.27 -0.493,-0.218" style="fill:rgb(12,10,9);"/>
                </g>
                <g transform="matrix(0.917371,-0.398033,-0.398033,-0.917371,710.388,278.445)">
                    <path d="M-0.262,-0.054C-1.276,-0.018 -2.095,0.307 -2.096,0.673C-2.095,1.035 -1.273,1.301 -0.262,1.265C0.752,1.225 1.572,0.901 1.574,0.536C1.57,0.172 0.751,-0.094 -0.262,-0.054" style="fill:rgb(12,10,9);"/>
                </g>
                <g transform="matrix(0.988722,-0.14976,-0.14976,-0.988722,710.442,281.815)">
                    <path d="M-0.098,-0.008C-1.119,0.006 -1.947,0.313 -1.944,0.674C-1.945,1.034 -1.119,1.316 -0.098,1.301C0.92,1.285 1.748,0.981 1.747,0.619C1.747,0.258 0.922,-0.024 -0.098,-0.008" style="fill:rgb(12,10,9);"/>
                </g>
                <g transform="matrix(-0.999345,-0.0361961,-0.0361961,0.999345,700.537,283.536)">
                    <path d="M-0.129,-2.394C-1.071,-2.445 -1.342,-1.877 -1.34,-1.14C-1.344,-0.405 -0.9,-0.012 -0.129,0.009C0.72,0.032 1.165,-0.385 1.175,-1.184C1.181,-2.004 0.684,-2.361 -0.129,-2.394" style="fill:rgb(244,246,245);"/>
                </g>
                <g transform="matrix(1,0,0,1,705.929,273.308)">
                    <path d="M0,11.116C0,11.116 0.577,9.884 0.457,8.22C0.383,7.215 0.104,5.204 -2.045,3.498C-4.187,1.804 -6.682,1.748 -9.305,2.866C-10.13,3.218 -11.661,4.461 -12.978,6.318C-10.435,1.041 -6.016,0 -2.82,1.369C-1.171,2.075 0.186,3.615 0.661,4.344C1.314,5.348 2.032,8.406 0,11.116" style="fill:rgb(12,10,9);"/>
                </g>
                <g transform="matrix(1,0,0,1,655.346,285.307)">
                    <path d="M0,-5.426C-0.226,-9.008 0.391,-10.669 2.565,-11.255C5.936,-12.16 9.36,-11.932 12.822,-11.685C15.328,-11.502 17.746,-10.981 20.116,-10.262C22.263,-9.613 23.128,-8.182 23.105,-5.917C23.077,-3.805 22.572,-1.772 21.776,0.147C20.432,3.372 18.264,5.909 14.515,6.581C11.008,6.977 8.8,6.62 5.9,5.903C0.338,4.528 0.148,-3.314 0,-5.426M-5.12,-11.045C-4.906,-9.272 -3.677,-8.143 -3.113,-6.664C-2.336,-4.616 -1.96,-2.421 -1.402,-0.287C-0.796,2.019 -0.308,4.502 1.713,5.99C2.73,6.741 3.884,7.224 5.117,7.614C9.488,8.988 13.933,9.049 17.99,7.122C20.451,5.957 22.066,3.642 22.502,2.906C24.078,0.253 24.785,-2.909 26.64,-5.377C27.13,-6.028 27.919,-6.202 28.573,-6.21L28.573,-10.628C27.124,-10.63 25.667,-10.885 24.192,-11.316C15.997,-13.696 7.634,-14.475 -0.869,-13.761C-1.678,-13.327 -2.547,-13.418 -3.412,-13.455C-4.979,-13.346 -5.312,-12.642 -5.12,-11.045" style="fill:rgb(17,17,17);"/>
                </g>
                <g transform="matrix(1,0,0,1,706.048,273.977)">
                    <path d="M0,17.233C-2.901,17.95 -5.111,18.306 -8.615,17.91C-12.366,17.238 -14.532,14.702 -15.875,11.476C-16.674,9.558 -17.18,7.524 -17.205,5.412C-17.229,3.148 -16.364,1.717 -14.219,1.068C-11.846,0.348 -9.428,-0.172 -6.922,-0.355C-3.465,-0.602 -0.037,-0.831 3.335,0.074C5.506,0.661 6.125,2.321 5.898,5.904C5.75,8.016 5.559,15.858 0,17.233M9.312,-2.126C8.447,-2.088 7.578,-1.998 6.768,-2.431C-1.734,-3.146 -10.1,-2.366 -18.295,0.013C-19.769,0.444 -21.227,0.699 -22.674,0.702L-22.674,5.12C-22.017,5.128 -21.23,5.301 -20.74,5.953C-18.885,8.42 -18.18,11.583 -16.604,14.236C-16.167,14.971 -14.551,17.286 -12.093,18.452C-8.035,20.379 -3.59,20.317 0.781,18.943C2.013,18.553 3.169,18.07 4.185,17.32C6.204,15.831 6.697,13.348 7.299,11.042C7.857,8.909 8.233,6.714 9.013,4.666C9.574,3.187 10.804,2.057 11.016,0.284C11.209,-1.313 10.877,-2.016 9.312,-2.126" style="fill:rgb(17,17,17);"/>
                </g>
                <g transform="matrix(1,0,0,1,667.797,474.777)">
                    <path d="M0,-4.967C0.362,-6.212 1.005,-7.337 1.868,-8.274C4.083,-10.687 4.85,-13.568 4.862,-16.74L9.473,-16.892C9.358,-15.762 9.254,-14.633 9.167,-13.501C9.031,-11.757 8.845,-10.004 9.197,-8.23C9.944,-4.458 11.005,-0.776 12.237,2.853C12.953,4.965 13.542,7.214 15.729,8.427C15.295,8.471 14.862,8.519 14.342,8.572C14.862,8.519 15.295,8.471 15.729,8.427C16.125,8.491 16.52,8.556 16.914,8.622C17.875,8.403 18.512,8.726 18.742,9.564C18.991,10.483 18.289,10.679 17.678,10.91C17.395,11.017 17.082,11.051 16.783,11.116C16.14,11.444 15.547,11.925 14.751,11.816C13.519,11.803 12.356,11.435 11.175,11.145C10.121,11.194 9.091,11.003 8.065,10.791C5.734,10.448 5.295,10.392 5.043,7.395C4.979,6.636 5.016,5.873 4.928,5.118C4.663,2.877 3.873,0.94 1.868,-0.368C1.11,-0.862 0.303,-1.42 0.151,-2.46C-0.303,-3.27 -0.247,-4.119 0,-4.967" style="fill:rgb(45,40,41);fill-rule:nonzero;"/>
                </g>
                <g transform="matrix(1,0,0,1,688.446,476.351)">
                    <path d="M0,-10.15C0.668,-11.265 1.578,-12.187 2.65,-12.875C5.406,-14.64 6.885,-17.233 7.703,-20.293L12.2,-19.267C11.802,-18.206 11.412,-17.137 11.04,-16.068C10.463,-14.417 9.838,-12.768 9.725,-10.963C9.486,-7.126 9.574,-3.294 9.838,0.531C9.993,2.755 9.992,5.077 11.797,6.81C11.367,6.743 10.934,6.675 10.42,6.597C10.934,6.675 11.367,6.743 11.797,6.81C12.164,6.971 12.527,7.134 12.894,7.3C13.88,7.333 14.412,7.807 14.42,8.677C14.427,9.627 13.699,9.639 13.048,9.707C12.746,9.737 12.438,9.689 12.132,9.677C11.422,9.831 10.727,10.143 9.988,9.835C8.8,9.509 7.767,8.856 6.701,8.275C5.669,8.055 4.721,7.609 3.784,7.142C1.617,6.217 1.204,6.048 1.726,3.085C1.857,2.34 2.088,1.607 2.195,0.855C2.511,-1.376 2.243,-3.453 0.635,-5.226C0.027,-5.899 -0.608,-6.645 -0.491,-7.687C-0.725,-8.588 -0.454,-9.394 0,-10.15" style="fill:rgb(45,40,41);fill-rule:nonzero;"/>
                </g>
                <g transform="matrix(1,0,0,1,682.689,424.292)">
                    <path d="M0,-52.705C-0.008,-57.575 -3.951,-61.519 -8.808,-61.511C-13.298,-61.507 -16.996,-58.128 -17.523,-53.769C-18.364,-49.377 -18.635,-44.935 -17.913,-40.408C-17.014,-34.77 -15.626,-29.241 -14.177,-23.726C-12.125,-15.898 -10.678,-7.962 -10.952,0.179C-10.996,1.418 -11.1,2.656 -11.223,3.891L-11.207,3.893C-11.212,3.964 -11.217,4.032 -11.217,4.106C-11.215,6.706 -9.137,8.814 -6.575,8.812C-4.166,8.809 -2.188,6.936 -1.968,4.549L-1.964,4.549C-0.84,-3.248 -0.362,-11.09 -0.292,-18.967C-0.228,-25.933 0.18,-32.894 -0.047,-39.86C-0.053,-40.081 0.005,-47.833 0,-52.705" style="fill:rgb(104,144,155);fill-rule:nonzero;"/>
                </g>
                <g transform="matrix(1,0,0,1,701.547,424.311)">
                    <path d="M0,-54.305C-1.215,-59.019 -6.012,-61.864 -10.714,-60.652C-15.064,-59.535 -17.806,-55.343 -17.239,-50.99C-16.966,-46.527 -16.124,-42.156 -14.302,-37.95C-12.036,-32.711 -9.318,-27.699 -6.549,-22.716C-2.619,-15.64 0.753,-8.314 2.503,-0.356C2.772,0.855 2.977,2.078 3.167,3.305L3.179,3.303C3.196,3.374 3.204,3.441 3.223,3.512C3.872,6.031 6.406,7.559 8.888,6.919C11.217,6.321 12.671,4.017 12.294,1.65L12.299,1.647C11.452,-6.185 9.97,-13.9 8.085,-21.549C6.419,-28.314 5.088,-35.159 3.14,-41.853C3.079,-42.058 1.215,-49.588 0,-54.305" style="fill:rgb(104,144,155);fill-rule:nonzero;"/>
                </g>
                <g transform="matrix(1,0,0,1,719.859,381.474)">
                    <path d="M0,-8.272C-0.511,-8.631 -1.028,-8.835 -1.419,-8.945C-1.599,-7.38 -1.597,-5.791 -1.06,-4.329C-0.509,-2.837 -0.179,-2.08 0.164,-0.536C0.307,0.11 0.742,0.673 1.24,0.625L1.24,0.622C1.825,0.5 1.453,-0.727 1.911,-1.718L1.964,-3.514C2.032,-5.668 1.351,-7.313 0,-8.272" style="fill:rgb(254,220,171);fill-rule:nonzero;"/>
                </g>
                <g transform="matrix(1,0,0,1,693.3,317.873)">
                    <path d="M0,0.287C-0.242,0.307 -0.439,0.248 -0.534,-0.001C-0.294,-0.02 -0.105,0.061 0,0.287" style="fill:rgb(252,222,171);"/>
                </g>
                <g transform="matrix(1,0,0,1,707.871,321.925)">
                    <path d="M0,24.992C0.728,26.685 0.911,28.538 -0.543,29.168L-1.204,29.451C-2.66,30.077 -4.215,28.514 -4.945,26.82L-17.029,0.033C-17.759,-1.66 -17.172,-3.543 -15.715,-4.173L-15.057,-4.456C-13.599,-5.085 -11.826,-4.224 -11.095,-2.531L0,24.992Z" style="fill:rgb(254,220,171);fill-rule:nonzero;"/>
                </g>
                <g transform="matrix(1,0,0,1,720.82,352.335)">
                    <path d="M0,16.602C1.031,18.098 2.702,21.87 1.772,22.468C0.437,23.327 -1.368,22.871 -1.788,21.249C-2.27,19.387 -4.348,16.486 -5.386,15.088C-8.419,10.982 -17.017,-1.502 -17.017,-1.502C-17.923,-2.916 -17.574,-4.753 -16.237,-5.61L-15.837,-5.868C-14.502,-6.725 -12.815,-5.59 -11.909,-4.18L0,16.602Z" style="fill:rgb(254,220,171);fill-rule:nonzero;"/>
                </g>
                <g transform="matrix(1,0,0,1,726.883,380.607)">
                    <path d="M0,-3.824C-0.142,-4.148 -0.319,-4.438 -0.525,-4.653C-2.252,-6.465 -3.86,-8.364 -5.286,-10.396L-7.643,-9.226L-8.332,-8.885C-8.411,-8.769 -8.387,-8.649 -8.342,-8.526C-8.351,-8.454 -8.36,-8.381 -8.368,-8.308C-8.543,-6.756 -4.905,-0.84 -4.905,-0.84C-4.873,-0.811 -4.841,-0.779 -4.808,-0.747C-4.597,-0.417 -4.348,-0.062 -4.056,0.324C-3.092,1.593 -2.539,5.813 -1.689,6.237C-1.689,6.237 -1.187,6.572 -0.652,5.898C0.096,4.957 0.936,0.179 0.792,-1.526C0.724,-2.345 0.007,-3.821 0.007,-3.821C0.007,-3.821 0.004,-3.821 0,-3.824" style="fill:rgb(254,220,171);fill-rule:nonzero;"/>
                </g>
                <g transform="matrix(1,0,0,1,662.43,321.555)">
                    <path d="M0,26.905C-0.505,28.677 -0.443,30.539 1.084,30.973L1.774,31.167C3.302,31.599 4.638,29.846 5.141,28.072L13.611,-0.072C14.113,-1.845 13.284,-3.635 11.757,-4.066L11.068,-4.261C9.542,-4.694 7.896,-3.606 7.392,-1.831L0,26.905Z" style="fill:rgb(254,220,171);fill-rule:nonzero;"/>
                </g>
                <g transform="matrix(1,0,0,1,665.664,389.83)">
                    <path d="M0,-41.991L-0.431,-42.194C-1.868,-42.868 -3.393,-41.525 -4.104,-40.007L-13.189,-17.846C-13.374,-17.484 -13.574,-17.002 -13.765,-16.471L-13.79,-16.48C-14.937,-14.277 -16.284,-12.186 -17.759,-10.162C-17.934,-9.922 -18.072,-9.611 -18.17,-9.272C-18.175,-9.269 -18.177,-9.267 -18.177,-9.267C-18.177,-9.267 -18.694,-7.71 -18.657,-6.889C-18.578,-5.181 -17.116,-0.554 -16.252,0.282C-15.634,0.877 -15.18,0.481 -15.18,0.481C-14.392,-0.051 -14.395,-4.307 -13.606,-5.691C-13.367,-6.11 -13.168,-6.498 -13.001,-6.849C-12.974,-6.886 -12.945,-6.921 -12.918,-6.956C-12.918,-6.956 -12.858,-7.091 -12.763,-7.311L-12.711,-6.996C-12.129,-6.073 -12.339,-4.803 -11.743,-4.761L-11.743,-4.758C-11.24,-4.775 -10.886,-5.392 -10.827,-6.048C-10.689,-7.627 -10.461,-8.422 -10.111,-9.973C-9.769,-11.491 -9.974,-13.068 -10.359,-14.595C-10.382,-14.585 -10.467,-14.837 -10.471,-14.85C-9.881,-16.664 -8.709,-18.854 -8.048,-20.053C-5.579,-24.52 1.312,-38.024 1.312,-38.024C2.024,-39.54 1.436,-41.315 0,-41.991" style="fill:rgb(254,220,171);fill-rule:nonzero;"/>
                </g>
                <g transform="matrix(1,0,0,1,698.551,382.625)">
                    <path d="M0,-23.129C-5.39,-21.587 -10.495,-21.029 -15.001,-21C-22.188,-20.955 -27.831,-22.26 -30.638,-23.069C-31.177,-21.329 -31.752,-19.45 -32.074,-18.349C-32.452,-17.07 -32.79,-15.782 -33.081,-14.494C-30.897,-9.435 -25.685,-0.513 -15.972,0C-15.293,-0.003 -14.504,-0.159 -14.419,-0.008C-4.714,-0.644 0.39,-9.629 2.51,-14.717C2.201,-16 1.846,-17.28 1.455,-18.558C1.128,-19.624 0.549,-21.434 0,-23.129" style="fill:rgb(104,144,155);fill-rule:nonzero;"/>
                </g>
                <g transform="matrix(1,0,0,1,670.924,424.892)">
                    <path d="M0,38.691L6.129,39.304C6.135,39.233 6.135,39.159 6.14,39.089C6.458,34.424 6.73,29.755 7.04,25.092C7.415,19.498 7.925,13.924 8.821,8.404C8.993,7.339 9.151,6.268 9.299,5.198C9.358,4.937 9.396,4.669 9.411,4.393C9.416,4.358 9.422,4.324 9.426,4.288L9.414,4.288C9.416,4.217 9.424,4.148 9.424,4.074C9.39,1.47 7.288,-0.613 4.726,-0.582C2.316,-0.55 0.362,1.345 0.167,3.737L0.16,3.737C-0.047,6.139 -0.311,8.539 -0.307,10.941C-0.282,20.191 -0.171,29.441 0,38.691" style="fill:rgb(104,144,155);fill-rule:nonzero;"/>
                </g>
                <g transform="matrix(1,0,0,1,710.643,462.825)">
                    <path d="M0,-38.838C-2.286,-39.601 -4.757,-38.451 -5.723,-36.253L-5.729,-36.259C-6.714,-34.056 -7.754,-31.877 -8.535,-29.606C-11.87,-19.913 -15.11,-10.185 -18.277,-0.434L-12.252,0.763C-12.098,0.202 -11.912,-0.354 -11.678,-0.899C-9.847,-5.202 -8.06,-9.522 -6.235,-13.827C-4.047,-18.989 -1.736,-24.087 0.921,-29.005C1.434,-29.958 1.931,-30.917 2.425,-31.88C2.565,-32.105 2.688,-32.347 2.793,-32.603C2.808,-32.634 2.825,-32.666 2.841,-32.695L2.829,-32.701C2.856,-32.767 2.885,-32.832 2.911,-32.9C3.734,-35.368 2.429,-38.028 0,-38.838" style="fill:rgb(104,144,155);fill-rule:nonzero;"/>
                </g>
                <g transform="matrix(-0.999364,0.0356562,0.0356562,0.999364,667.921,470.628)">
                    <path d="M-1.8,14.878L-0.79,14.878L-0.264,0.008L-2.287,0.004L-1.8,14.878Z" style="fill:rgb(45,40,41);fill-rule:nonzero;"/>
                </g>
                <g transform="matrix(-0.92334,-0.383983,-0.383983,0.92334,693.04,466.649)">
                    <path d="M2.303,14.771L3.314,14.771L3.809,-0.102L1.789,-0.101L2.303,14.771Z" style="fill:rgb(45,40,41);fill-rule:nonzero;"/>
                </g>
                <g transform="matrix(-0.447903,0.894082,0.894082,0.447903,685.748,307.643)">
                    <path d="M3.15,-4.241C3.149,-4.158 0.432,0.209 0.074,0.641C1.014,1.169 2.108,1.639 3.15,2.144C3.31,0.864 3.685,-1.542 4.451,-3.615C4.028,-3.83 3.596,-4.044 3.15,-4.241" style="fill:rgb(255,213,166);fill-rule:nonzero;"/>
                </g>
                <g transform="matrix(0.371391,-0.928477,-0.928477,-0.371391,679.969,317.281)">
                    <path d="M-1.561,2.305L3.405,2.305" style="fill:none;fill-rule:nonzero;"/>
                </g>
                <g transform="matrix(1,0,0,1,697.211,317.732)">
                    <path d="M0,38.672C-1.041,35.737 -6.064,27.154 -5.792,19.16C-5.768,18.501 -5.655,14.471 -5.478,13.838C-5.108,12.423 -4.463,10.94 -4.458,10.932C-4.276,10.209 -2.991,8.534 -2.023,4.885C-0.838,0.414 -2.494,-0.239 -3.188,-0.625C-3.645,-0.88 -5.674,-1.416 -6.294,-1.437C-6.482,-1.443 -7.246,-1.438 -8.338,-1.428C-9.73,-1.704 -10.781,-2.988 -10.925,-5.199C-10.949,-5.567 -10.957,-5.947 -10.957,-6.33C-12.117,-6.746 -14.466,-7.511 -16.682,-7.761C-16.674,-6.718 -16.675,-5.703 -16.864,-4.719C-16.874,-4.666 -16.879,-4.611 -16.89,-4.558C-17.06,-3.762 -17.534,-3.113 -18.147,-2.645C-18.137,-2.638 -18.126,-2.631 -18.116,-2.624L-18.117,-2.624C-18.206,-2.155 -19.018,-1.284 -19.393,-1.278L-19.058,-2.116C-19.204,-2.06 -19.353,-2.013 -19.504,-1.976C-20.866,-1.644 -22.567,-1.507 -23.652,-1.208C-23.984,-1.117 -24.321,-0.999 -24.569,-0.744C-24.911,-0.651 -25.198,-0.561 -25.333,-0.49C-25.909,-0.187 -27.67,0.581 -26.428,5.038C-25.415,8.675 -24.109,10.332 -23.919,11.053C-23.914,11.06 -23.252,12.536 -22.865,13.945C-22.676,14.575 -22.516,18.607 -22.484,19.264C-22.11,27.253 -27.029,35.898 -28.034,38.847C-28.133,39.141 -28.632,40.72 -29.19,42.517C-24.666,43.824 -12.657,46.433 1.244,42.458C0.646,40.615 0.107,38.972 0,38.672" style="fill:rgb(252,222,171);fill-rule:nonzero;"/>
                </g>
                <g transform="matrix(1,0,0,1,679.093,319.718)">
                    <path d="M0,-6.454L-1.201,-4.352L-3.688,0L-1.844,-1.844L-0.807,-4.437L0,-6.454Z" style="fill:white;fill-rule:nonzero;"/>
                </g>
                <g transform="matrix(1,0,0,1,680.015,314.154)">
                    <path d="M0,4.642C-0.884,3.786 -1.212,2.482 -0.922,0.954L-0.921,0.953C-0.931,0.947 -0.941,0.939 -0.951,0.933C-0.339,0.465 0.135,-0.184 0.305,-0.98C0.317,-1.034 0.321,-1.088 0.331,-1.142L-0.922,-0.89L-1.729,1.127L-1.863,1.462L-2.766,3.72L-1.844,4.642C-1.626,4.846 -1.294,4.993 -0.933,5.128C-0.354,5.344 0.325,5.52 0.903,5.784C0.645,5.365 0.348,4.979 0,4.642" style="fill:rgb(218,218,218);fill-rule:nonzero;"/>
                </g>
                <g transform="matrix(1,0,0,1,682.782,337.865)">
                    <path d="M0,0.294C-0.01,0.197 -0.014,0.097 -0.023,0C-0.014,0.097 -0.01,0.197 0,0.294" style="fill:white;fill-rule:nonzero;"/>
                </g>
                <g transform="matrix(1,0,0,1,711.267,319.902)">
                    <path d="M0,75.973C-0.518,72.659 -14.864,28.001 -15.576,24.712C-16.021,22.657 -17.87,11.312 -17.537,9.158C-17.487,8.837 -12.715,21.067 -8.502,30.082C-7.748,31.696 3.229,46.723 6.714,52.145C7.128,52.789 9.576,51.387 10.079,51.159C10.671,50.898 10.616,50.526 10.446,49.961C10.146,48.965 -2.168,26.743 -3.109,26.828C-8.802,12.661 -14.156,-2.217 -15.243,-2.76C-15.286,-2.781 -15.335,-2.79 -15.384,-2.789C-15.583,-2.788 -15.743,-2.855 -15.825,-3.072L-15.925,-3.117C-17.267,-3.205 -20.957,-4.416 -22.444,-4.32L-22.344,-4.109L-20.623,-0.498C-20.5,-0.241 -20.794,0.014 -21.031,-0.143C-21.239,-0.281 -21.511,-0.101 -21.462,0.144C-21.139,1.75 -21.017,3.914 -21.449,6.733C-22.372,12.751 -26.955,17.853 -28.761,19.663C-28.965,19.867 -29.305,19.667 -29.23,19.389L-28.983,18.483C-31.409,25.283 -27.438,77.476 -26.201,79.558C-26.141,79.66 -26.091,79.766 -25.975,79.785C-22.272,80.389 -4.379,77.258 -1.033,78.7C-0.669,78.857 -0.318,79.032 0.078,79.018C0.192,79.014 0.299,78.943 0.335,78.835C0.668,77.842 0.147,76.918 0,75.973" style="fill:rgb(209,227,238);fill-rule:nonzero;"/>
                </g>
                <g transform="matrix(1,0,0,1,686.581,337.427)">
                    <path d="M0,-18.596L0.811,-19.553C0.573,-19.361 0.313,-18.973 0,-18.596C-0.266,-18.276 -0.57,-17.969 -0.933,-17.794C-1.231,-17.651 -1.567,-17.597 -1.955,-17.709C-4.026,-14.837 -4.446,-10.959 -4.721,-9.411C-4.904,-8.382 -4.403,-6.072 -4.161,-3.779C-4.041,-2.636 -3.986,-1.497 -4.112,-0.523C-4.167,-0.1 -4.223,0.545 -4.297,0.957C-4.238,0.831 -4.115,0.389 -3.931,0.073C-3.206,-1.172 -2.5,-2.424 -0.797,-7.561C1.129,-13.371 0,-18.596 0,-18.596" style="fill:rgb(237,237,237);fill-rule:nonzero;"/>
                </g>
                <g transform="matrix(1,0,0,1,686.233,319.831)">
                    <path d="M0,-6.818C0.006,-6.764 0.041,-6.458 0.048,-6.404C0.122,-5.862 0.074,-5.111 0.237,-4.723C0.591,-4.414 0.683,-3.949 0.654,-3.48C0.615,-2.868 0.372,-2.249 0.237,-1.956C0.148,-1.764 -0.09,-1.414 -0.384,-1.069C-0.761,-0.629 -1.232,-0.197 -1.607,-0.112C-1.219,0 -0.883,-0.054 -0.585,-0.198C-0.222,-0.372 0.082,-0.68 0.348,-0.999C0.661,-1.376 0.921,-1.765 1.159,-1.956L1.341,-3.542L1.463,-4.604L1.649,-6.223L0,-6.818Z" style="fill:rgb(218,218,218);fill-rule:nonzero;"/>
                </g>
                <g transform="matrix(1,0,0,1,688.923,318.134)">
                    <path d="M0,-2.341L-0.101,-2.553L-1.041,-4.526L-1.227,-2.907L-1.349,-1.846L-1.531,-0.26L0.728,1.237L2.157,2.185L0,-2.341Z" style="fill:white;fill-rule:nonzero;"/>
                </g>
                <g transform="matrix(1,0,0,1,679.073,337.969)">
                    <path d="M0,-18.271L0.021,-18.25C0.021,-18.25 0.012,-18.241 -0.001,-18.225C-0.08,-11.349 2.184,-3.045 3.211,0.416L3.618,-0.332C3.686,-0.612 3.68,-0.885 3.709,-1.211C3.919,-3.596 4.165,-8.386 4.165,-9.952C4.165,-13.011 3.697,-15.012 1.845,-18.03C1.267,-18.295 0.589,-18.471 0.009,-18.687C0.005,-18.548 0.002,-18.41 0,-18.271" style="fill:white;fill-rule:nonzero;"/>
                </g>
                <g transform="matrix(0,-1,-1,0,682.591,325.492)">
                    <path d="M-0.212,-0.212C-0.329,-0.212 -0.424,-0.117 -0.424,0C-0.424,0.117 -0.329,0.212 -0.212,0.212C-0.095,0.212 0,0.117 0,0C0,-0.117 -0.095,-0.212 -0.212,-0.212" style="fill-rule:nonzero;"/>
                </g>
                <g transform="matrix(0.997658,-0.0683974,-0.0683974,-0.997658,682.788,331.032)">
                    <path d="M-0.015,-0C-0.132,-0 -0.227,0.094 -0.226,0.212C-0.226,0.329 -0.132,0.424 -0.014,0.423C0.103,0.423 0.198,0.329 0.197,0.212C0.197,0.094 0.103,-0.001 -0.015,-0" style="fill-rule:nonzero;"/>
                </g>
                <g transform="matrix(0.997658,-0.0683974,-0.0683974,-0.997658,682.472,336.159)">
                    <path d="M-0.015,-0C-0.132,-0 -0.227,0.094 -0.226,0.212C-0.226,0.329 -0.132,0.424 -0.014,0.423C0.103,0.423 0.198,0.329 0.197,0.212C0.197,0.094 0.103,-0.001 -0.015,-0" style="fill-rule:nonzero;"/>
                </g>
                <g transform="matrix(1,0,0,1,689.817,331.541)">
                    <path d="M0,-4.906C0.496,-8.141 0.262,-10.513 -0.166,-12.169L-2.425,-13.666L-3.237,-12.709C-3.237,-12.709 -2.076,-7.324 -4.13,-1.429C-5.911,3.681 -6.443,4.714 -7.168,5.959C-7.301,6.236 -7.422,6.532 -7.534,6.844L-7.327,8.76C-7.327,8.76 -1.156,2.627 0,-4.906" style="fill:rgb(228,237,242);fill-rule:nonzero;"/>
                </g>
                <g transform="matrix(1,0,0,1,682.563,374.854)">
                    <path d="M0,-34.084C-9.111,-44.255 -5.314,-56.98 -5.314,-56.98L-7.158,-55.136L-4.67,-59.488C-5.91,-59.298 -7.147,-59.304 -8.607,-59.021C-11.488,-58.461 -12.769,-56.807 -13.612,-54.213C-13.753,-53.78 -19.812,-30.432 -20.988,-26.552C-24.82,-13.91 -31.494,-1.836 -31.131,-1.657C-30.469,-1.325 -27.167,-0.178 -26.521,0.187C-25.863,0.366 -16.024,-20.469 -14.534,-23.786C-13.664,-25.723 -9.154,-45.199 -9.002,-44.071C-8.893,-43.266 -11.583,-29.141 -12.313,-26.357C-12.88,-24.194 -23.315,18.918 -23.718,21.118C-23.839,21.771 -24.44,23.018 -22.778,22.85C-19.822,22.305 0.771,25.404 1.141,24.709C1.455,24.119 1.211,-27.653 0,-34.084" style="fill:rgb(228,237,242);fill-rule:nonzero;"/>
                </g>
                <g transform="matrix(1,0,0,1,682.626,317.875)">
                    <path d="M0,23.565C-0.065,23.257 -0.349,20.285 -0.349,20.285C-1.375,16.824 -3.634,8.745 -3.555,1.869C-3.554,1.853 -3.554,1.838 -3.553,1.823C-3.552,1.684 -3.548,1.546 -3.544,1.407C-3.905,1.273 -4.237,1.126 -4.455,0.922L-5.377,0C-5.377,0 -10.143,12.189 -1.032,22.36C-0.754,22.644 -0.263,23.265 0,23.565" style="fill:rgb(209,227,238);fill-rule:nonzero;"/>
                </g>
                <g transform="matrix(1,0,0,1,663.644,376.848)">
                    <path d="M0,16.96C-0.104,16.96 -0.203,16.898 -0.244,16.795C-0.298,16.661 -0.232,16.508 -0.098,16.454C0.967,16.028 3,14.938 4.646,12.429C4.957,11.928 5.737,5.677 6.175,1.686L0.388,0.542C0.246,0.514 0.154,0.376 0.182,0.233C0.21,0.091 0.349,0 0.49,0.027L6.749,1.265L6.723,1.504C6.533,3.249 5.561,11.992 5.085,12.718C3.36,15.346 1.22,16.492 0.097,16.941C0.065,16.954 0.032,16.96 0,16.96" style="fill:rgb(168,203,222);fill-rule:nonzero;"/>
                </g>
                <g transform="matrix(1,0,0,1,704.825,376.848)">
                    <path d="M0,16.96C-0.032,16.96 -0.065,16.954 -0.097,16.941C-1.219,16.492 -3.358,15.347 -5.084,12.717C-5.56,11.992 -6.533,3.249 -6.723,1.504L-6.749,1.265L-0.491,0.027C-0.349,0 -0.211,0.091 -0.182,0.233C-0.154,0.376 -0.247,0.514 -0.389,0.542L-6.175,1.686C-5.737,5.677 -4.957,11.928 -4.645,12.43C-2.998,14.939 -0.967,16.028 0.098,16.454C0.232,16.508 0.298,16.66 0.244,16.795C0.203,16.898 0.104,16.96 0,16.96" style="fill:rgb(168,203,222);fill-rule:nonzero;"/>
                </g>
                <g transform="matrix(1,0,0,1,687.931,312.575)">
                    <path d="M0,23.871C-0.028,23.506 -0.078,23.089 -0.136,22.606C-0.426,20.194 -0.91,16.158 0.285,9.204C0.806,6.168 0.711,2.396 -0.482,1.059C-0.786,0.718 -1.228,0.561 -1.646,0.584L-1.677,0.033C-1.089,0 -0.488,0.223 -0.07,0.691C1.3,2.227 1.356,6.229 0.829,9.297C-0.352,16.173 0.126,20.158 0.412,22.54C0.471,23.029 0.522,23.452 0.551,23.829L0,23.871Z" style="fill:rgb(69,79,86);fill-rule:nonzero;"/>
                </g>
                <g transform="matrix(0,1,1,0,688.211,335.113)">
                    <path d="M2.1,-2.101C3.26,-2.101 4.2,-1.161 4.2,-0.001C4.2,1.158 3.26,2.1 2.1,2.1C0.939,2.1 0.001,1.158 0.001,-0.001C0.001,-1.161 0.939,-2.101 2.1,-2.101" style="fill:rgb(156,155,155);fill-rule:nonzero;"/>
                </g>
                <g transform="matrix(0,1,1,0,688.21,336.168)">
                    <path d="M1.045,-1.045C1.622,-1.045 2.09,-0.577 2.09,0C2.09,0.577 1.622,1.045 1.045,1.045C0.469,1.045 0,0.577 0,0C0,-0.577 0.469,-1.045 1.045,-1.045" style="fill:rgb(192,191,191);fill-rule:nonzero;"/>
                </g>
                <g transform="matrix(1,0,0,1,681.655,325.483)">
                    <path d="M0,5.801L-1.086,5.601C-0.982,5.032 -0.785,3.367 -1.123,2.509C-1.619,1.249 -3.235,0.729 -3.707,0.602C-3.993,0.695 -4.691,0.942 -5.362,1.332C-6.072,1.745 -6.905,2.408 -6.839,3.22C-6.811,3.56 -6.391,5.13 -6.133,6.04L-7.196,6.341C-7.312,5.931 -7.895,3.857 -7.94,3.311C-8.003,2.541 -7.699,1.407 -5.898,0.367C-4.913,-0.203 -3.918,-0.49 -3.876,-0.502L-3.746,-0.54L-3.613,-0.512C-3.502,-0.489 -0.895,0.072 -0.096,2.105C0.419,3.41 0.044,5.56 0,5.801" style="fill:rgb(69,79,86);fill-rule:nonzero;"/>
                </g>
                <g transform="matrix(1,0,0,1,679.95,331.165)">
                    <path d="M0,4.423L-0.003,4.423L-0.063,3.874C-0.047,3.872 0.465,3.781 0.611,2.839C0.764,1.86 0.809,1.175 0.857,0.449C0.866,0.303 0.876,0.154 0.887,0L1.438,0.038C1.427,0.191 1.417,0.34 1.408,0.485C1.359,1.223 1.313,1.92 1.157,2.924C0.947,4.277 0.071,4.414 0,4.423" style="fill:rgb(198,198,197);fill-rule:nonzero;"/>
                </g>
                <g transform="matrix(0.659843,0.751403,0.751403,-0.659843,678.54,335.398)">
                    <path d="M0.589,-0.233C0.741,-0.189 1.298,0.963 1.203,1.128C1.107,1.295 0.723,1.451 0.589,1.405C0.455,1.36 -0.181,0.284 -0.198,0.122C-0.215,-0.042 0.436,-0.277 0.589,-0.233" style="fill:rgb(156,155,155);fill-rule:nonzero;"/>
                </g>
                <g transform="matrix(1,0,0,1,676.871,331.647)">
                    <path d="M0,4.176C-0.039,4.178 -0.953,4.215 -1.394,2.89C-1.715,1.923 -1.876,1.242 -2.047,0.52C-2.08,0.38 -2.114,0.238 -2.149,0.091L-1.612,-0.039C-1.577,0.109 -1.543,0.252 -1.51,0.393C-1.342,1.103 -1.184,1.772 -0.87,2.716C-0.569,3.62 -0.048,3.625 -0.026,3.625L0,4.176Z" style="fill:rgb(198,198,197);fill-rule:nonzero;"/>
                </g>
                <g transform="matrix(0.525493,-0.850798,-0.850798,-0.525493,678.163,335.267)">
                    <path d="M-0.671,-0.358C-0.824,-0.314 -1.379,0.839 -1.284,1.005C-1.189,1.169 -0.804,1.325 -0.671,1.28C-0.537,1.235 0.1,0.159 0.116,-0.004C0.133,-0.167 -0.518,-0.404 -0.671,-0.358" style="fill:rgb(156,155,155);fill-rule:nonzero;"/>
                </g>
                <g transform="matrix(1,0,0,1,678.207,312.225)">
                    <path d="M0,13.289L-0.552,13.284C-0.545,12.466 -0.557,11.678 -0.569,10.843C-0.602,8.645 -0.636,6.371 -0.302,3.526C0.063,0.409 1.798,0.053 2.254,0L2.193,0.481C2.189,0.482 2.089,0.494 2.085,0.494C1.161,0.61 0.457,1.794 0.246,3.59C-0.083,6.399 -0.05,8.654 -0.017,10.835C-0.005,11.673 0.007,12.464 0,13.289" style="fill:rgb(69,79,86);fill-rule:nonzero;"/>
                </g>
            </g>
        </g>
    </g>
</svg>
