<?xml version="1.0" encoding="UTF-8" standalone="no"?>
<!DOCTYPE svg PUBLIC "-//W3C//DTD SVG 1.1//EN" "http://www.w3.org/Graphics/SVG/1.1/DTD/svg11.dtd">
<svg width="100%" height="100%" viewBox="0 0 113 282" version="1.1" xmlns="http://www.w3.org/2000/svg" xmlns:xlink="http://www.w3.org/1999/xlink" xml:space="preserve" xmlns:serif="http://www.serif.com/" style="fill-rule:evenodd;clip-rule:evenodd;stroke-linejoin:round;stroke-miterlimit:2;">
    <g transform="matrix(1,0,0,1,-2154,-1061)">
        <g transform="matrix(1,0,0,1,1536.75,864.001)">
            <g id="mujer-win">
                <g transform="matrix(1,0,0,1,623.47,267.487)">
                    <path d="M0,39.462C-3.645,42.039 -5.78,45.243 -5.931,49.487C-6.183,56.601 -3.566,62.84 0.369,68.592C1.336,70.006 2.477,71.323 3.681,72.542C9.333,78.266 15.51,79.385 22.855,76.099C23.497,75.814 24.141,75.527 24.91,75.187C25.563,77.486 26.226,79.682 26.811,81.893C28.81,89.426 32.934,95.743 38.089,101.444C40.78,104.416 44.403,105.808 48.111,106.948C53.866,108.718 59.786,109.513 65.79,109.849C72.394,110.218 78.957,110.09 85.45,108.721C92.502,107.236 97.412,101.378 97.497,94.609C95.422,95.197 93.322,96.009 91.151,96.352C88.635,96.749 86.659,95.437 85.731,93.166C84.939,91.227 84.415,89.093 84.225,87.003C83.597,80.072 85.251,73.467 87.331,66.916C91.735,53.038 94.352,38.725 97.406,24.522C99.019,17.041 100.405,9.511 102.058,2.042C103.005,-2.231 104.593,-6.374 105.357,-10.669C107.859,-24.69 103.402,-35.905 91.38,-43.894C82.19,-50.003 72.314,-54.657 61.446,-56.605C57.05,-57.394 53.978,-58.85 51.302,-62.603C47.381,-68.108 41.743,-70.756 34.635,-70.248C25.687,-69.61 16.973,-68.207 9.445,-63.055C1.733,-57.779 -3.061,-50.63 -3.511,-40.895C-4.128,-27.624 -2.004,-14.694 1.49,-2.024C4.716,9.685 8.805,21.153 12.323,32.782C13.466,36.563 14.124,40.503 14.796,44.404C15.249,47.049 14.132,49.413 12.747,51.612C11.993,52.809 10.928,53.42 9.464,53.355C8.902,53.333 8.265,53.406 7.774,53.655C5.861,54.628 5.381,54.577 4.136,52.798C1.979,49.707 0.983,46.187 0.428,42.511C0.288,41.591 0.167,40.67 0,39.462" style="fill:rgb(193,20,3);"/>
                </g>
                <g transform="matrix(1,0,0,1,646.605,264.577)">
                    <path d="M0,-2.767C-1.504,0.976 -0.937,4.511 0.435,8.105C3.3,15.611 8.827,20.673 15.51,24.685C18.146,26.271 20.898,27.641 23.742,28.826C26.42,29.94 28.157,31.752 27.664,35.426C27.605,35.868 27.544,36.368 28.042,36.667C30.117,34.982 30.294,32.528 30.719,30.177L36.566,30.315C36.541,30.832 36.525,31.315 36.527,31.684C36.676,33.138 36.931,34.563 37.552,35.902C37.864,36.565 38.274,37.107 39.044,37.257C37.995,33.236 39.563,30.466 43.026,28.409C45.804,26.757 48.686,25.309 51.521,23.774C54.896,21.944 58.311,20.219 61.127,17.508C63.342,15.378 64.38,12.653 65.156,9.85C67.259,2.278 66.906,-5.305 64.857,-12.849C64.561,-13.933 63.719,-14.35 62.864,-14.813C56.343,-18.353 49.278,-20.51 42.294,-22.874C36.427,-24.858 30.513,-26.729 24.989,-29.596C20.261,-32.049 16.022,-35.107 12.924,-39.55C12.817,-39.704 12.631,-39.795 12.352,-40.024C11.85,-35.802 11.104,-31.773 10.091,-27.791C8.756,-22.556 6.699,-17.603 4.388,-12.742C2.827,-9.458 1.355,-6.142 0,-2.767" style="fill:rgb(193,20,3);fill-rule:nonzero;"/>
                </g>
                <g transform="matrix(1,0,0,1,644.672,270.866)">
                    <path d="M0,-10.407C0.069,-11.177 0.577,-12.181 -0.399,-12.783C-1.661,-13.563 -2.985,-14.25 -4.546,-13.75C-5.117,-13.563 -7.001,-11.943 -7.648,-10.793C-9.544,-7.423 -8.975,-4.188 -6.702,-1.238C-5.653,0.125 -1.249,3.2 0.583,3.843C0.895,2.753 -1.066,-1.858 0,-10.407" style="fill:rgb(253,219,171);"/>
                </g>
                <g transform="matrix(1,0,0,1,642.644,269.006)">
                    <path d="M0,-5.69C-1.174,-7.446 -2.577,-7.954 -4.17,-6.85C-3.309,-6.211 -2.154,-6.132 -1.473,-5.239C-1.125,-4.785 -0.975,-4.477 -1.215,-3.894C-2.371,-1.078 -2.066,-0.259 0.712,1.175C1.271,1.463 1.772,1.73 2.101,2.264C1.772,0.536 1.836,-2.951 0,-5.69" style="fill:rgb(249,193,134);"/>
                </g>
                <g transform="matrix(1,0,0,1,655.577,270.093)">
                    <path d="M0,-20.785C3.605,-26.862 5.727,-33.297 5.279,-40.443C5.249,-40.921 5.274,-41.405 5.274,-42.302C8.388,-37.692 12.018,-34.323 16.626,-32.117C20.854,-30.094 25.239,-28.452 29.685,-26.982C34.908,-25.257 50.802,-20.056 53.433,-18.907C56.356,-17.874 56.284,-3.018 56.124,-1.504C55.788,1.693 54.947,4.715 53.326,7.503C53.125,7.816 52.94,8.142 52.73,8.448C52.53,8.737 51.184,10.712 50.509,11.382C47.049,14.801 42.841,16.995 38.305,18.587C35.753,19.479 33.198,20.405 30.516,20.828C30.096,20.894 29.671,20.941 29.244,20.981C27.36,21.187 23.786,21.517 21.707,21.304L21.707,21.316C21.687,21.313 21.664,21.311 21.643,21.311C15.383,20.823 9.588,19.049 4.649,14.877C4.135,14.474 3.608,14.082 3.108,13.66C-2.68,8.791 -5.313,2.365 -5.624,1.625C-7.075,-1.844 -7.532,-5.253 -5.948,-8.945C-4.195,-13.024 -2.258,-16.987 0,-20.785" style="fill:rgb(255,221,173);fill-rule:nonzero;"/>
                </g>
                <g transform="matrix(1,0,0,1,707.438,258.657)">
                    <path d="M0,20.264C4.326,12.88 3.702,7.042 3.687,5.313C3.674,4.094 3.806,-6.002 0.042,-7.208C-2.685,-8.084 -14.636,-11.618 -16.32,-12.027C-17.235,-12.253 -17.947,-12.13 -18.511,-11.18C-22.829,-3.908 -23.66,3.628 -20.347,11.511C-19.951,12.449 -18.691,14.758 -19.079,15.069C-19.898,15.725 -21.091,15.82 -21.993,16.261C-25.052,17.774 -26.194,23.98 -25.66,27.889C-25.481,29.541 -24.714,30.997 -24.142,32.517C-20.893,32.257 -18.003,31.056 -14.826,30.093C-9.738,28.546 -2.23,24.065 0,20.264" style="fill:rgb(255,213,166);"/>
                </g>
                <g transform="matrix(0.127934,0.991783,0.991783,-0.127934,681.975,269.939)">
                    <path d="M4.588,-4.03C5.222,-4.031 5.734,-1.958 5.734,0.594C5.736,3.147 5.223,5.218 4.588,5.217C3.954,5.216 3.437,3.147 3.44,0.593C3.438,-1.959 3.954,-4.031 4.588,-4.03" style="fill:rgb(234,154,107);"/>
                </g>
                <g transform="matrix(1,0,0,1,680.734,278.706)">
                    <path d="M0,8.73C0.709,9.001 1.872,8.873 2.549,8.664C3.588,8.345 4.049,7.194 3.416,5.93C2.935,4.963 3.069,4.362 3.616,3.793C3.757,3.647 4.036,3.278 4.174,3.129C5.466,1.738 5.413,0.602 3.187,0.038C2.892,-0.037 2.1,-0.143 1.795,-0.16C-0.57,-0.271 -2.521,1.279 -4.992,1.43C-5.867,1.486 -5.305,2.352 -5.114,2.727C-3.863,5.198 -2.632,7.726 0,8.73" style="fill:rgb(254,122,133);"/>
                </g>
                <g transform="matrix(0,1,1,0,682.325,278.383)">
                    <path d="M1.67,-1.666C1.95,-1.666 2.181,-0.919 2.181,0.003C2.181,0.924 1.95,1.67 1.67,1.67C1.386,1.67 1.156,0.924 1.156,0.003C1.156,-0.919 1.386,-1.666 1.67,-1.666" style="fill:rgb(255,137,147);fill-rule:nonzero;"/>
                </g>
                <g transform="matrix(-0.0314781,0.999504,0.999504,0.0314781,681.931,284.726)">
                    <path d="M1.665,-1.721C1.95,-1.722 2.177,-0.974 2.178,-0.054C2.178,0.871 1.949,1.617 1.665,1.615C1.382,1.615 1.156,0.867 1.154,-0.054C1.155,-0.976 1.386,-1.722 1.665,-1.721" style="fill:rgb(255,137,147);fill-rule:nonzero;"/>
                </g>
                <g transform="matrix(1,0,0,1,669.435,248.706)">
                    <path d="M0,1.84C-4.214,-1.327 -7.466,-0.952 -11.125,3.167C-7.39,1.625 -3.926,1.476 0,1.84" style="fill:rgb(152,91,54);"/>
                </g>
                <g transform="matrix(0.68714,-0.726525,-0.726525,-0.68714,673.981,261.011)">
                    <path d="M-6.233,-3.903C-6.233,-3.903 -2.736,-1.35 -1.917,1.995C-1.245,4.735 -1.681,9.324 -6.233,11.23C-10.784,13.133 -14.825,9.779 -15.065,7.067C-15.316,4.18 -11.318,-1.18 -6.233,-3.903" style="fill:rgb(244,246,245);"/>
                </g>
                <g transform="matrix(1,0,0,1,658.143,255.058)">
                    <path d="M0,11.692C0,11.692 -0.607,10.397 -0.478,8.644C-0.403,7.588 -0.11,5.47 2.152,3.675C4.404,1.893 7.032,1.834 9.789,3.012C10.657,3.381 12.27,4.691 13.653,6.646C10.978,1.092 6.33,0 2.968,1.439C1.235,2.182 -0.197,3.801 -0.694,4.566C-1.379,5.623 -2.142,8.838 0,11.692" style="fill:rgb(12,10,9);"/>
                </g>
                <g transform="matrix(0.15128,0.988491,0.988491,-0.15128,662.45,257.675)">
                    <path d="M5.827,-5.004C8.926,-4.954 11.439,-2.272 11.437,0.985C11.438,4.237 8.928,6.836 5.827,6.789C2.73,6.735 0.216,4.057 0.217,0.8C0.217,-2.455 2.728,-5.054 5.827,-5.004" style="fill:rgb(38,130,221);"/>
                </g>
                <g transform="matrix(0.151168,0.988508,0.988508,-0.151168,663.304,260.396)">
                    <path d="M3.008,-2.583C4.606,-2.559 5.904,-1.174 5.905,0.508C5.903,2.19 4.607,3.53 3.008,3.503C1.409,3.476 0.112,2.093 0.11,0.414C0.112,-1.269 1.409,-2.609 3.008,-2.583" style="fill:rgb(6,76,124);"/>
                </g>
                <g transform="matrix(0.675341,0.737506,0.737506,-0.675341,654.955,256.78)">
                    <path d="M0.52,-0.23C1.565,-0.174 2.414,0.187 2.413,0.578C2.41,0.969 1.565,1.241 0.52,1.186C-0.525,1.128 -1.37,0.766 -1.37,0.376C-1.369,-0.016 -0.523,-0.286 0.52,-0.23" style="fill:rgb(12,10,9);"/>
                </g>
                <g transform="matrix(0.917231,0.398357,0.398357,-0.917231,653.45,260.459)">
                    <path d="M0.276,-0.058C1.345,-0.018 2.21,0.324 2.207,0.708C2.205,1.088 1.339,1.37 0.276,1.328C-0.79,1.289 -1.652,0.949 -1.653,0.564C-1.651,0.18 -0.789,-0.097 0.276,-0.058" style="fill:rgb(12,10,9);"/>
                </g>
                <g transform="matrix(0.989,0.147915,0.147915,-0.989,653.398,264.006)">
                    <path d="M0.102,-0.008C1.175,0.006 2.043,0.328 2.043,0.707C2.043,1.088 1.175,1.385 0.102,1.372C-0.973,1.357 -1.84,1.036 -1.84,0.657C-1.84,0.275 -0.971,-0.02 0.102,-0.008" style="fill:rgb(12,10,9);"/>
                </g>
                <g transform="matrix(-0.999352,0.0359878,0.0359878,0.999352,667.391,265.819)">
                    <path d="M0.132,-2.525C1.125,-2.576 1.41,-1.981 1.408,-1.206C1.412,-0.429 0.944,-0.015 0.132,0.003C-0.76,0.029 -1.228,-0.41 -1.24,-1.252C-1.25,-2.113 -0.725,-2.488 0.132,-2.525" style="fill:rgb(244,246,245);"/>
                </g>
                <g transform="matrix(1,0,0,1,692.809,247.943)">
                    <path d="M0,1.848C4.215,-1.325 7.466,-0.948 11.127,3.173C7.391,1.63 3.926,1.479 0,1.848" style="fill:rgb(152,91,54);"/>
                </g>
                <g transform="matrix(0.687173,0.726494,0.726494,-0.687173,688.261,260.253)">
                    <path d="M6.234,-3.903C6.234,-3.903 2.738,-1.349 1.919,1.994C1.246,4.738 1.685,9.326 6.234,11.228C10.788,13.134 14.828,9.779 15.065,7.065C15.318,4.179 11.321,-1.177 6.234,-3.903" style="fill:rgb(244,246,245);"/>
                </g>
                <g transform="matrix(0.151388,-0.988474,-0.988474,-0.151388,698.257,256.919)">
                    <path d="M-5.828,-5C-8.926,-4.949 -11.435,-2.269 -11.438,0.987C-11.437,4.24 -8.927,6.84 -5.828,6.791C-2.729,6.739 -0.217,4.059 -0.216,0.801C-0.215,-2.45 -2.727,-5.052 -5.828,-5" style="fill:rgb(38,130,221);"/>
                </g>
                <g transform="matrix(0.151551,-0.988449,-0.988449,-0.151551,697.404,259.636)">
                    <path d="M-3.011,-2.582C-4.61,-2.554 -5.906,-1.172 -5.908,0.508C-5.908,2.188 -4.612,3.53 -3.011,3.508C-1.416,3.479 -0.114,2.098 -0.115,0.417C-0.117,-1.263 -1.413,-2.604 -3.011,-2.582" style="fill:rgb(6,76,124);"/>
                </g>
                <g transform="matrix(0.676719,-0.736242,-0.736242,-0.676719,707.287,256.025)">
                    <path d="M-0.518,-0.229C-1.563,-0.177 -2.411,0.183 -2.411,0.574C-2.411,0.964 -1.565,1.238 -0.518,1.182C0.526,1.129 1.37,0.77 1.371,0.38C1.374,-0.01 0.524,-0.284 -0.518,-0.229" style="fill:rgb(12,10,9);"/>
                </g>
                <g transform="matrix(0.917459,-0.39783,-0.39783,-0.917459,708.792,259.701)">
                    <path d="M-0.276,-0.057C-1.343,-0.018 -2.204,0.322 -2.206,0.708C-2.204,1.089 -1.339,1.369 -0.276,1.33C0.79,1.289 1.653,0.949 1.655,0.565C1.653,0.182 0.79,-0.098 -0.276,-0.057" style="fill:rgb(12,10,9);"/>
                </g>
                <g transform="matrix(0.988738,-0.149655,-0.149655,-0.988738,708.849,263.246)">
                    <path d="M-0.103,-0.008C-1.178,0.006 -2.047,0.329 -2.044,0.708C-2.047,1.087 -1.177,1.385 -0.103,1.369C0.968,1.351 1.839,1.032 1.838,0.651C1.838,0.273 0.97,-0.026 -0.103,-0.008" style="fill:rgb(12,10,9);"/>
                </g>
                <g transform="matrix(-0.999352,-0.0359878,-0.0359878,0.999352,698.429,265.056)">
                    <path d="M-0.136,-2.518C-1.127,-2.572 -1.412,-1.974 -1.41,-1.199C-1.414,-0.425 -0.946,-0.012 -0.136,0.01C0.758,0.033 1.226,-0.405 1.236,-1.246C1.242,-2.108 0.719,-2.484 -0.136,-2.518" style="fill:rgb(244,246,245);"/>
                </g>
                <g transform="matrix(1,0,0,1,704.101,254.297)">
                    <path d="M0,11.694C0,11.694 0.607,10.398 0.48,8.647C0.403,7.59 0.11,5.475 -2.152,3.68C-4.404,1.898 -7.029,1.839 -9.789,3.015C-10.657,3.385 -12.267,4.693 -13.653,6.646C-10.978,1.096 -6.328,0 -2.966,1.44C-1.232,2.183 0.195,3.803 0.695,4.57C1.382,5.626 2.138,8.843 0,11.694" style="fill:rgb(12,10,9);"/>
                </g>
                <g transform="matrix(1,0,0,1,650.889,266.92)">
                    <path d="M0,-5.708C-0.237,-9.476 0.412,-11.224 2.698,-11.84C6.244,-12.792 9.847,-12.552 13.489,-12.292C16.125,-12.1 18.669,-11.552 21.162,-10.795C23.42,-10.112 24.33,-8.607 24.306,-6.225C24.277,-4.003 23.746,-1.864 22.909,0.154C21.494,3.548 19.214,6.216 15.27,6.923C11.58,7.34 9.257,6.965 6.206,6.211C0.355,4.764 0.156,-3.486 0,-5.708M-5.386,-11.619C-5.161,-9.754 -3.868,-8.566 -3.275,-7.01C-2.458,-4.856 -2.062,-2.546 -1.475,-0.302C-0.837,2.124 -0.325,4.736 1.802,6.302C2.872,7.091 4.086,7.6 5.383,8.01C9.982,9.455 14.657,9.52 18.926,7.493C21.514,6.267 23.214,3.831 23.672,3.058C25.33,0.267 26.073,-3.06 28.026,-5.656C28.541,-6.341 29.371,-6.524 30.059,-6.532L30.059,-11.18C28.534,-11.183 27.002,-11.451 25.45,-11.905C16.829,-14.408 8.031,-15.228 -0.914,-14.476C-1.765,-14.02 -2.68,-14.115 -3.59,-14.155C-5.237,-14.04 -5.589,-13.299 -5.386,-11.619" style="fill:rgb(17,17,17);"/>
                </g>
                <g transform="matrix(1,0,0,1,704.226,255.001)">
                    <path d="M0,18.129C-3.052,18.883 -5.376,19.258 -9.063,18.841C-13.009,18.135 -15.288,15.466 -16.701,12.073C-17.541,10.055 -18.073,7.915 -18.1,5.693C-18.125,3.311 -17.215,1.806 -14.958,1.123C-12.462,0.366 -9.919,-0.182 -7.282,-0.374C-3.645,-0.634 -0.039,-0.874 3.508,0.078C5.792,0.695 6.444,2.442 6.205,6.21C6.049,8.432 5.848,16.682 0,18.129M9.796,-2.236C8.886,-2.197 7.972,-2.101 7.12,-2.558C-1.824,-3.309 -10.625,-2.489 -19.246,0.014C-20.797,0.467 -22.33,0.736 -23.853,0.738L-23.853,5.386C-23.161,5.394 -22.334,5.577 -21.819,6.262C-19.867,8.858 -19.125,12.185 -17.468,14.976C-17.007,15.75 -15.308,18.185 -12.722,19.411C-8.452,21.438 -3.777,21.373 0.822,19.928C2.118,19.518 3.334,19.01 4.403,18.22C6.527,16.654 7.045,14.042 7.679,11.616C8.266,9.372 8.662,7.063 9.482,4.909C10.072,3.352 11.365,2.164 11.589,0.299C11.792,-1.381 11.442,-2.121 9.796,-2.236" style="fill:rgb(17,17,17);"/>
                </g>
                <g transform="matrix(1,0,0,1,663.987,466.241)">
                    <path d="M0,-5.225C0.381,-6.535 1.057,-7.718 1.965,-8.704C4.295,-11.242 5.103,-14.273 5.115,-17.61L9.965,-17.77C9.844,-16.582 9.735,-15.394 9.643,-14.202C9.5,-12.368 9.305,-10.524 9.676,-8.658C10.461,-4.69 11.577,-0.816 12.874,3.001C13.627,5.223 14.246,7.59 16.546,8.865C16.09,8.911 15.635,8.962 15.087,9.018C15.635,8.962 16.09,8.911 16.546,8.865C16.964,8.933 17.379,9.001 17.794,9.07C18.805,8.84 19.475,9.18 19.716,10.062C19.979,11.028 19.24,11.235 18.597,11.477C18.299,11.59 17.971,11.626 17.656,11.694C16.979,12.039 16.355,12.545 15.518,12.431C14.222,12.417 12.999,12.029 11.756,11.725C10.648,11.776 9.563,11.576 8.485,11.352C6.032,10.992 5.57,10.932 5.305,7.779C5.237,6.982 5.277,6.178 5.184,5.385C4.906,3.027 4.074,0.989 1.965,-0.386C1.167,-0.906 0.319,-1.493 0.159,-2.587C-0.319,-3.44 -0.26,-4.333 0,-5.225" style="fill:rgb(45,40,41);fill-rule:nonzero;"/>
                </g>
                <g transform="matrix(1,0,0,1,685.709,467.898)">
                    <path d="M0,-10.678C0.702,-11.851 1.66,-12.821 2.788,-13.545C5.687,-15.401 7.243,-18.129 8.104,-21.348L12.834,-20.269C12.416,-19.153 12.006,-18.028 11.614,-16.904C11.007,-15.167 10.35,-13.432 10.23,-11.533C9.979,-7.497 10.072,-3.466 10.35,0.558C10.513,2.898 10.511,5.34 12.41,7.163C11.958,7.093 11.503,7.021 10.962,6.94C11.503,7.021 11.958,7.093 12.41,7.163C12.796,7.333 13.178,7.505 13.565,7.679C14.601,7.714 15.161,8.213 15.17,9.128C15.177,10.127 14.412,10.14 13.726,10.211C13.409,10.244 13.084,10.193 12.763,10.18C12.016,10.342 11.285,10.67 10.507,10.346C9.257,10.003 8.171,9.316 7.049,8.705C5.963,8.474 4.966,8.005 3.98,7.513C1.701,6.54 1.267,6.363 1.816,3.245C1.954,2.461 2.197,1.69 2.309,0.899C2.642,-1.448 2.359,-3.633 0.669,-5.498C0.028,-6.206 -0.639,-6.991 -0.517,-8.087C-0.763,-9.035 -0.478,-9.883 0,-10.678" style="fill:rgb(45,40,41);fill-rule:nonzero;"/>
                </g>
                <g transform="matrix(1,0,0,1,679.653,413.131)">
                    <path d="M0,-55.445C-0.008,-60.569 -4.156,-64.718 -9.266,-64.709C-13.989,-64.705 -17.879,-61.15 -18.434,-56.565C-19.319,-51.944 -19.604,-47.271 -18.844,-42.508C-17.899,-36.577 -16.438,-30.761 -14.914,-24.959C-12.756,-16.724 -11.233,-8.376 -11.521,0.189C-11.567,1.492 -11.677,2.794 -11.806,4.093L-11.789,4.096C-11.795,4.171 -11.801,4.242 -11.801,4.319C-11.798,7.055 -9.612,9.273 -6.917,9.27C-4.382,9.268 -2.302,7.297 -2.07,4.786L-2.066,4.786C-0.883,-3.417 -0.381,-11.667 -0.308,-19.953C-0.24,-27.281 0.19,-34.604 -0.049,-41.932C-0.056,-42.164 0.006,-50.32 0,-55.445" style="fill:rgb(104,144,155);fill-rule:nonzero;"/>
                </g>
                <g transform="matrix(1,0,0,1,699.491,413.151)">
                    <path d="M0,-57.128C-1.278,-62.087 -6.324,-65.08 -11.271,-63.805C-15.847,-62.629 -18.732,-58.219 -18.135,-53.641C-17.848,-48.945 -16.962,-44.347 -15.045,-39.923C-12.661,-34.412 -9.802,-29.139 -6.889,-23.896C-2.756,-16.452 0.792,-8.746 2.633,-0.374C2.916,0.901 3.132,2.187 3.332,3.478L3.344,3.475C3.362,3.551 3.371,3.621 3.391,3.695C4.073,6.346 6.739,7.952 9.35,7.28C11.801,6.65 13.33,4.226 12.933,1.736L12.938,1.733C12.048,-6.506 10.489,-14.622 8.506,-22.668C6.753,-29.785 5.352,-36.986 3.303,-44.028C3.239,-44.245 1.278,-52.166 0,-57.128" style="fill:rgb(104,144,155);fill-rule:nonzero;"/>
                </g>
                <g transform="matrix(1,0,0,1,718.755,368.087)">
                    <path d="M0,-8.702C-0.538,-9.08 -1.082,-9.295 -1.493,-9.41C-1.682,-7.764 -1.68,-6.092 -1.115,-4.554C-0.535,-2.984 -0.188,-2.188 0.173,-0.564C0.323,0.116 0.781,0.708 1.305,0.658L1.305,0.655C1.92,0.526 1.528,-0.765 2.01,-1.807L2.066,-3.696C2.138,-5.963 1.421,-7.693 0,-8.702" style="fill:rgb(254,220,171);fill-rule:nonzero;"/>
                </g>
                <g transform="matrix(1,0,0,1,690.816,301.18)">
                    <path d="M0,0.302C-0.254,0.323 -0.462,0.261 -0.562,-0.001C-0.309,-0.021 -0.111,0.065 0,0.302" style="fill:rgb(252,222,171);"/>
                </g>
                <g transform="matrix(1,0,0,1,706.144,305.442)">
                    <path d="M0,26.291C0.766,28.072 0.958,30.021 -0.572,30.684L-1.267,30.982C-2.798,31.641 -4.434,29.996 -5.202,28.214L-17.914,0.034C-18.683,-1.747 -18.065,-3.727 -16.532,-4.39L-15.84,-4.688C-14.306,-5.35 -12.441,-4.444 -11.671,-2.663L0,26.291Z" style="fill:rgb(254,220,171);fill-rule:nonzero;"/>
                </g>
                <g transform="matrix(1,0,0,1,719.767,337.432)">
                    <path d="M0,17.466C1.084,19.04 2.843,23.008 1.864,23.637C0.459,24.54 -1.44,24.061 -1.881,22.355C-2.388,20.396 -4.574,17.344 -5.666,15.873C-8.857,11.554 -17.902,-1.579 -17.902,-1.579C-18.855,-3.067 -18.487,-4.999 -17.081,-5.901L-16.66,-6.172C-15.256,-7.074 -13.482,-5.88 -12.528,-4.397L0,17.466Z" style="fill:rgb(254,220,171);fill-rule:nonzero;"/>
                </g>
                <g transform="matrix(1,0,0,1,726.145,367.175)">
                    <path d="M0,-4.023C-0.149,-4.364 -0.336,-4.669 -0.552,-4.895C-2.37,-6.801 -4.06,-8.799 -5.56,-10.937L-8.041,-9.705L-8.766,-9.347C-8.849,-9.225 -8.823,-9.099 -8.775,-8.97C-8.785,-8.894 -8.795,-8.816 -8.803,-8.74C-8.987,-7.107 -5.16,-0.884 -5.16,-0.884C-5.127,-0.853 -5.093,-0.819 -5.058,-0.786C-4.836,-0.439 -4.575,-0.065 -4.267,0.341C-3.253,1.675 -2.671,6.115 -1.777,6.562C-1.777,6.562 -1.249,6.914 -0.686,6.205C0.101,5.215 0.984,0.188 0.833,-1.606C0.761,-2.467 0.007,-4.02 0.007,-4.02C0.007,-4.02 0.004,-4.02 0,-4.023" style="fill:rgb(254,220,171);fill-rule:nonzero;"/>
                </g>
                <g transform="matrix(1,0,0,1,658.341,305.053)">
                    <path d="M0,28.304C-0.531,30.168 -0.466,32.127 1.14,32.584L1.867,32.787C3.473,33.242 4.879,31.398 5.409,29.532L14.319,-0.075C14.847,-1.94 13.975,-3.824 12.368,-4.278L11.643,-4.483C10.038,-4.938 8.306,-3.793 7.777,-1.926L0,28.304Z" style="fill:rgb(254,220,171);fill-rule:nonzero;"/>
                </g>
                <g transform="matrix(1,0,0,1,661.743,376.877)">
                    <path d="M0,-44.174L-0.454,-44.387C-1.965,-45.097 -3.569,-43.684 -4.317,-42.087L-13.875,-18.773C-14.069,-18.393 -14.28,-17.886 -14.48,-17.328L-14.507,-17.337C-15.714,-15.019 -17.131,-12.82 -18.683,-10.69C-18.867,-10.438 -19.012,-10.11 -19.115,-9.754C-19.12,-9.751 -19.122,-9.748 -19.122,-9.748C-19.122,-9.748 -19.666,-8.11 -19.627,-7.247C-19.544,-5.45 -18.006,-0.582 -17.097,0.297C-16.447,0.923 -15.969,0.506 -15.969,0.506C-15.141,-0.053 -15.143,-4.53 -14.313,-5.987C-14.062,-6.428 -13.853,-6.835 -13.677,-7.205C-13.649,-7.244 -13.618,-7.28 -13.59,-7.317C-13.59,-7.317 -13.527,-7.46 -13.427,-7.691L-13.372,-7.359C-12.76,-6.389 -12.981,-5.053 -12.354,-5.008L-12.354,-5.005C-11.825,-5.023 -11.452,-5.672 -11.39,-6.362C-11.245,-8.023 -11.004,-8.859 -10.636,-10.491C-10.277,-12.088 -10.493,-13.747 -10.898,-15.353C-10.921,-15.343 -11.011,-15.608 -11.015,-15.622C-10.395,-17.53 -9.162,-19.834 -8.466,-21.095C-5.87,-25.795 1.381,-40.001 1.381,-40.001C2.129,-41.595 1.511,-43.463 0,-44.174" style="fill:rgb(254,220,171);fill-rule:nonzero;"/>
                </g>
                <g transform="matrix(1,0,0,1,696.34,369.298)">
                    <path d="M0,-24.332C-5.67,-22.71 -11.041,-22.123 -15.781,-22.092C-23.342,-22.045 -29.278,-23.418 -32.231,-24.269C-32.798,-22.439 -33.404,-20.461 -33.742,-19.304C-34.139,-17.958 -34.495,-16.603 -34.801,-15.248C-32.503,-9.926 -27.02,-0.54 -16.802,0C-16.089,-0.003 -15.259,-0.167 -15.169,-0.009C-4.959,-0.677 0.41,-10.13 2.64,-15.482C2.316,-16.832 1.942,-18.179 1.531,-19.523C1.187,-20.645 0.577,-22.548 0,-24.332" style="fill:rgb(104,144,155);fill-rule:nonzero;"/>
                </g>
                <g transform="matrix(1,0,0,1,667.276,413.764)">
                    <path d="M0,40.702L6.448,41.347C6.454,41.272 6.454,41.195 6.459,41.12C6.794,36.213 7.08,31.301 7.406,26.396C7.801,20.511 8.337,14.647 9.28,8.841C9.461,7.72 9.626,6.593 9.782,5.467C9.844,5.193 9.885,4.911 9.9,4.62C9.906,4.584 9.912,4.548 9.916,4.511L9.903,4.511C9.906,4.436 9.914,4.363 9.914,4.285C9.878,1.546 7.667,-0.645 4.972,-0.613C2.437,-0.579 0.38,1.414 0.175,3.93L0.168,3.93C-0.049,6.457 -0.327,8.983 -0.323,11.509C-0.296,21.24 -0.18,30.971 0,40.702" style="fill:rgb(104,144,155);fill-rule:nonzero;"/>
                </g>
                <g transform="matrix(1,0,0,1,709.06,453.669)">
                    <path d="M0,-40.858C-2.405,-41.66 -5.004,-40.451 -6.021,-38.139L-6.027,-38.144C-7.063,-35.827 -8.157,-33.535 -8.979,-31.146C-12.487,-20.949 -15.896,-10.715 -19.228,-0.458L-12.889,0.802C-12.728,0.212 -12.531,-0.373 -12.285,-0.946C-10.36,-5.473 -8.479,-10.018 -6.559,-14.546C-4.257,-19.977 -1.826,-25.34 0.969,-30.514C1.508,-31.517 2.031,-32.525 2.551,-33.538C2.698,-33.775 2.827,-34.029 2.938,-34.299C2.954,-34.331 2.972,-34.365 2.989,-34.396L2.976,-34.402C3.004,-34.472 3.035,-34.539 3.062,-34.611C3.928,-37.208 2.555,-40.006 0,-40.858" style="fill:rgb(104,144,155);fill-rule:nonzero;"/>
                </g>
                <g transform="matrix(-0.99936,0.0357587,0.0357587,0.99936,664.115,461.876)">
                    <path d="M-1.893,15.652L-0.83,15.652L-0.278,0.008L-2.408,0.004L-1.893,15.652Z" style="fill:rgb(45,40,41);fill-rule:nonzero;"/>
                </g>
                <g transform="matrix(-0.923133,-0.384482,-0.384482,0.923133,690.545,457.693)">
                    <path d="M2.418,15.539L3.482,15.539L4.011,-0.107L1.886,-0.107L2.418,15.539Z" style="fill:rgb(45,40,41);fill-rule:nonzero;"/>
                </g>
                <g transform="matrix(-0.447809,0.894129,0.894129,0.447809,682.87,290.418)">
                    <path d="M3.313,-4.461C3.312,-4.374 0.454,0.22 0.077,0.676C1.066,1.23 2.218,1.725 3.313,2.256C3.482,0.909 3.876,-1.622 4.682,-3.802C4.236,-4.029 3.782,-4.253 3.313,-4.461" style="fill:rgb(255,213,166);fill-rule:nonzero;"/>
                </g>
                <g transform="matrix(0.371391,-0.928477,-0.928477,-0.371391,676.792,300.557)">
                    <path d="M-1.642,2.425L3.582,2.425" style="fill:none;fill-rule:nonzero;"/>
                </g>
                <g transform="matrix(1,0,0,1,694.93,301.031)">
                    <path d="M0,40.683C-1.096,37.596 -6.379,28.566 -6.093,20.156C-6.068,19.464 -5.95,15.223 -5.763,14.558C-5.373,13.069 -4.695,11.509 -4.69,11.5C-4.499,10.74 -3.146,8.978 -2.128,5.139C-0.882,0.435 -2.624,-0.251 -3.354,-0.657C-3.834,-0.925 -5.969,-1.49 -6.621,-1.511C-6.819,-1.517 -7.623,-1.513 -8.772,-1.502C-10.235,-1.793 -11.342,-3.144 -11.493,-5.469C-11.518,-5.857 -11.527,-6.256 -11.527,-6.659C-12.747,-7.097 -15.218,-7.902 -17.549,-8.164C-17.541,-7.067 -17.543,-5.999 -17.741,-4.964C-17.752,-4.908 -17.756,-4.851 -17.768,-4.795C-17.947,-3.958 -18.446,-3.275 -19.09,-2.782C-19.08,-2.775 -19.069,-2.768 -19.058,-2.761L-19.059,-2.76C-19.153,-2.267 -20.007,-1.351 -20.402,-1.345L-20.049,-2.226C-20.202,-2.167 -20.359,-2.117 -20.518,-2.079C-21.951,-1.729 -23.74,-1.586 -24.882,-1.271C-25.231,-1.175 -25.585,-1.051 -25.846,-0.782C-26.206,-0.685 -26.508,-0.59 -26.651,-0.515C-27.256,-0.197 -29.108,0.611 -27.802,5.301C-26.736,9.127 -25.363,10.87 -25.163,11.628C-25.157,11.635 -24.461,13.188 -24.054,14.67C-23.856,15.333 -23.687,19.575 -23.653,20.266C-23.26,28.67 -28.434,37.764 -29.492,40.867C-29.596,41.176 -30.121,42.837 -30.708,44.728C-25.948,46.103 -13.315,48.847 1.309,44.666C0.68,42.727 0.112,40.999 0,40.683" style="fill:rgb(252,222,171);fill-rule:nonzero;"/>
                </g>
                <g transform="matrix(1,0,0,1,675.87,303.121)">
                    <path d="M0,-6.79L-1.263,-4.579L-3.88,0L-1.94,-1.94L-0.849,-4.668L0,-6.79Z" style="fill:white;fill-rule:nonzero;"/>
                </g>
                <g transform="matrix(1,0,0,1,676.84,297.269)">
                    <path d="M0,4.882C-0.93,3.981 -1.275,2.61 -0.97,1.002L-0.969,1.002C-0.979,0.995 -0.99,0.987 -1.001,0.98C-0.356,0.487 0.142,-0.195 0.321,-1.033C0.333,-1.089 0.338,-1.146 0.349,-1.202L-0.97,-0.938L-1.819,1.184L-1.96,1.536L-2.91,3.912L-1.94,4.882C-1.711,5.097 -1.362,5.251 -0.982,5.393C-0.372,5.62 0.341,5.805 0.949,6.084C0.679,5.643 0.366,5.236 0,4.882" style="fill:rgb(218,218,218);fill-rule:nonzero;"/>
                </g>
                <g transform="matrix(1,0,0,1,679.75,322.211)">
                    <path d="M0,0.309C-0.011,0.207 -0.015,0.102 -0.024,0C-0.015,0.102 -0.011,0.207 0,0.309" style="fill:white;fill-rule:nonzero;"/>
                </g>
                <g transform="matrix(1,0,0,1,697.327,312.684)">
                    <path d="M0,32.146C-0.545,28.66 -3.248,20.087 -3.997,16.626C-4.465,14.465 -6.41,2.529 -6.059,0.264C-6.007,-0.074 -0.987,12.792 3.445,22.276C4.238,23.973 15.786,39.781 19.452,45.486C19.888,46.163 22.463,44.688 22.993,44.448C23.615,44.174 23.557,43.782 23.379,43.188C23.063,42.141 10.109,18.762 9.118,18.852C3.13,3.949 -2.503,-11.703 -3.646,-12.274C-3.692,-12.297 -3.744,-12.306 -3.794,-12.305C-4.004,-12.304 -4.172,-12.374 -4.259,-12.602L-4.364,-12.65C-5.775,-12.743 -9.658,-14.017 -11.222,-13.916L-11.116,-13.693L-9.306,-9.894C-9.177,-9.624 -9.486,-9.356 -9.736,-9.521C-9.954,-9.666 -10.24,-9.477 -10.188,-9.22C-9.849,-7.53 -9.72,-5.253 -10.175,-2.288C-11.146,4.043 -15.967,9.411 -17.868,11.314C-18.081,11.529 -18.44,11.318 -18.36,11.026L-18.101,10.073C-20.653,17.227 -17.993,33.949 -17.652,35.917C-17.631,36.04 -17.537,36.136 -17.414,36.156C-13.518,36.792 -4.606,33.498 -1.087,35.015C-0.704,35.18 -0.334,35.364 0.082,35.349C0.202,35.345 0.314,35.271 0.353,35.156C0.702,34.113 0.155,33.14 0,32.146" style="fill:rgb(131,173,187);fill-rule:nonzero;"/>
                </g>
                <g transform="matrix(1,0,0,1,683.747,321.75)">
                    <path d="M0,-19.563L0.853,-20.57C0.603,-20.368 0.329,-19.959 0,-19.563C-0.279,-19.227 -0.6,-18.903 -0.982,-18.72C-1.295,-18.569 -1.649,-18.512 -2.057,-18.63C-4.236,-15.608 -4.677,-11.529 -4.967,-9.9C-5.159,-8.818 -4.631,-6.388 -4.378,-3.975C-4.252,-2.773 -4.193,-1.575 -4.326,-0.55C-4.383,-0.105 -4.443,0.573 -4.521,1.007C-4.458,0.874 -4.329,0.409 -4.136,0.076C-3.373,-1.233 -2.63,-2.551 -0.839,-7.954C1.187,-14.067 0,-19.563 0,-19.563" style="fill:rgb(237,237,237);fill-rule:nonzero;"/>
                </g>
                <g transform="matrix(1,0,0,1,683.381,303.238)">
                    <path d="M0,-7.172C0.007,-7.115 0.043,-6.793 0.051,-6.736C0.128,-6.166 0.078,-5.377 0.249,-4.968C0.622,-4.643 0.718,-4.154 0.688,-3.66C0.647,-3.016 0.392,-2.365 0.249,-2.058C0.155,-1.855 -0.094,-1.487 -0.404,-1.124C-0.801,-0.661 -1.296,-0.206 -1.691,-0.118C-1.283,0 -0.929,-0.057 -0.616,-0.207C-0.234,-0.391 0.087,-0.714 0.366,-1.051C0.695,-1.447 0.969,-1.856 1.219,-2.058L1.411,-3.726L1.539,-4.843L1.735,-6.546L0,-7.172Z" style="fill:rgb(218,218,218);fill-rule:nonzero;"/>
                </g>
                <g transform="matrix(1,0,0,1,686.211,301.453)">
                    <path d="M0,-2.462L-0.106,-2.685L-1.096,-4.761L-1.291,-3.058L-1.419,-1.941L-1.611,-0.273L0.766,1.302L2.269,2.299L0,-2.462Z" style="fill:white;fill-rule:nonzero;"/>
                </g>
                <g transform="matrix(1,0,0,1,675.848,322.321)">
                    <path d="M0,-19.222L0.022,-19.2C0.022,-19.2 0.013,-19.191 -0.001,-19.174C-0.084,-11.94 2.298,-3.205 3.378,0.437L3.806,-0.35C3.878,-0.645 3.872,-0.932 3.902,-1.275C4.122,-3.784 4.382,-8.823 4.382,-10.47C4.382,-13.689 3.889,-15.793 1.941,-18.968C1.333,-19.247 0.62,-19.432 0.01,-19.659C0.006,-19.514 0.002,-19.368 0,-19.222" style="fill:white;fill-rule:nonzero;"/>
                </g>
                <g transform="matrix(0,-1,-1,0,679.55,309.194)">
                    <path d="M-0.223,-0.223C-0.346,-0.223 -0.446,-0.123 -0.446,0C-0.446,0.123 -0.346,0.223 -0.223,0.223C-0.1,0.223 0,0.123 0,0C0,-0.123 -0.1,-0.223 -0.223,-0.223" style="fill-rule:nonzero;"/>
                </g>
                <g transform="matrix(0.997735,-0.0672631,-0.0672631,-0.997735,679.756,315.022)">
                    <path d="M-0.015,-0.001C-0.138,-0 -0.239,0.099 -0.239,0.222C-0.238,0.345 -0.138,0.446 -0.015,0.446C0.107,0.446 0.208,0.346 0.208,0.223C0.208,0.1 0.108,-0.001 -0.015,-0.001" style="fill-rule:nonzero;"/>
                </g>
                <g transform="matrix(0.997735,-0.0672631,-0.0672631,-0.997735,679.424,320.416)">
                    <path d="M-0.015,-0.001C-0.138,-0.001 -0.238,0.099 -0.239,0.222C-0.238,0.345 -0.139,0.446 -0.015,0.446C0.108,0.446 0.208,0.346 0.208,0.223C0.208,0.1 0.108,-0.001 -0.015,-0.001" style="fill-rule:nonzero;"/>
                </g>
                <g transform="matrix(1,0,0,1,687.152,315.558)">
                    <path d="M0,-5.161C0.522,-8.564 0.276,-11.059 -0.175,-12.802L-2.552,-14.377L-3.405,-13.37C-3.405,-13.37 -2.184,-7.705 -4.345,-1.503C-6.219,3.873 -6.777,4.959 -7.54,6.269C-7.681,6.56 -7.808,6.871 -7.926,7.2L-7.708,9.216C-7.708,9.216 -1.216,2.764 0,-5.161" style="fill:rgb(141,182,187);fill-rule:nonzero;"/>
                </g>
                <g transform="matrix(1,0,0,1,679.52,334.784)">
                    <path d="M0,-9.517C-9.584,-20.217 -5.59,-33.603 -5.59,-33.603L-7.53,-31.663L-4.913,-36.242C-6.217,-36.043 -7.519,-36.048 -9.054,-35.75C-12.086,-35.161 -13.433,-33.421 -14.32,-30.693C-14.468,-30.237 -20.843,-5.675 -22.08,-1.593C-26.111,11.706 -33.132,24.408 -32.75,24.596C-32.053,24.946 -28.579,26.152 -27.9,26.536C-27.208,26.725 -16.857,4.806 -15.29,1.317C-14.374,-0.722 -9.63,-21.209 -9.47,-20.023C-9.355,-19.176 -9.672,-7.431 -10.44,-4.503C-11.037,-2.228 -15.855,7.834 -16.279,10.148C-16.406,10.835 -17.038,12.147 -15.29,11.97C-12.18,11.398 0.811,14.657 1.2,13.926C1.53,13.305 1.273,-2.752 0,-9.517" style="fill:rgb(141,182,187);fill-rule:nonzero;"/>
                </g>
                <g transform="matrix(1,0,0,1,679.587,301.18)">
                    <path d="M0,24.791C-0.069,24.467 -0.367,21.341 -0.367,21.341C-1.447,17.7 -3.823,9.2 -3.74,1.967C-3.739,1.951 -3.739,1.935 -3.738,1.919C-3.736,1.772 -3.733,1.627 -3.728,1.481C-4.108,1.339 -4.457,1.185 -4.687,0.97L-5.656,0C-5.656,0 -10.67,12.824 -1.086,23.524C-0.793,23.822 -0.277,24.476 0,24.791" style="fill:rgb(131,173,187);fill-rule:nonzero;"/>
                </g>
                <g transform="matrix(0,-1,-1,0,678.938,327.722)">
                    <path d="M-0.558,-0.558C-0.866,-0.558 -1.116,-0.308 -1.116,0C-1.116,0.308 -0.866,0.558 -0.558,0.558C-0.25,0.558 0,0.308 0,0C0,-0.308 -0.25,-0.558 -0.558,-0.558" style="fill:rgb(255,194,55);fill-rule:nonzero;"/>
                </g>
                <g transform="matrix(0,-1,-1,0,679.393,334.96)">
                    <path d="M-0.558,-0.558C-0.866,-0.558 -1.116,-0.308 -1.116,0C-1.116,0.308 -0.866,0.558 -0.558,0.558C-0.25,0.558 0,0.308 0,0C0,-0.308 -0.25,-0.558 -0.558,-0.558" style="fill:rgb(255,194,55);fill-rule:nonzero;"/>
                </g>
                <g transform="matrix(0,-1,-1,0,679.447,342.197)">
                    <path d="M-0.558,-0.558C-0.866,-0.558 -1.116,-0.308 -1.116,0C-1.116,0.308 -0.866,0.558 -0.558,0.558C-0.25,0.558 0,0.308 0,0C0,-0.308 -0.25,-0.558 -0.558,-0.558" style="fill:rgb(255,194,55);fill-rule:nonzero;"/>
                </g>
            </g>
        </g>
    </g>
</svg>
