<?xml version="1.0" encoding="UTF-8" standalone="no"?>
<!DOCTYPE svg PUBLIC "-//W3C//DTD SVG 1.1//EN" "http://www.w3.org/Graphics/SVG/1.1/DTD/svg11.dtd">
<svg width="100%" height="100%" viewBox="0 0 228 86" version="1.1" xmlns="http://www.w3.org/2000/svg" xmlns:xlink="http://www.w3.org/1999/xlink" xml:space="preserve" xmlns:serif="http://www.serif.com/" style="fill-rule:evenodd;clip-rule:evenodd;stroke-linejoin:round;stroke-miterlimit:2;">
    <g transform="matrix(1,0,0,1,-569,-180)">
        <g id="logo-msd">
            <g transform="matrix(1,0,0,1,611.617,223.337)">
                <path d="M0,-0.003C11.76,-0.003 21.291,9.53 21.291,21.289C33.05,21.289 42.584,11.758 42.584,-0.003C42.584,-11.76 33.05,-21.293 21.291,-21.293C21.291,-9.532 11.76,-0.003 0,-0.003M-21.291,21.289C-21.291,33.05 -11.758,42.58 0,42.58C11.76,42.58 21.291,33.05 21.291,21.289L-21.291,21.289ZM-21.291,21.289C-21.291,9.53 -11.758,-0.003 0,-0.003C-11.758,-0.003 -21.291,-9.532 -21.291,-21.293C-33.049,-21.293 -42.582,-11.76 -42.582,-0.003C-42.582,11.758 -33.049,21.289 -21.291,21.289M-21.291,-21.293C-21.291,-33.051 -11.758,-42.583 0,-42.583C11.76,-42.583 21.291,-33.051 21.291,-21.293L-21.291,-21.293Z" style="fill:rgb(0,131,124);fill-rule:nonzero;"/>
            </g>
            <g transform="matrix(1,0,0,1,773.629,210.691)">
                <path d="M0,26.104L-3.756,26.114L-3.756,-0.876L0,-0.876C10.342,-0.876 14.07,5.869 14.07,12.614C14.07,19.359 10.342,26.104 0,26.104M0.613,-8.694L-12.953,-8.694L-12.953,33.845L0.613,33.845C11.891,33.845 23.336,27.33 23.336,12.614C23.336,-2.102 11.891,-8.694 0.613,-8.694M-17.786,3.93C-17.786,-4.48 -24.249,-9.371 -31.978,-9.371C-39.643,-9.371 -47.999,-4.886 -47.999,3.833C-47.999,11.393 -39.678,15.281 -34.927,16.504C-32.319,17.193 -25.737,17.931 -25.737,22.634C-25.737,27.105 -30.336,28.324 -33.78,28.324C-38.218,28.324 -40.82,25.217 -40.437,20.521L-49.161,20.521C-49.466,31.111 -42.265,35.059 -33.857,35.251C-24.136,35.475 -16.715,31.32 -16.715,21.961C-16.715,12.548 -25.132,11.066 -31.714,8.929C-34.265,8.101 -38.984,7.363 -38.984,3.02C-38.984,-0.616 -35.845,-2.359 -32.632,-2.359C-28.5,-2.359 -26.357,-0.314 -26.051,3.93L-17.786,3.93M-65.767,-8.647L-52.573,-8.647L-52.573,33.932L-62.35,33.932L-62.35,5.298L-74.858,33.932L-88.021,5.262L-88.021,33.932L-97.145,33.932L-97.145,-8.647L-84.105,-8.647L-74.703,13.391L-65.767,-8.647Z" style="fill:rgb(50,62,72);fill-rule:nonzero;"/>
            </g>
        </g>
    </g>
</svg>
