<?xml version="1.0" encoding="UTF-8" standalone="no"?>
<!DOCTYPE svg PUBLIC "-//W3C//DTD SVG 1.1//EN" "http://www.w3.org/Graphics/SVG/1.1/DTD/svg11.dtd">
<svg width="100%" height="100%" viewBox="0 0 104 40" version="1.1" xmlns="http://www.w3.org/2000/svg" xmlns:xlink="http://www.w3.org/1999/xlink" xml:space="preserve" xmlns:serif="http://www.serif.com/" style="fill-rule:evenodd;clip-rule:evenodd;stroke-linejoin:round;stroke-miterlimit:2;">
    <g transform="matrix(1,0,0,1,-1848,-33)">
        <g transform="matrix(1,0,0,1,1536.75,0)">
            <g id="logo-msd-white">
                <g transform="matrix(1,0,0,1,330.648,52.7788)">
                    <path d="M0,-0.001C5.331,-0.001 9.651,4.32 9.651,9.65C14.981,9.65 19.303,5.33 19.303,-0.001C19.303,-5.33 14.981,-9.651 9.651,-9.651C9.651,-4.32 5.331,-0.001 0,-0.001M-9.651,9.65C-9.651,14.981 -5.33,19.301 0,19.301C5.331,19.301 9.651,14.981 9.651,9.65L-9.651,9.65ZM-9.651,9.65C-9.651,4.32 -5.33,-0.001 0,-0.001C-5.33,-0.001 -9.651,-4.32 -9.651,-9.651C-14.981,-9.651 -19.302,-5.33 -19.302,-0.001C-19.302,5.33 -14.981,9.65 -9.651,9.65M-9.651,-9.651C-9.651,-14.981 -5.33,-19.302 0,-19.302C5.331,-19.302 9.651,-14.981 9.651,-9.651L-9.651,-9.651Z" style="fill:rgb(252,252,252);fill-rule:nonzero;"/>
                </g>
                <g transform="matrix(1,0,0,1,404.085,47.0473)">
                    <path d="M0,11.832L-1.702,11.837L-1.702,-0.397L0,-0.397C4.688,-0.397 6.378,2.66 6.378,5.717C6.378,8.775 4.688,11.832 0,11.832M0.278,-3.941L-5.871,-3.941L-5.871,15.341L0.278,15.341C5.39,15.341 10.578,12.388 10.578,5.717C10.578,-0.953 5.39,-3.941 0.278,-3.941M-8.062,1.781C-8.062,-2.031 -10.992,-4.248 -14.495,-4.248C-17.969,-4.248 -21.757,-2.215 -21.757,1.737C-21.757,5.164 -17.986,6.926 -15.832,7.481C-14.65,7.793 -11.666,8.127 -11.666,10.259C-11.666,12.286 -13.751,12.838 -15.312,12.838C-17.324,12.838 -18.503,11.43 -18.329,9.301L-22.284,9.301C-22.422,14.102 -19.158,15.891 -15.347,15.978C-10.94,16.08 -7.577,14.196 -7.577,9.954C-7.577,5.687 -11.392,5.015 -14.375,4.047C-15.532,3.672 -17.671,3.337 -17.671,1.369C-17.671,-0.28 -16.248,-1.07 -14.791,-1.07C-12.919,-1.07 -11.947,-0.143 -11.809,1.781L-8.062,1.781M-29.811,-3.92L-23.83,-3.92L-23.83,15.38L-28.262,15.38L-28.262,2.401L-33.932,15.38L-39.899,2.385L-39.899,15.38L-44.034,15.38L-44.034,-3.92L-38.123,-3.92L-33.862,6.069L-29.811,-3.92Z" style="fill:rgb(252,252,252);fill-rule:nonzero;"/>
                </g>
            </g>
        </g>
    </g>
</svg>
