<?xml version="1.0" encoding="UTF-8" standalone="no"?>
<!DOCTYPE svg PUBLIC "-//W3C//DTD SVG 1.1//EN" "http://www.w3.org/Graphics/SVG/1.1/DTD/svg11.dtd">
<svg width="100%" height="100%" viewBox="0 0 76 70" version="1.1" xmlns="http://www.w3.org/2000/svg" xmlns:xlink="http://www.w3.org/1999/xlink" xml:space="preserve" xmlns:serif="http://www.serif.com/" style="fill-rule:evenodd;clip-rule:evenodd;stroke-linejoin:round;stroke-miterlimit:2;">
    <g transform="matrix(1,0,0,1,-277,-1162)">
        <g transform="matrix(1,0,0,1,0,864.001)">
            <g id="curva" transform="matrix(1,0,0,1,352.796,366.877)">
                <path d="M0,-68.77C-18.07,-51.776 -31.346,-31.542 -44.14,-10.949C-46.41,-7.295 -48.565,-3.572 -50.778,0.117C-50.8,0.154 -50.875,0.157 -50.784,0.123C-58.845,-11.44 -66.884,-22.974 -74.876,-34.439C-73.19,-36.12 -71.421,-37.884 -69.536,-39.764C-63.51,-35.463 -57.33,-31.055 -50.989,-26.53C-50.391,-27.3 -49.823,-28.036 -49.252,-28.768C-37.861,-43.339 -25.187,-56.604 -10.067,-67.397C-8.687,-68.382 -7.317,-68.927 -5.595,-68.799C-3.826,-68.668 -2.04,-68.77 0,-68.77" style="fill:#F4B11B;"/>
            </g>
        </g>
    </g>
</svg>
