<?xml version="1.0" encoding="UTF-8" standalone="no"?>
<!DOCTYPE svg PUBLIC "-//W3C//DTD SVG 1.1//EN" "http://www.w3.org/Graphics/SVG/1.1/DTD/svg11.dtd">
<svg width="100%" height="100%" viewBox="0 0 134 33" version="1.1" xmlns="http://www.w3.org/2000/svg" xmlns:xlink="http://www.w3.org/1999/xlink" xml:space="preserve" xmlns:serif="http://www.serif.com/" style="fill-rule:evenodd;clip-rule:evenodd;stroke-linejoin:round;stroke-miterlimit:2;">
    <g transform="matrix(1,0,0,1,0.001,-734.903)">
        <g>
            <g id="stringnet">
                <g transform="matrix(1,0,0,1,133.216,735.425)">
                    <path d="M0,32.405L-15.077,6.817C-19.334,-0.073 -27.232,0.044 -27.232,0.044L-52.072,0.067L-52.049,0.111L-133.217,0.111L-133.217,32.478L0,32.405Z" style="fill:rgb(39,33,29);fill-rule:nonzero;"/>
                </g>
                <g transform="matrix(-0.548189,0.836354,0.836354,0.548189,24.6021,757.228)">
                    <g>
                        <clipPath id="_clip1">
                            <path d="M-3.204,-12.579C-1.603,-15.02 1.349,-14.981 1.349,-14.981L10.676,-14.996L5.005,-6.345C3.426,-3.931 0.298,-3.891 0.298,-3.891L-8.867,-3.938L-3.204,-12.579Z"/>
                        </clipPath>
                        <g clip-path="url(#_clip1)">
                            <path d="M-7.29,-6.345L5.005,-6.345L3.387,-3.876L-8.867,-3.938L-7.29,-6.345Z" style="fill:white;fill-rule:nonzero;"/>
                        </g>
                    </g>
                </g>
                <g transform="matrix(1,0,0,-1,0,737.688)">
                    <path d="M23.292,-9.965C23.288,-9.971 23.283,-9.977 23.279,-9.984L16.552,-20.248C19.222,-20.25 20.919,-18.028 21.156,-17.697L26.169,-9.965L23.292,-9.965Z" style="fill:white;fill-rule:nonzero;"/>
                </g>
                <g transform="matrix(-0.548303,0.83628,0.83628,0.548303,37.5448,747.624)">
                    <path d="M10.728,-16.31L23.024,-16.31L21.407,-13.844L9.153,-13.907L10.728,-16.31Z" style="fill:white;fill-rule:nonzero;"/>
                </g>
                <g transform="matrix(-0.548758,0.835981,0.835981,0.548758,14.2597,757.233)">
                    <g>
                        <clipPath id="_clip2">
                            <path d="M-8.875,-3.938C-7.273,-6.378 -4.321,-6.337 -4.321,-6.337L5.006,-6.346L-0.671,2.302C-2.252,4.714 -5.38,4.753 -5.38,4.753L-14.544,4.699L-8.875,-3.938Z"/>
                        </clipPath>
                        <g clip-path="url(#_clip2)">
                            <path d="M-7.295,-6.345L5.005,-6.345L3.373,-3.859L-8.875,-3.938L-7.295,-6.345Z" style="fill:white;fill-rule:nonzero;"/>
                        </g>
                    </g>
                </g>
                <g transform="matrix(1,0,0,1,31.2129,748.626)">
                    <path d="M0,6.986C0.163,7.31 0.385,7.557 0.667,7.76C0.941,7.965 1.265,8.109 1.632,8.208C2.004,8.304 2.391,8.356 2.801,8.356C3.062,8.356 3.357,8.32 3.661,8.279C3.97,8.235 4.263,8.149 4.527,8.028C4.798,7.892 5.031,7.712 5.204,7.498C5.384,7.272 5.47,6.986 5.47,6.639C5.47,6.271 5.365,5.959 5.121,5.733C4.884,5.505 4.564,5.308 4.184,5.149C3.803,4.999 3.363,4.865 2.868,4.756C2.376,4.633 1.891,4.509 1.383,4.371C0.87,4.242 0.379,4.085 -0.119,3.899C-0.611,3.715 -1.04,3.476 -1.42,3.173C-1.811,2.876 -2.131,2.508 -2.368,2.064C-2.606,1.631 -2.721,1.096 -2.721,0.456C-2.721,-0.247 -2.564,-0.858 -2.272,-1.377C-1.966,-1.896 -1.563,-2.335 -1.088,-2.672C-0.596,-3.015 -0.044,-3.28 0.575,-3.437C1.192,-3.619 1.809,-3.694 2.424,-3.694C3.144,-3.694 3.843,-3.619 4.508,-3.452C5.167,-3.284 5.75,-3.033 6.269,-2.672C6.784,-2.31 7.181,-1.86 7.493,-1.291C7.792,-0.73 7.94,-0.061 7.94,0.738L5.012,0.738C4.989,0.317 4.895,-0.019 4.752,-0.289C4.608,-0.553 4.411,-0.776 4.165,-0.917C3.916,-1.071 3.64,-1.191 3.33,-1.251C3.004,-1.308 2.665,-1.343 2.288,-1.343C2.046,-1.343 1.809,-1.316 1.565,-1.266C1.318,-1.212 1.096,-1.124 0.904,-1.007C0.694,-0.871 0.527,-0.714 0.395,-0.519C0.278,-0.327 0.205,-0.078 0.205,0.219C0.205,0.485 0.257,0.696 0.364,0.87C0.473,1.024 0.669,1.188 0.971,1.328C1.278,1.47 1.69,1.608 2.232,1.75C2.761,1.886 3.46,2.064 4.319,2.301C4.566,2.349 4.937,2.441 5.386,2.57C5.844,2.704 6.3,2.917 6.748,3.208C7.196,3.51 7.591,3.911 7.919,4.392C8.241,4.892 8.407,5.526 8.407,6.285C8.407,6.919 8.279,7.511 8.034,8.032C7.792,8.584 7.432,9.042 6.945,9.442C6.464,9.827 5.871,10.128 5.154,10.352C4.443,10.567 3.615,10.68 2.677,10.68C1.916,10.68 1.19,10.584 0.477,10.398C-0.236,10.209 -0.872,9.921 -1.418,9.519C-1.966,9.124 -2.401,8.615 -2.721,8C-3.037,7.383 -3.196,6.66 -3.177,5.808L-0.251,5.808C-0.251,6.281 -0.174,6.662 0,6.986" style="fill:white;fill-rule:nonzero;"/>
                </g>
                <g transform="matrix(1,0,0,1,0,735.044)">
                    <path d="M58.945,23.716L56.044,23.716L56.044,13.163L58.945,13.163L58.945,23.716ZM56.044,9.143L58.945,9.143L58.945,11.532L56.044,11.532L56.044,9.143Z" style="fill:white;fill-rule:nonzero;"/>
                </g>
                <g transform="matrix(1,0,0,1,86.1943,758.478)">
                    <path d="M0,-10.271L0,-8.796L0.061,-8.796C0.429,-9.407 0.904,-9.867 1.5,-10.141C2.081,-10.415 2.682,-10.553 3.295,-10.553C4.071,-10.553 4.711,-10.443 5.208,-10.25C5.702,-10.024 6.104,-9.727 6.388,-9.357C6.675,-8.983 6.873,-8.537 6.991,-7.991C7.108,-7.451 7.162,-6.861 7.162,-6.209L7.162,0.282L4.257,0.282L4.257,-5.675C4.257,-6.552 4.121,-7.2 3.845,-7.629C3.579,-8.056 3.087,-8.263 2.399,-8.263C1.604,-8.263 1.031,-8.029 0.674,-7.56C0.322,-7.094 0.142,-6.318 0.142,-5.249L0.142,0.282L-2.763,0.282L-2.763,-10.271L0,-10.271Z" style="fill:white;fill-rule:nonzero;"/>
                </g>
                <g transform="matrix(1,0,0,1,111.492,755.71)">
                    <path d="M0,-7.503L0,-5.562L-2.129,-5.562L-2.129,-0.33C-2.129,0.147 -2.046,0.473 -1.881,0.646C-1.717,0.808 -1.391,0.897 -0.897,0.897C-0.732,0.897 -0.577,0.887 -0.431,0.866C-0.278,0.851 -0.136,0.841 0,0.808L0,3.05C-0.241,3.092 -0.515,3.121 -0.816,3.131C-1.115,3.15 -1.412,3.159 -1.703,3.159C-2.148,3.159 -2.577,3.125 -2.977,3.067C-3.378,3.002 -3.734,2.889 -4.045,2.703C-4.349,2.529 -4.589,2.272 -4.765,1.947C-4.943,1.619 -5.035,1.19 -5.035,0.661L-5.035,-5.562L-6.794,-5.562L-6.794,-7.503L-5.035,-7.503L-5.035,-10.662L-2.129,-10.662L-2.129,-7.503L0,-7.503Z" style="fill:white;fill-rule:nonzero;"/>
                </g>
                <g transform="matrix(1,0,0,1,77.7646,754.639)">
                    <path d="M0,1.393C0.305,1.217 0.577,1.012 0.772,0.74C0.977,0.458 1.127,0.155 1.236,-0.201C1.337,-0.542 1.389,-0.912 1.389,-1.299C1.389,-1.719 1.347,-2.136 1.261,-2.529C1.184,-2.908 1.052,-3.249 0.862,-3.556C0.665,-3.853 0.41,-4.087 0.105,-4.274C-0.218,-4.445 -0.607,-4.529 -1.086,-4.529C-1.502,-4.529 -1.845,-4.455 -2.142,-4.282C-2.441,-4.131 -2.686,-3.899 -2.882,-3.617C-3.077,-3.336 -3.219,-3.025 -3.309,-2.667C-3.401,-2.301 -3.447,-1.922 -3.447,-1.531C-3.447,-1.151 -3.407,-0.772 -3.332,-0.395C-3.257,-0.017 -3.123,0.31 -2.939,0.609C-2.755,0.916 -2.514,1.161 -2.217,1.351C-1.92,1.539 -1.542,1.636 -1.086,1.636C-0.684,1.636 -0.316,1.544 0,1.393M3.976,4.907C3.861,5.438 3.615,5.953 3.234,6.424C2.853,6.896 2.297,7.285 1.573,7.612C0.851,7.94 -0.121,8.108 -1.335,8.108C-1.849,8.108 -2.385,8.036 -2.922,7.915C-3.458,7.787 -3.958,7.582 -4.397,7.317C-4.832,7.037 -5.206,6.687 -5.495,6.265C-5.788,5.83 -5.961,5.317 -6.008,4.719L-3.115,4.719C-2.977,5.261 -2.713,5.637 -2.316,5.855C-1.922,6.055 -1.464,6.168 -0.943,6.168C-0.126,6.168 0.469,5.922 0.843,5.426C1.22,4.949 1.395,4.326 1.389,3.581L1.389,2.184L1.347,2.184C1.027,2.742 0.588,3.154 0.008,3.424C-0.573,3.681 -1.18,3.817 -1.83,3.817C-2.617,3.817 -3.303,3.679 -3.874,3.395C-4.443,3.115 -4.916,2.734 -5.286,2.257C-5.65,1.782 -5.92,1.213 -6.095,0.556C-6.263,-0.08 -6.348,-0.772 -6.348,-1.489C-6.348,-2.171 -6.252,-2.826 -6.056,-3.466C-5.859,-4.089 -5.566,-4.654 -5.183,-5.129C-4.801,-5.61 -4.326,-6.001 -3.763,-6.286C-3.196,-6.574 -2.544,-6.715 -1.801,-6.715C-1.113,-6.715 -0.502,-6.593 0.023,-6.325C0.548,-6.074 0.994,-5.641 1.347,-5.033L1.389,-5.033L1.389,-6.432L4.148,-6.432L4.148,3.445C4.148,3.868 4.094,4.355 3.976,4.907" style="fill:white;fill-rule:nonzero;"/>
                </g>
                <g transform="matrix(1,0,0,1,46.6039,755.71)">
                    <path d="M0,-7.503L0,-5.562L-2.127,-5.562L-2.127,-0.33C-2.127,0.147 -2.046,0.473 -1.881,0.646C-1.715,0.808 -1.387,0.897 -0.904,0.897C-0.732,0.897 -0.577,0.887 -0.431,0.866C-0.282,0.851 -0.138,0.841 0,0.808L0,3.05C-0.245,3.092 -0.525,3.121 -0.816,3.131C-1.117,3.15 -1.412,3.159 -1.696,3.159C-2.144,3.159 -2.571,3.125 -2.977,3.067C-3.378,3.002 -3.734,2.889 -4.039,2.703C-4.342,2.529 -4.589,2.272 -4.757,1.947C-4.941,1.619 -5.035,1.19 -5.035,0.661L-5.035,-5.562L-6.792,-5.562L-6.792,-7.503L-5.035,-7.503L-5.035,-10.662L-2.127,-10.662L-2.127,-7.503L0,-7.503Z" style="fill:white;fill-rule:nonzero;"/>
                </g>
                <g transform="matrix(1,0,0,1,63.1873,758.478)">
                    <path d="M0,-10.271L0,-8.796L0.063,-8.796C0.431,-9.407 0.908,-9.867 1.496,-10.141C2.077,-10.415 2.682,-10.553 3.294,-10.553C4.068,-10.553 4.715,-10.443 5.204,-10.25C5.71,-10.024 6.1,-9.727 6.386,-9.357C6.671,-8.983 6.871,-8.537 6.993,-7.991C7.106,-7.451 7.164,-6.861 7.164,-6.209L7.164,0.282L4.257,0.282L4.257,-5.675C4.257,-6.552 4.119,-7.2 3.851,-7.629C3.577,-8.056 3.096,-8.263 2.395,-8.263C1.6,-8.263 1.025,-8.029 0.68,-7.56C0.316,-7.094 0.14,-6.318 0.14,-5.249L0.14,0.282L-2.77,0.282L-2.77,-10.271L0,-10.271Z" style="fill:white;fill-rule:nonzero;"/>
                </g>
                <g transform="matrix(1,0,0,1,50.7686,758.478)">
                    <path d="M0,-10.271L0,-8.305L0.036,-8.305C0.169,-8.639 0.351,-8.936 0.584,-9.215C0.82,-9.493 1.092,-9.727 1.383,-9.93C1.684,-10.131 2.002,-10.292 2.345,-10.388C2.69,-10.495 3.043,-10.553 3.418,-10.553C3.608,-10.553 3.811,-10.528 4.045,-10.451L4.045,-7.757C3.905,-7.788 3.75,-7.811 3.56,-7.832C3.368,-7.845 3.182,-7.861 2.997,-7.861C2.47,-7.861 2.018,-7.776 1.655,-7.598C1.286,-7.412 0.992,-7.171 0.763,-6.874C0.533,-6.558 0.379,-6.209 0.284,-5.801C0.188,-5.389 0.142,-4.948 0.142,-4.475L0.142,0.282L-2.77,0.282L-2.77,-10.271L0,-10.271Z" style="fill:white;fill-rule:nonzero;"/>
                </g>
                <g transform="matrix(1,0,0,1,101.142,756.265)">
                    <path d="M0,-5.581C-0.343,-5.964 -0.87,-6.154 -1.579,-6.154C-2.046,-6.154 -2.429,-6.091 -2.74,-5.92C-3.043,-5.763 -3.29,-5.575 -3.472,-5.336C-3.66,-5.102 -3.79,-4.861 -3.863,-4.61C-3.941,-4.343 -3.985,-4.108 -3.993,-3.912L0.732,-3.912C0.598,-4.648 0.356,-5.198 0,-5.581M-3.28,-0.032C-2.847,0.393 -2.217,0.598 -1.395,0.598C-0.809,0.598 -0.301,0.452 0.121,0.159C0.54,-0.128 0.801,-0.444 0.895,-0.768L3.451,-0.768C3.041,0.489 2.416,1.401 1.573,1.956C0.724,2.489 -0.297,2.759 -1.498,2.759C-2.33,2.759 -3.087,2.625 -3.75,2.374C-4.42,2.096 -4.989,1.717 -5.453,1.236C-5.913,0.742 -6.271,0.159 -6.522,-0.521C-6.784,-1.209 -6.901,-1.952 -6.901,-2.774C-6.901,-3.554 -6.779,-4.293 -6.516,-4.97C-6.258,-5.658 -5.89,-6.238 -5.411,-6.744C-4.936,-7.229 -4.368,-7.627 -3.702,-7.911C-3.039,-8.2 -2.305,-8.34 -1.498,-8.34C-0.598,-8.34 0.184,-8.175 0.851,-7.819C1.523,-7.47 2.075,-7.003 2.504,-6.426C2.931,-5.838 3.24,-5.173 3.431,-4.424C3.623,-3.682 3.688,-2.889 3.638,-2.073L-3.993,-2.073C-3.955,-1.132 -3.717,-0.46 -3.28,-0.032" style="fill:white;fill-rule:nonzero;"/>
                </g>
            </g>
        </g>
    </g>
</svg>
